{
	"asset":{
		"generator":"Khronos glTF Blender I/O v4.3.47",
		"version":"2.0"
	},
	"scene":0,
	"scenes":[
		{
			"name":"Scene",
			"nodes":[
				0
			]
		}
	],
	"nodes":[
		{
			"mesh":0,
			"name":"Curve.047",
			"rotation":[
				0.7071068286895752,
				0,
				0,
				0.7071068286895752
			],
			"scale":[
				66.6902084350586,
				66.6902084350586,
				66.6902084350586
			],
			"translation":[
				-4.598482608795166,
				-0.09999998658895493,
				0
			]
		}
	],
	"meshes":[
		{
			"name":"Curve.048",
			"primitives":[
				{
					"attributes":{
						"POSITION":0,
						"NORMAL":1,
						"TEXCOORD_0":2
					},
					"indices":3
				}
			]
		}
	],
	"accessors":[
		{
			"bufferView":0,
			"componentType":5126,
			"count":1824,
			"max":[
				0.1443839967250824,
				0.006000000052154064,
				0.001858915900811553
			],
			"min":[
				-0.005913119297474623,
				-0.006000000052154064,
				-0.14840805530548096
			],
			"type":"VEC3"
		},
		{
			"bufferView":1,
			"componentType":5126,
			"count":1824,
			"type":"VEC3"
		},
		{
			"bufferView":2,
			"componentType":5126,
			"count":1824,
			"type":"VEC2"
		},
		{
			"bufferView":3,
			"componentType":5123,
			"count":8592,
			"type":"SCALAR"
		}
	],
	"bufferViews":[
		{
			"buffer":0,
			"byteLength":21888,
			"byteOffset":0,
			"target":34962
		},
		{
			"buffer":0,
			"byteLength":21888,
			"byteOffset":21888,
			"target":34962
		},
		{
			"buffer":0,
			"byteLength":14592,
			"byteOffset":43776,
			"target":34962
		},
		{
			"buffer":0,
			"byteLength":17184,
			"byteOffset":58368,
			"target":34963
		}
	],
	"buffers":[
		{
			"byteLength":75552,
			"uri":"swartz_element-main.bin"
		}
	]
}
