<svg width="50" height="50" viewBox="0 0 50 50" fill="none" xmlns="http://www.w3.org/2000/svg">
<path d="M39.875 26.9583C39.9583 26.3333 40 25.6875 40 25C40 24.3333 39.9583 23.6667 39.8542 23.0417L44.0833 19.75C44.4583 19.4583 44.5625 18.8958 44.3333 18.4792L40.3333 11.5625C40.0833 11.1042 39.5625 10.9583 39.1042 11.1042L34.125 13.1042C33.0833 12.3125 31.9792 11.6458 30.75 11.1458L30 5.85417C29.9167 5.35417 29.5 5 29 5H21C20.5 5 20.1042 5.35417 20.0208 5.85417L19.2708 11.1458C18.0417 11.6458 16.9167 12.3333 15.8958 13.1042L10.9167 11.1042C10.4583 10.9375 9.93751 11.1042 9.68751 11.5625L5.70834 18.4792C5.45834 18.9167 5.54167 19.4583 5.95834 19.75L10.1875 23.0417C10.0833 23.6667 10 24.3542 10 25C10 25.6458 10.0417 26.3333 10.1458 26.9583L5.91667 30.25C5.54167 30.5417 5.4375 31.1042 5.66667 31.5208L9.66667 38.4375C9.91667 38.8958 10.4375 39.0417 10.8958 38.8958L15.875 36.8958C16.9167 37.6875 18.0208 38.3542 19.25 38.8542L20 44.1458C20.1042 44.6458 20.5 45 21 45H29C29.5 45 29.9167 44.6458 29.9792 44.1458L30.7292 38.8542C31.9583 38.3542 33.0833 37.6875 34.1042 36.8958L39.0833 38.8958C39.5417 39.0625 40.0625 38.8958 40.3125 38.4375L44.3125 31.5208C44.5625 31.0625 44.4583 30.5417 44.0625 30.25L39.875 26.9583ZM25 32.5C20.875 32.5 17.5 29.125 17.5 25C17.5 20.875 20.875 17.5 25 17.5C29.125 17.5 32.5 20.875 32.5 25C32.5 29.125 29.125 32.5 25 32.5Z" fill="#282C33"/>
<circle cx="25" cy="25" r="5" fill="#282C33"/>
<circle cx="25" cy="25" r="2" fill="#92DD78"/>
<path d="M40.4838 27.0417C40.5671 26.375 40.6296 25.7084 40.6296 25C40.6296 24.2917 40.5671 23.625 40.4838 22.9584L44.8796 19.5209C45.2754 19.2084 45.3796 18.6459 45.1296 18.1875L40.9629 10.9792C40.7754 10.6459 40.4213 10.4584 40.0463 10.4584C39.9213 10.4584 39.7963 10.4792 39.6921 10.5209L34.5046 12.6042C33.4213 11.7709 32.2546 11.0834 30.9838 10.5625L30.1921 5.04169C30.1296 4.54169 29.6921 4.16669 29.1713 4.16669H20.8379C20.3171 4.16669 19.8796 4.54169 19.8171 5.04169L19.0254 10.5625C17.7546 11.0834 16.5879 11.7917 15.5046 12.6042L10.3171 10.5209C10.1921 10.4792 10.0671 10.4584 9.94211 10.4584C9.58794 10.4584 9.23378 10.6459 9.04628 10.9792L4.87961 18.1875C4.60878 18.6459 4.73378 19.2084 5.12961 19.5209L9.52544 22.9584C9.44211 23.625 9.37961 24.3125 9.37961 25C9.37961 25.6875 9.44211 26.375 9.52544 27.0417L5.12961 30.4792C4.73378 30.7917 4.62961 31.3542 4.87961 31.8125L9.04628 39.0209C9.23378 39.3542 9.58794 39.5417 9.96294 39.5417C10.0879 39.5417 10.2129 39.5209 10.3171 39.4792L15.5046 37.3959C16.5879 38.2292 17.7546 38.9167 19.0254 39.4375L19.8171 44.9584C19.8796 45.4584 20.3171 45.8334 20.8379 45.8334H29.1713C29.6921 45.8334 30.1296 45.4584 30.1921 44.9584L30.9838 39.4375C32.2546 38.9167 33.4213 38.2084 34.5046 37.3959L39.6921 39.4792C39.8171 39.5209 39.9421 39.5417 40.0671 39.5417C40.4213 39.5417 40.7754 39.3542 40.9629 39.0209L45.1296 31.8125C45.3796 31.3542 45.2754 30.7917 44.8796 30.4792L40.4838 27.0417ZM36.3588 23.4792C36.4421 24.125 36.4629 24.5625 36.4629 25C36.4629 25.4375 36.4213 25.8959 36.3588 26.5209L36.0671 28.875L37.9213 30.3334L40.1713 32.0834L38.7129 34.6042L36.0671 33.5417L33.9004 32.6667L32.0254 34.0834C31.1296 34.75 30.2754 35.25 29.4213 35.6042L27.2129 36.5L26.8796 38.8542L26.4629 41.6667H23.5463L22.8171 36.5L20.6088 35.6042C19.7129 35.2292 18.8796 34.75 18.0463 34.125L16.1504 32.6667L13.9421 33.5625L11.2963 34.625L9.83794 32.1042L12.0879 30.3542L13.9421 28.8959L13.6504 26.5417C13.5879 25.8959 13.5463 25.4167 13.5463 25C13.5463 24.5834 13.5879 24.1042 13.6504 23.4792L13.9421 21.125L12.0879 19.6667L9.83794 17.9167L11.2963 15.3959L13.9421 16.4584L16.1088 17.3334L17.9838 15.9167C18.8796 15.25 19.7338 14.75 20.5879 14.3959L22.7963 13.5L23.1296 11.1459L23.5463 8.33335H26.4421L27.1713 13.5L29.3796 14.3959C30.2754 14.7709 31.1088 15.25 31.9421 15.875L33.8379 17.3334L36.0463 16.4375L38.6921 15.375L40.1504 17.8959L37.9213 19.6667L36.0671 21.125L36.3588 23.4792ZM25.0046 16.6667C20.4004 16.6667 16.6713 20.3959 16.6713 25C16.6713 29.6042 20.4004 33.3334 25.0046 33.3334C29.6088 33.3334 33.3379 29.6042 33.3379 25C33.3379 20.3959 29.6088 16.6667 25.0046 16.6667ZM25.0046 29.1667C22.7129 29.1667 20.8379 27.2917 20.8379 25C20.8379 22.7084 22.7129 20.8334 25.0046 20.8334C27.2963 20.8334 29.1713 22.7084 29.1713 25C29.1713 27.2917 27.2963 29.1667 25.0046 29.1667Z" fill="#92DD78"/>
</svg>
