<svg width="16" height="16" viewBox="0 0 16 16" fill="none" xmlns="http://www.w3.org/2000/svg">
<path fill-rule="evenodd" clip-rule="evenodd" d="M8 16C12.4183 16 16 12.4183 16 8C16 3.58172 12.4183 0 8 0C3.58172 0 0 3.58172 0 8C0 12.4183 3.58172 16 8 16ZM12.2551 9.02704C12.4581 8.27503 12.4773 7.45839 12.2613 6.65254C11.6064 4.20842 9.08555 2.75783 6.63437 3.41462C4.18319 4.07141 2.72534 6.5881 3.38024 9.03222C3.59617 9.83807 4.02107 10.5357 4.57292 11.0855C4.9864 9.55573 6.17778 8.28262 7.82079 7.84238C9.46379 7.40214 11.1321 7.90899 12.2551 9.02704Z" fill="white"/>
</svg>
