<svg width="16" height="16" viewBox="0 0 16 16" fill="none" xmlns="http://www.w3.org/2000/svg">
<path fill-rule="evenodd" clip-rule="evenodd" d="M8 16C12.4183 16 16 12.4183 16 8C16 3.58172 12.4183 0 8 0C3.58172 0 0 3.58172 0 8C0 12.4183 3.58172 16 8 16ZM5.14286 8.00002C5.14286 6.42288 6.42286 5.14288 8 5.14288C9.57715 5.14288 10.8571 6.42288 10.8571 8.00002C10.8571 9.57716 9.57715 10.8572 8 10.8572C6.42286 10.8572 5.14286 9.57716 5.14286 8.00002ZM7.42857 4.00002V1.71431H8.57143V4.00002H7.42857ZM7.42857 14.2857V12H8.57143V14.2857H7.42857ZM12 7.42859H14.2857V8.57145H12V7.42859ZM1.71429 7.42859H4V8.57145H1.71429V7.42859ZM11.8343 12.6457L10.4229 11.2343L11.2286 10.4286L12.64 11.84L11.8343 12.6457ZM4.76572 5.57145L3.35429 4.16002L4.16 3.35431L5.57143 4.76574L4.76572 5.57145ZM3.35429 11.8343L4.76572 10.4229L5.57143 11.2286L4.16 12.64L3.35429 11.8343ZM10.4286 4.76574L11.84 3.35431L12.6457 4.16002L11.2343 5.57145L10.4286 4.76574Z" fill="white"/>
</svg>
