<svg width="96" height="96" viewBox="0 0 96 96" fill="none" xmlns="http://www.w3.org/2000/svg">
<circle cx="12" cy="12" r="2" fill="#ABB2BF"/>
<circle cx="30" cy="12" r="2" fill="#ABB2BF"/>
<circle cx="48" cy="12" r="2" fill="#ABB2BF"/>
<circle cx="66" cy="12" r="2" fill="#ABB2BF"/>
<circle cx="84" cy="12" r="2" fill="#ABB2BF"/>
<circle cx="12" cy="30" r="2" fill="#ABB2BF"/>
<circle cx="30" cy="30" r="2" fill="#ABB2BF"/>
<circle cx="48" cy="30" r="2" fill="#ABB2BF"/>
<circle cx="66" cy="30" r="2" fill="#ABB2BF"/>
<circle cx="84" cy="30" r="2" fill="#ABB2BF"/>
<circle cx="12" cy="48" r="2" fill="#ABB2BF"/>
<circle cx="30" cy="48" r="2" fill="#ABB2BF"/>
<circle cx="48" cy="48" r="2" fill="#ABB2BF"/>
<circle cx="66" cy="48" r="2" fill="#ABB2BF"/>
<circle cx="84" cy="48" r="2" fill="#ABB2BF"/>
<circle cx="12" cy="66" r="2" fill="#ABB2BF"/>
<circle cx="30" cy="66" r="2" fill="#ABB2BF"/>
<circle cx="48" cy="66" r="2" fill="#ABB2BF"/>
<circle cx="66" cy="66" r="2" fill="#ABB2BF"/>
<circle cx="84" cy="66" r="2" fill="#ABB2BF"/>
<circle cx="12" cy="84" r="2" fill="#ABB2BF"/>
<circle cx="30" cy="84" r="2" fill="#ABB2BF"/>
<circle cx="48" cy="84" r="2" fill="#ABB2BF"/>
<circle cx="66" cy="84" r="2" fill="#ABB2BF"/>
<circle cx="84" cy="84" r="2" fill="#ABB2BF"/>
</svg>
