<svg width="185" height="186" viewBox="0 0 185 186" fill="none" xmlns="http://www.w3.org/2000/svg">
<mask id="path-1-inside-1_747_1440" fill="white">
<path fill-rule="evenodd" clip-rule="evenodd" d="M65.1912 31H31V65.1912H65.1912V31ZM75.9045 41.7132H144.287V110.096H110.096V75.9044H75.9045V41.7132ZM75.9045 75.9044H41.7132V144.287H110.096V110.096H75.9045V75.9044ZM155 120.809H120.809V155H155V120.809Z"/>
</mask>
<path d="M31 31V30H30V31H31ZM65.1912 31H66.1912V30H65.1912V31ZM31 65.1912H30V66.1912H31V65.1912ZM65.1912 65.1912V66.1912H66.1912V65.1912H65.1912ZM144.287 41.7132H145.287V40.7132H144.287V41.7132ZM75.9045 41.7132V40.7132H74.9045V41.7132H75.9045ZM144.287 110.096V111.096H145.287V110.096H144.287ZM110.096 75.9044H111.096V74.9044H110.096V75.9044ZM41.7132 75.9044V74.9044H40.7132V75.9044H41.7132ZM41.7132 144.287H40.7132V145.287H41.7132V144.287ZM110.096 144.287V145.287H111.096V144.287H110.096ZM75.9045 110.096H74.9045V111.096H75.9045V110.096ZM120.809 120.809V119.809H119.809V120.809H120.809ZM155 120.809H156V119.809H155V120.809ZM120.809 155H119.809V156H120.809V155ZM155 155V156H156V155H155ZM31 32H65.1912V30H31V32ZM32 65.1912V31H30V65.1912H32ZM65.1912 64.1912H31V66.1912H65.1912V64.1912ZM64.1912 31V65.1912H66.1912V31H64.1912ZM144.287 40.7132H75.9045V42.7132H144.287V40.7132ZM145.287 110.096V41.7132H143.287V110.096H145.287ZM110.096 111.096H144.287V109.096H110.096V111.096ZM111.096 110.096V75.9044H109.096V110.096H111.096ZM110.096 74.9044H75.9045V76.9044H110.096V74.9044ZM74.9045 41.7132V75.9044H76.9045V41.7132H74.9045ZM75.9045 74.9044H41.7132V76.9044H75.9045V74.9044ZM40.7132 75.9044V144.287H42.7132V75.9044H40.7132ZM41.7132 145.287H110.096V143.287H41.7132V145.287ZM111.096 144.287V110.096H109.096V144.287H111.096ZM75.9045 111.096H110.096V109.096H75.9045V111.096ZM74.9045 75.9044V110.096H76.9045V75.9044H74.9045ZM120.809 121.809H155V119.809H120.809V121.809ZM121.809 155V120.809H119.809V155H121.809ZM155 154H120.809V156H155V154ZM154 120.809V155H156V120.809H154Z" fill="#92DD78" mask="url(#path-1-inside-1_747_1440)"/>
</svg>
