<svg width="124" height="124" viewBox="0 0 124 124" fill="none" xmlns="http://www.w3.org/2000/svg">
<g id="Exclude">
<mask id="path-1-inside-1_509_1419" fill="white">
<path fill-rule="evenodd" clip-rule="evenodd" d="M34.1912 0H0V34.1912H34.1912V0ZM44.9045 10.7132H113.287V79.0956H79.0956V44.9044H44.9045V10.7132ZM44.9045 44.9044H10.7132V113.287H79.0956V79.0956H44.9045V44.9044ZM124 89.8089H89.8088V124H124V89.8089Z"/>
</mask>
<path d="M0 0V-1H-1V0H0ZM34.1912 0H35.1912V-1H34.1912V0ZM0 34.1912H-1V35.1912H0V34.1912ZM34.1912 34.1912V35.1912H35.1912V34.1912H34.1912ZM113.287 10.7132H114.287V9.7132H113.287V10.7132ZM44.9045 10.7132V9.7132H43.9045V10.7132H44.9045ZM113.287 79.0956V80.0956H114.287V79.0956H113.287ZM79.0956 44.9044H80.0956V43.9044H79.0956V44.9044ZM10.7132 44.9044V43.9044H9.71316V44.9044H10.7132ZM10.7132 113.287H9.71316V114.287H10.7132V113.287ZM79.0956 113.287V114.287H80.0956V113.287H79.0956ZM44.9045 79.0956H43.9045V80.0956H44.9045V79.0956ZM89.8088 89.8089V88.8089H88.8088V89.8089H89.8088ZM124 89.8089H125V88.8089H124V89.8089ZM89.8088 124H88.8088V125H89.8088V124ZM124 124V125H125V124H124ZM0 1H34.1912V-1H0V1ZM1 34.1912V0H-1V34.1912H1ZM34.1912 33.1912H0V35.1912H34.1912V33.1912ZM33.1912 0V34.1912H35.1912V0H33.1912ZM113.287 9.7132H44.9045V11.7132H113.287V9.7132ZM114.287 79.0956V10.7132H112.287V79.0956H114.287ZM79.0956 80.0956H113.287V78.0956H79.0956V80.0956ZM80.0956 79.0956V44.9044H78.0956V79.0956H80.0956ZM79.0956 43.9044H44.9045V45.9044H79.0956V43.9044ZM43.9045 10.7132V44.9044H45.9045V10.7132H43.9045ZM44.9045 43.9044H10.7132V45.9044H44.9045V43.9044ZM9.71316 44.9044V113.287H11.7132V44.9044H9.71316ZM10.7132 114.287H79.0956V112.287H10.7132V114.287ZM80.0956 113.287V79.0956H78.0956V113.287H80.0956ZM44.9045 80.0956H79.0956V78.0956H44.9045V80.0956ZM43.9045 44.9044V79.0956H45.9045V44.9044H43.9045ZM89.8088 90.8089H124V88.8089H89.8088V90.8089ZM90.8088 124V89.8089H88.8088V124H90.8088ZM124 123H89.8088V125H124V123ZM123 89.8089V124H125V89.8089H123Z" fill="#92DD78" mask="url(#path-1-inside-1_509_1419)"/>
</g>
</svg>
