<svg width="100" height="100" viewBox="0 0 100 100" fill="none" xmlns="http://www.w3.org/2000/svg">
<g clip-path="url(#clip0_847_1774)">
<path d="M50 100C77.6142 100 100 77.6142 100 50C100 22.3858 77.6142 0 50 0C22.3858 0 0 22.3858 0 50C0 77.6142 22.3858 100 50 100Z" fill="#92DD78"/>
<path d="M50.0001 98.0892C76.559 98.0892 98.0892 76.559 98.0892 50.0001C98.0892 23.4411 76.559 1.91089 50.0001 1.91089C23.4411 1.91089 1.91089 23.4411 1.91089 50.0001C1.91089 76.559 23.4411 98.0892 50.0001 98.0892Z" fill="#282C33"/>
<path d="M40.2184 14.7861C40.0359 14.6262 39.8014 14.538 39.5587 14.538C39.316 14.538 39.0816 14.6262 38.899 14.7861L36.3968 16.7425L35.8508 17.1974L35.5323 17.4249L34.9864 18.1983C34.6491 17.6965 34.2345 17.2512 33.758 16.8789V16.333C33.8678 16.1581 33.9894 15.9909 34.122 15.8325V15.5596L34.5769 15.0136C35.2281 14.3363 35.8216 13.6059 36.3513 12.8298C36.4428 12.6156 36.453 12.3754 36.3799 12.1543C36.3068 11.9331 36.1554 11.7463 35.9542 11.6289C35.753 11.5116 35.5159 11.4717 35.2874 11.5169C35.0589 11.5621 34.8548 11.6893 34.7134 11.8744V12.1474L34.3039 12.6478L33.4395 13.6487C32.9082 14.2441 32.45 14.9009 32.0746 15.6051C30.7495 15.1514 29.3374 15.0098 27.9486 15.1913C26.5597 15.3728 25.2315 15.8725 24.0674 16.6515C22.5263 17.5848 21.2067 18.8423 20.2002 20.3366C18.6096 22.3142 17.7143 24.7604 17.6524 27.2975C17.6842 28.5629 17.9949 29.8057 18.5624 30.9372C17.0566 31.8275 15.653 32.8802 14.3767 34.0764C14.2071 34.2541 14.1124 34.4904 14.1124 34.7361C14.1124 34.9818 14.2071 35.218 14.3767 35.3958C14.562 35.5685 14.8059 35.6645 15.0592 35.6645C15.3125 35.6645 15.5563 35.5685 15.7416 35.3958L16.697 34.5768L17.1975 34.1674H17.4705C18.1346 33.6494 18.8339 33.1781 19.5633 32.757C19.8618 33.124 20.1972 33.4594 20.5642 33.7579C19.8817 35.8507 19.6998 38.3075 18.8808 40.2183C18.7893 40.4325 18.7791 40.6727 18.8522 40.8939C18.9253 41.115 19.0767 41.3019 19.2779 41.4192C19.4791 41.5366 19.7162 41.5764 19.9447 41.5312C20.1732 41.486 20.3773 41.3589 20.5187 41.1738C21.2482 39.0297 21.8408 36.8415 22.293 34.6223C23.3524 34.8959 24.4639 34.8959 25.5232 34.6223C27.3003 34.2107 28.9768 33.4471 30.4537 32.3765C31.9306 31.3059 33.1779 29.9502 34.122 28.3894C35.8047 25.8272 36.4096 22.7049 35.8053 19.6997C37.3522 18.6078 38.7625 17.3339 40.3549 16.151C40.4374 16.0532 40.4995 15.9399 40.5373 15.8177C40.5752 15.6955 40.5882 15.567 40.5755 15.4397C40.5627 15.3124 40.5246 15.1889 40.4632 15.0767C40.4019 14.9644 40.3187 14.8656 40.2184 14.7861Z" fill="#92DD78"/>
<path d="M19.9728 27.7525C19.928 28.2064 19.928 28.6635 19.9728 29.1174C19.6958 27.921 19.6826 26.6786 19.934 25.4766C20.1854 24.2746 20.6954 23.1417 21.4286 22.1565C21.9351 21.3881 22.4978 20.6581 23.112 19.9727C23.2383 19.996 23.3688 19.9776 23.4838 19.9201C23.5987 19.8626 23.6918 19.7693 23.7489 19.6543C24.1925 19.0977 24.7134 18.6074 25.2958 18.1984L26.0237 17.9254L24.8863 18.8808C22.3119 21.2129 20.5838 24.3331 19.9728 27.7525Z" fill="#92DD78"/>
<path d="M32.939 26.6151C31.5829 29.2301 29.3415 31.2779 26.6151 32.3931C25.4142 32.9844 24.038 33.1139 22.7479 32.7571H22.384C21.7578 31.0073 21.6132 29.1214 21.9654 27.2966C22.3175 25.4718 23.1535 23.7751 24.3858 22.384C25.4392 21.0255 26.7162 19.8563 28.1619 18.9263C29.3903 18.1529 31.1192 17.3794 32.3931 18.3804C32.5712 18.4335 32.7609 18.4335 32.939 18.3804C35.0318 20.6097 34.0764 24.2948 32.939 26.6151Z" fill="#282C33"/>
<path d="M19.4268 55.232C18.7977 54.9194 18.1047 54.7567 17.4022 54.7567C16.6997 54.7567 16.0067 54.9194 15.3776 55.232C14.7214 55.431 14.1186 55.7759 13.6144 56.2407C13.1102 56.7055 12.7175 57.2783 12.4659 57.9163C12.4659 57.9163 12.4659 57.9163 12.4659 58.2347C12.0311 58.997 11.8024 59.8594 11.8024 60.737C11.8024 61.6146 12.0311 62.477 12.4659 63.2393C12.9382 63.9791 13.6335 64.5497 14.4512 64.8687C15.269 65.1876 16.167 65.2383 17.0155 65.0136C17.7709 64.8178 18.4789 64.4709 19.0966 63.9939C19.7144 63.5169 20.2291 62.9197 20.6097 62.2384C21.3413 61.1394 21.6263 59.8027 21.4065 58.5008C21.1867 57.1989 20.4787 56.0299 19.4268 55.232Z" fill="#92DD78"/>
<path d="M25.2502 48.7716C25.2315 48.6484 25.1849 48.531 25.1139 48.4285C25.043 48.326 24.9495 48.2411 24.8408 48.1802L24.2493 47.9527H23.4759C23.131 48.0008 22.8114 48.1606 22.566 48.4077C22.3104 48.6603 22.1227 48.9732 22.02 49.3176C21.9295 49.6759 21.9295 50.0511 22.02 50.4095C21.9945 50.5906 21.9945 50.7743 22.02 50.9554V51.2284V51.4559C22.1762 51.5914 22.3639 51.6852 22.566 51.7289C22.7761 51.7718 22.9928 51.7718 23.2029 51.7289H23.5214C23.7307 51.6107 23.9037 51.4377 24.0219 51.2284C24.2491 51.1191 24.4441 50.9525 24.5876 50.7452C24.7312 50.5378 24.8184 50.2967 24.8408 50.0455C24.9779 49.9757 25.0894 49.8642 25.1593 49.727C25.273 49.5976 25.343 49.4356 25.3594 49.2641C25.3757 49.0925 25.3375 48.9202 25.2502 48.7716Z" fill="#92DD78"/>
<path d="M33.0755 78.0255C32.932 77.3801 32.6608 76.7698 32.278 76.2307C31.8951 75.6916 31.4083 75.2345 30.8462 74.8863C30.127 74.4824 29.3016 74.3078 28.4804 74.3858C27.501 74.2205 26.4943 74.3803 25.6142 74.8408C24.6389 75.4178 23.898 76.3198 23.5214 77.3886C23.0939 78.4139 22.9163 79.5262 23.0033 80.6336C23.0904 81.7411 23.4395 82.812 24.0218 83.758C24.6875 84.7191 25.6976 85.3871 26.8426 85.6233C28.2176 85.84 29.6245 85.5489 30.8007 84.8044C31.8349 84.0488 32.609 82.991 33.0165 81.7768C33.4239 80.5626 33.4446 79.2519 33.0755 78.0255ZM31.3922 80.3003V80.5733C31.4351 80.7834 31.4351 81.0001 31.3922 81.2102V81.5742C31.3922 81.5742 31.3922 81.5742 31.3922 81.8017C31.2979 82.0142 31.1755 82.2132 31.0282 82.3931L30.7552 82.7116H30.4368L29.6178 82.9391H27.2976H27.0246L26.5241 82.6661L26.2966 82.4386L25.2957 81.8927C25.3069 81.8172 25.3069 81.7406 25.2957 81.6652V80.9372V80.4823C25.2504 80.2571 25.2504 80.0251 25.2957 79.7999V79.2994C25.2801 79.057 25.2801 78.8139 25.2957 78.5715C25.2808 78.4658 25.2808 78.3586 25.2957 78.253C25.2957 78.253 25.2957 78.253 25.2957 77.98C25.3794 77.7572 25.4861 77.5437 25.6142 77.3431V77.1156C25.7769 77.1959 25.956 77.2376 26.1374 77.2376C26.3189 77.2376 26.4979 77.1959 26.6606 77.1156H27.0701H27.4795C27.5873 77.1619 27.7034 77.1858 27.8208 77.1858C27.9381 77.1858 28.0542 77.1619 28.162 77.1156H28.435H28.7079L29.1174 77.5705V77.8435V78.1165C29.1174 78.344 29.1174 78.5715 29.1174 78.7534C29.1174 78.9354 29.1174 79.0264 29.1174 79.1174C29.1174 79.3904 29.1174 79.6179 29.1174 79.8908C29.0631 80.1925 29.1308 80.5034 29.3058 80.7551C29.4807 81.0068 29.7484 81.1787 30.0501 81.233C30.3517 81.2873 30.6626 81.2195 30.9143 81.0446C31.166 80.8697 31.3379 80.602 31.3922 80.3003Z" fill="#92DD78"/>
<path d="M87.5341 45.4959C87.346 44.8187 86.9422 44.2213 86.3839 43.7943C85.8256 43.3674 85.1432 43.1342 84.4404 43.1301C83.7772 43.1744 83.1499 43.4478 82.6661 43.9036C82.2397 44.0595 81.8627 44.3265 81.5742 44.677C81.2213 45.0841 80.9646 45.5654 80.8228 46.0851C80.6811 46.6049 80.658 47.1498 80.7552 47.6797C80.8447 48.1938 81.0687 48.675 81.4043 49.0745C81.7399 49.474 82.1752 49.7776 82.6661 49.9545C83.296 50.1345 83.9615 50.1495 84.5989 49.9981C85.2363 49.8467 85.824 49.534 86.3057 49.0901C86.7954 48.642 87.1646 48.078 87.3792 47.45C87.5939 46.8219 87.6471 46.15 87.5341 45.4959Z" fill="#92DD78"/>
<path d="M87.8071 34.9409C87.8275 34.8204 87.8275 34.6974 87.8071 34.5769C87.6565 34.5523 87.5028 34.5523 87.3522 34.5769H87.0792H86.7607H86.4423C86.2787 34.5301 86.1053 34.5301 85.9418 34.5769C85.8097 34.6997 85.715 34.8575 85.6688 35.0319C85.6688 35.0319 85.6688 35.3048 85.6688 35.4868C85.6688 35.6688 85.6688 35.4868 85.6688 35.7598H85.8963H86.1693H86.8517H87.0792V35.4868V35.1683C87.2088 35.214 87.3498 35.2166 87.481 35.1756C87.6122 35.1346 87.7266 35.0522 87.8071 34.9409Z" fill="#92DD78"/>
<path d="M85.0319 65.1047C84.9578 64.8623 84.7944 64.657 84.5749 64.5304C84.3553 64.4037 84.0959 64.3651 83.849 64.4222C82.5296 64.7407 81.2557 65.3321 79.9363 65.6506C79.6225 64.4849 79.0642 63.3992 78.2985 62.4659C77.798 61.8745 77.2066 61.3285 76.7061 60.7371L77.0246 60.4186L77.8435 59.8726C78.3895 59.5087 78.9354 59.2357 79.5269 58.9172H79.9363H80.2548H80.6188C80.8527 58.8342 81.0475 58.6671 81.1652 58.4485C81.2829 58.2299 81.3152 57.9754 81.2557 57.7343C81.1914 57.4955 81.0369 57.2909 80.8247 57.1636C80.6126 57.0363 80.3594 56.9963 80.1183 57.0519C78.8871 57.4895 77.7114 58.0697 76.6151 58.7807C75.9769 59.1751 75.3686 59.6161 74.7953 60.1001C73.7718 59.2451 72.5229 58.7044 71.199 58.5429C69.8752 58.3815 68.533 58.6063 67.334 59.1902C67.3066 59.1175 67.264 59.0515 67.2091 58.9966C67.1542 58.9417 67.0882 58.8991 67.0155 58.8717L66.5605 58.4168L66.1056 57.9163C66.0969 57.8103 66.0969 57.7038 66.1056 57.5978C65.598 56.9041 65.1419 56.1742 64.7407 55.414C64.9699 55.2753 65.1347 55.0511 65.1987 54.7909C65.2627 54.5307 65.2207 54.2557 65.0819 54.0264C64.9432 53.7972 64.719 53.6324 64.4588 53.5684C64.1985 53.5044 63.9235 53.5464 63.6943 53.6852C63.5841 53.7422 63.4866 53.8211 63.408 53.9171C63.3294 54.0131 63.2713 54.1242 63.2372 54.2435C63.2031 54.3629 63.1938 54.4879 63.2098 54.6109C63.2258 54.734 63.2668 54.8525 63.3303 54.9591C63.7619 55.7649 64.2484 56.5402 64.7862 57.2794C65.2464 57.9445 65.7978 58.5418 66.424 59.0537C63.4378 60.9999 61.3314 64.0371 60.5551 67.516C60.5099 68.1976 60.5099 68.8816 60.5551 69.5633C58.866 69.9215 57.1398 70.0743 55.414 70.0182C55.1642 70.0293 54.9276 70.1336 54.7508 70.3104C54.574 70.4872 54.4697 70.7238 54.4586 70.9736C54.4793 71.2201 54.5866 71.4513 54.7615 71.6262C54.9363 71.8011 55.1676 71.9084 55.414 71.9291C56.4574 72.0426 57.5099 72.0426 58.5532 71.9291H60.0091H60.7371C60.8681 72.3956 61.0674 72.8402 61.3285 73.2484C60.1045 74.0507 58.9343 74.9322 57.8253 75.8872C57.7345 75.9762 57.6624 76.0823 57.6132 76.1995C57.5639 76.3167 57.5386 76.4425 57.5386 76.5696C57.5386 76.6967 57.5639 76.8226 57.6132 76.9398C57.6624 77.0569 57.7345 77.1631 57.8253 77.2521C58.003 77.4217 58.2393 77.5164 58.485 77.5164C58.7307 77.5164 58.967 77.4217 59.1447 77.2521L60.0546 76.4786H60.2821L60.7825 76.1147C61.283 75.7052 61.829 75.3412 62.3749 74.9773C63.4685 76.0695 64.7887 76.9082 66.2421 77.4341C68.9935 78.4127 71.9983 78.4127 74.7498 77.4341C74.9021 78.2087 75.1951 78.9489 75.6142 79.6179C75.6675 79.7424 75.7466 79.8542 75.8463 79.9458C75.9461 80.0375 76.0642 80.1068 76.1928 80.1494C76.3214 80.1919 76.4575 80.2066 76.5922 80.1925C76.7269 80.1784 76.8571 80.1358 76.9741 80.0675C77.0911 79.9993 77.1922 79.9069 77.2708 79.7966C77.3494 79.6863 77.4037 79.5605 77.4299 79.4277C77.4562 79.2948 77.454 79.1579 77.4233 79.0259C77.3926 78.894 77.3343 78.7701 77.2521 78.6625L76.7971 77.3431C76.7971 76.8881 76.5241 76.4786 76.4331 76.0237C77.23 75.5405 77.9254 74.907 78.4805 74.1584C79.8928 72.2654 80.5423 69.9108 80.3003 67.5614C81.6652 67.243 82.9391 66.606 84.3494 66.3331C84.6017 66.259 84.8148 66.0886 84.9425 65.8588C85.0702 65.6289 85.1023 65.358 85.0319 65.1047Z" fill="#92DD78"/>
<path d="M77.8435 71.4741C76.9681 73.1468 75.5267 74.454 73.7767 75.1623C72.0266 75.8707 70.0818 75.9341 68.2894 75.3412C66.6342 75.177 65.0948 74.4179 63.9569 73.2047C62.819 71.9915 62.1599 70.4067 62.1019 68.7443C62.2753 67.2144 62.7703 65.7384 63.5544 64.4133C64.3385 63.0882 65.3939 61.9439 66.6515 61.0555C67.9606 60.0365 69.5456 59.4342 71.2011 59.3267C72.2839 59.2773 73.3487 59.6161 74.2038 60.2821C74.2833 60.4508 74.391 60.6046 74.5223 60.7371C74.4871 60.9115 74.5132 61.0927 74.5961 61.2502C74.6789 61.4077 74.8136 61.5317 74.9773 61.6015C74.9773 61.6015 75.2047 61.6015 75.2957 61.6015C76.4464 62.6184 77.4022 63.8363 78.1165 65.1957C78.8255 67.2473 78.7279 69.4917 77.8435 71.4741Z" fill="#282C33"/>
<path d="M61.283 21.7015C60.9834 21.3736 60.6032 21.1297 60.1803 20.994C59.7573 20.8584 59.3062 20.8356 58.8717 20.9281C58.4151 20.7686 57.9179 20.7686 57.4614 20.9281C56.8376 21.1932 56.3131 21.6478 55.962 22.2275C55.6109 22.8073 55.451 23.4827 55.505 24.1583C55.4992 24.6927 55.6298 25.2197 55.8846 25.6894C56.1394 26.1591 56.5098 26.556 56.9609 26.8426C57.3771 27.1038 57.8467 27.2681 58.335 27.3232C58.8233 27.3784 59.3177 27.3229 59.7816 27.161C60.3388 26.9846 60.843 26.6715 61.2483 26.2504C61.6536 25.8292 61.947 25.3133 62.1019 24.7498C62.2516 24.2149 62.2545 23.6497 62.1104 23.1134C61.9664 22.577 61.6805 22.0893 61.283 21.7015Z" fill="#92DD78"/>
<path d="M58.9627 23.8398V23.7943H58.9172L58.9627 23.8398Z" fill="#92DD78"/>
<path d="M66.5605 15.6961C66.5754 15.5904 66.5754 15.4832 66.5605 15.3776C66.4716 15.3496 66.3763 15.3496 66.2875 15.3776C66.1236 15.3331 65.9509 15.3331 65.787 15.3776H65.5595C65.4274 15.5004 65.3328 15.6582 65.2866 15.8325V16.3785C65.2652 16.5446 65.2652 16.7128 65.2866 16.879H65.5141C65.663 16.9196 65.8201 16.9196 65.969 16.879C66.1326 16.9257 66.3059 16.9257 66.4695 16.879C66.6066 16.8091 66.7181 16.6976 66.7879 16.5605C66.8347 16.3969 66.8347 16.2236 66.7879 16.06C66.8077 15.9548 66.8077 15.8468 66.7879 15.7416C66.7155 15.7126 66.6384 15.6972 66.5605 15.6961Z" fill="#92DD78"/>
</g>
<defs>
<clipPath id="clip0_847_1774">
<rect width="100" height="100" fill="white"/>
</clipPath>
</defs>
</svg>
