<svg width="188" height="62" viewBox="0 0 188 62" fill="none" xmlns="http://www.w3.org/2000/svg">
<g clip-path="url(#clip0_848_2612)">
<path d="M116.977 59.5517C118.423 59.2438 119.815 58.7129 121.105 57.9774C123.082 56.6692 123.278 54.1859 124.342 52.2347C124.377 52.1504 124.395 52.06 124.395 51.9686C124.395 51.8772 124.377 51.7868 124.342 51.7025C131.994 50.7466 139.539 49.0464 146.874 46.625C154.671 44.1951 162.134 40.7601 169.08 36.4034C176.009 32.0458 182.092 26.4237 187.027 19.8181C187.087 19.7022 187.119 19.5727 187.119 19.4412C187.119 19.3097 187.087 19.1802 187.027 19.0643C187.041 18.9269 187.019 18.788 186.961 18.6629C186.904 18.5378 186.813 18.4312 186.701 18.3548C180.198 13.3102 172.829 9.55015 164.973 7.26839C157.137 4.97556 149.048 3.70894 140.899 3.49901C132.905 3.19061 124.901 3.67327 116.998 4.94024C115.521 0.949151 111.284 -0.0929611 107.503 0.0622479C104.793 0.273144 102.099 0.673191 99.4424 1.25958C96.8165 1.77324 94.2198 2.43199 91.6639 3.23295C89.1258 3.97689 86.6305 4.86519 84.1896 5.89367C82.0169 6.86927 79.8441 8.11094 77.6713 9.15306C75.6235 9.93638 73.868 11.3556 72.6522 13.2107C72.5544 13.3809 72.492 13.5698 72.4687 13.7657C72.4453 13.9615 72.4617 14.1602 72.5167 14.3494C72.5717 14.5385 72.6642 14.7142 72.7884 14.8654C72.9126 15.0166 73.066 15.1401 73.2389 15.2284C73.9237 15.5266 74.6698 15.6485 75.4117 15.5832C78.3231 15.5832 81.2347 15.3393 84.1027 15.0954C86.4093 14.8034 88.7312 14.6553 91.0555 14.6519C90.1899 15.9215 89.6247 17.3788 89.4043 18.9091C89.1007 20.9194 88.9481 22.9504 88.9479 24.9844C88.9479 26.0709 88.9479 27.2017 88.9479 28.2216C87.9485 28.5985 86.9273 28.9977 85.9496 29.4411C84.6605 29.9822 83.4647 30.7308 82.4079 31.6584C81.9109 32.0083 81.4994 32.4703 81.2055 33.0086C80.9116 33.5469 80.7432 34.1471 80.7132 34.7626C80.8653 35.9821 82.1255 36.5586 83.1249 36.8468C84.4852 37.2574 85.8831 37.5249 87.2967 37.645C88.3179 37.7559 89.3173 37.8446 90.3385 37.9111L90.9469 40.1284C91.4942 42.0893 92.1767 44.0084 92.9893 45.8711C93.6621 47.4332 94.7262 48.7868 96.0747 49.7957L96.3788 49.9952C95.6401 50.1948 94.8796 50.3278 94.206 50.4609C92.8155 50.7048 91.4467 50.9708 90.0778 51.3256C87.905 51.8578 85.7323 52.5673 83.5595 53.2324C82.072 53.5797 80.6821 54.2699 79.4965 55.2502C79.2144 55.5046 79.0093 55.8358 78.9054 56.205C78.8015 56.5742 78.803 56.9661 78.9098 57.3344C79.0683 57.6849 79.3003 57.9956 79.5894 58.2447C79.8785 58.4937 80.2176 58.6749 80.5828 58.7756C82.3644 59.3507 84.1991 59.7371 86.0582 59.9286C88.9385 60.3438 91.8408 60.5808 94.7492 60.6381C97.6607 60.6381 100.594 60.6381 103.44 60.6381C106.342 60.6716 109.243 60.5458 112.131 60.2612C113.761 60.143 115.38 59.9059 116.977 59.5517Z" fill="#92DD78"/>
<path d="M162.214 8.2219C169.813 10.1653 177.019 13.4522 183.507 17.9336C184.137 18.377 184.745 18.8426 185.354 19.3083L183.941 21.1708C178.872 27.2623 172.798 32.4025 165.994 36.3591C165.56 36.603 165.103 36.8469 164.669 37.113C162.276 32.7477 160.499 28.0601 159.389 23.1885C158.536 18.1003 158.962 12.8745 160.628 8.00018L160.628 7.84497C161.171 7.97801 161.692 8.08887 162.214 8.2219Z" fill="#282C33"/>
<path d="M138.878 5.22854C145.655 5.27939 152.41 6.02218 159.041 7.44582C157.322 12.483 156.852 17.8763 157.673 23.1441C158.809 28.311 160.668 33.2842 163.191 37.9111C157.165 41.1189 150.84 43.7038 144.31 45.6272C136.225 48.1609 127.888 49.7673 119.454 50.4166C115.509 50.6383 111.556 50.6383 107.612 50.4166C105.984 47.7362 104.685 44.8618 103.745 41.8579C103.461 41.0515 103.25 40.2202 103.114 39.3745C103.045 38.8292 102.944 38.2887 102.81 37.7559C104.309 37.6007 105.787 37.4233 107.286 37.1794C111.045 36.5364 118.15 35.8712 119.041 30.838C119.265 29.1155 118.857 27.3691 117.894 25.936C116.931 24.5028 115.482 23.4845 113.826 23.0776C110.772 22.7625 107.687 23.0179 104.722 23.8315C103.419 24.1197 102.093 24.4523 100.79 24.7627C100.79 23.7428 100.79 22.7006 100.898 21.6585L101.116 17.4235C101.116 16.2706 101.246 15.0954 101.333 13.9424C101.357 13.0828 101.503 12.2313 101.767 11.4147C101.882 11.3323 101.976 11.2227 102.04 11.0953C102.105 10.9678 102.138 10.8264 102.137 10.683C105.919 9.3817 109.771 8.30088 113.674 7.44581C121.967 5.74417 130.422 5.0004 138.878 5.22854Z" fill="#282C33"/>
<path d="M86.3407 13.2107C84.0158 13.4324 81.691 13.6319 79.3661 13.7428C78.1928 13.7428 76.9978 13.8758 75.8027 13.898C75.4768 13.898 75.1727 13.898 74.8685 13.898C74.7456 13.9087 74.622 13.9087 74.4991 13.898L74.7598 13.5211C75.0939 13.1285 75.4733 12.7786 75.8897 12.479C76.6868 11.874 77.5379 11.3469 78.4318 10.9047C82.4415 8.73767 86.6203 6.91327 90.9252 5.45021C95.5484 4.01832 100.269 2.93632 105.048 2.21299C108.655 1.6365 113.739 1.41477 115.586 5.36152C110.64 6.32676 105.767 7.65314 101.007 9.33044C98.0929 10.1048 95.3351 11.3957 92.859 13.1441C90.6895 12.944 88.5058 12.9663 86.3407 13.2107Z" fill="#282C33"/>
<path d="M90.947 23.6541L90.947 21.9024C90.9873 20.1232 91.3405 18.3658 91.9899 16.714C93.4022 13.765 96.7265 12.612 99.5077 11.5921C99.6598 11.5921 99.8119 11.5921 99.9423 11.4369C99.772 12.106 99.6557 12.7883 99.5946 13.4768L99.3773 16.9801L99.16 21.2151C99.16 22.5676 99.1601 23.9201 98.9862 25.2727C97.7043 25.6274 96.4224 25.96 95.1622 26.337C93.9019 26.7139 92.1855 27.2239 90.708 27.7338C90.6454 26.3691 90.7255 25.0015 90.947 23.6541Z" fill="#282C33"/>
<path d="M107.525 35.4499C107.46 35.4392 107.394 35.4392 107.33 35.4499C104.834 35.8742 102.317 36.1555 99.7901 36.2925C97.2697 36.2925 94.7493 36.2925 92.2289 36.2925C92.173 36.3147 92.111 36.3147 92.0551 36.2925L91.903 36.2925L91.7944 36.2925C91.7078 36.2816 91.6202 36.2816 91.5336 36.2925C91.0556 36.2925 90.5993 36.2925 90.143 36.1595C87.8769 36.1885 85.622 35.8287 83.4726 35.0952C83.2554 35.0952 82.7339 34.8291 82.6687 34.5852C82.6035 34.3413 83.2336 33.5874 83.4509 33.3657C84.3052 32.5125 85.3071 31.8284 86.4059 31.348C87.3619 30.9045 88.3613 30.4832 89.3608 30.1063C89.8721 29.8801 90.3943 29.6803 90.9252 29.5076C91.9247 29.175 92.9459 28.8424 93.9454 28.532C96.77 27.6451 99.638 26.8913 102.506 26.1817C105.391 25.357 108.357 24.8589 111.349 24.6962L112.11 24.6962C112.427 24.6623 112.748 24.6623 113.066 24.6962C113.965 24.8072 114.809 25.2026 115.477 25.827L115.738 26.1152C116.353 26.6513 116.818 27.3429 117.088 28.1207C117.357 28.8985 117.422 29.735 117.274 30.5462C117.127 31.3573 116.773 32.1146 116.247 32.7418C115.722 33.3691 115.045 33.8443 114.282 34.1196C112.113 34.9236 109.832 35.3726 107.525 35.4499Z" fill="#282C33"/>
<path d="M96.2051 47.4232C95.2422 46.2105 94.5057 44.8276 94.0323 43.3434C92.8797 41.7684 92.1326 39.9235 91.8595 37.9776C93.6847 37.9776 95.5315 37.9776 97.3349 37.9776C98.5516 37.9776 99.7684 37.9776 100.985 37.8446L101.094 38.1328L101.094 38.6872L101.376 40.084C101.585 41.0729 101.869 42.044 102.224 42.9887C103.063 45.4881 104.117 47.9069 105.374 50.217C105.113 50.217 104.874 50.217 104.635 50.217C101.832 50.084 98.3344 49.8844 96.2051 47.4232Z" fill="#282C33"/>
<path d="M97.7694 59.0418C92.9929 59.0091 88.2265 58.5865 83.516 57.7779C82.7344 57.6627 81.9687 57.4543 81.2347 57.1571C81.0417 57.081 80.8648 56.9681 80.7132 56.8245L80.7132 56.6915C81.1047 56.2552 81.598 55.9272 82.1473 55.738C82.8105 55.4334 83.4928 55.1742 84.1897 54.962C86.3624 54.2525 88.5352 53.5651 90.708 53.033C92.1203 52.7004 93.5108 52.4343 94.9231 52.1904C96.2141 51.9941 97.4813 51.6597 98.7037 51.1926C98.7393 51.202 98.7767 51.202 98.8123 51.1926C100.815 51.8063 102.892 52.1346 104.983 52.1682C106.243 52.1682 107.503 52.1682 108.764 52.3456C113.11 52.5352 117.464 52.4463 121.8 52.0795C122.061 52.0795 122.322 52.0795 122.604 52.0795C121.931 53.4986 121.692 55.3168 120.54 56.5141C119.584 57.2089 118.496 57.6922 117.346 57.9331C116.106 58.3007 114.843 58.5822 113.565 58.7757C108.315 59.2943 103.033 59.3832 97.7694 59.0418Z" fill="#282C33"/>
<path d="M150.568 24.5188C150.243 22.3265 149.29 20.2811 147.829 18.6399C146.368 16.9987 144.465 15.8351 142.357 15.2953C140.25 14.7555 138.033 14.8637 135.986 15.6063C133.939 16.3488 132.152 17.6926 130.852 19.4686C129.551 21.2446 128.794 23.3735 128.676 25.5874C128.558 27.8013 129.084 30.0015 130.188 31.9111C131.292 33.8207 132.925 35.3545 134.881 36.3195C136.837 37.2846 139.029 37.6377 141.181 37.3346C142.622 37.1228 144.009 36.6231 145.261 35.8642C146.512 35.1053 147.605 34.1021 148.477 32.9119C149.349 31.7217 149.982 30.3678 150.341 28.9277C150.7 27.4875 150.777 25.9893 150.568 24.5188Z" fill="#92DD78"/>
<path d="M130.687 27.3125C130.468 25.5033 130.778 23.6685 131.578 22.0387C132.379 20.4089 133.633 19.0568 135.184 18.1524C136.735 17.248 138.513 16.8316 140.295 16.9556C142.078 17.0796 143.784 17.7384 145.2 18.8493C146.617 19.9602 147.68 21.4735 148.256 23.199C148.832 24.9246 148.895 26.7854 148.437 28.5475C147.98 30.3097 147.023 31.8945 145.685 33.1029C144.348 34.3113 142.69 35.0893 140.921 35.339C138.521 35.6538 136.098 34.986 134.18 33.4818C132.262 31.9776 131.006 29.7594 130.687 27.3125Z" fill="#282C33"/>
<path d="M61.5928 59.7512C63.5657 59.0252 65.483 58.1506 67.329 57.1348C69.1324 56.1814 70.9792 55.2723 72.7174 54.208C75.2161 52.656 79.2357 50.0396 80.17 47.0463C81.1043 44.0529 76.6284 44.829 75.2161 44.9842C73.8038 45.1394 72.9347 45.1616 71.8049 45.2281C72.435 44.962 73.0868 44.7181 73.7169 44.4077C75.4528 43.7454 77.0411 42.7352 78.3883 41.4366C78.4685 41.3332 78.5239 41.2121 78.5499 41.0829C78.5758 40.9538 78.5717 40.8202 78.5379 40.693C78.5041 40.5657 78.4415 40.4483 78.3551 40.3503C78.2688 40.2522 78.1611 40.1762 78.0407 40.1284C76.9749 39.776 75.8581 39.611 74.7381 39.6406C73.9125 39.6406 73.0651 39.6406 72.2177 39.6406C71.3703 39.6406 70.7185 39.6406 70.0449 39.6406C69.8928 39.6406 69.7625 39.6406 69.6321 39.6406C72.3915 38.0663 75.4333 37.0242 78.0841 35.206C78.2279 35.0862 78.3292 34.9215 78.3724 34.7372C78.4156 34.553 78.3983 34.3593 78.3232 34.1861C78.0372 33.6976 77.6459 33.282 77.1791 32.9708C76.7123 32.6597 76.1822 32.4611 75.6289 32.3901C74.4339 32.0575 73.2171 31.9245 72.0004 31.6584C70.7836 31.3923 70.0014 31.2814 69.002 31.0819C68.2629 30.964 67.5357 30.7785 66.8292 30.5276C67.4123 30.307 68.0169 30.1509 68.6326 30.0619C69.5235 29.9067 70.436 29.7515 71.3268 29.6185C73.3008 29.5766 75.2426 29.1001 77.0195 28.2216C77.1323 28.128 77.2196 28.0064 77.273 27.8685C77.3264 27.7305 77.3441 27.5808 77.3245 27.4339C77.3049 27.2869 77.2485 27.1475 77.1608 27.0292C77.0732 26.9109 76.9572 26.8176 76.8239 26.7582C74.819 26.0037 72.7546 25.4251 70.6533 25.0287C71.3051 25.0287 71.9787 24.8292 72.6088 24.7405C73.8276 24.7998 75.0207 24.37 75.9331 23.5432C76.0634 23.3601 76.1182 23.1321 76.0857 22.9083C76.0532 22.6844 75.936 22.4825 75.7593 22.3458C71.8701 19.419 66.6771 18.6873 62.0708 17.7117C60.0274 17.2269 57.9496 16.9081 55.8568 16.7583C54.0533 16.5234 52.2212 16.7915 50.5552 17.5343C50.4396 17.5879 50.3373 17.6674 50.2558 17.7668C50.1743 17.8662 50.1157 17.983 50.0844 18.1086C50.0531 18.2342 50.0499 18.3654 50.075 18.4924C50.1001 18.6194 50.1528 18.7391 50.2293 18.8425C50.6193 19.5072 51.1641 20.0632 51.8154 20.4611C48.4535 20.1728 45.0739 20.1728 41.7121 20.4611C38.5536 20.4746 35.432 21.154 32.543 22.4567C32.4244 22.5069 32.3188 22.5846 32.2348 22.6837C32.1507 22.7827 32.0905 22.9005 32.0589 23.0275C32.0272 23.1545 32.025 23.2873 32.0525 23.4153C32.08 23.5433 32.1363 23.663 32.2171 23.7649C32.85 24.5056 33.7201 24.9928 34.6723 25.1396C35.6046 25.3899 36.5573 25.5532 37.5186 25.6274C35.213 25.7233 32.9177 25.9975 30.6527 26.4478C28.2327 26.9734 25.8515 27.6698 23.526 28.532C21.3533 29.3746 19.1805 30.4167 16.8991 31.4145C14.9629 31.9667 13.2311 33.0934 11.9235 34.6517C11.8517 34.7561 11.8035 34.8753 11.7822 35.0009C11.7609 35.1266 11.7671 35.2554 11.8003 35.3783C11.8335 35.5012 11.8929 35.6151 11.9743 35.7118C12.0557 35.8085 12.1571 35.8857 12.2711 35.9377C13.8607 36.5487 15.6137 36.5487 17.2033 35.9377C15.822 36.375 14.4717 36.9084 13.162 37.5342C10.1829 38.8386 7.28093 40.3193 4.47091 41.9687C2.94899 42.8538 1.65935 44.1014 0.711997 45.605C0.636832 45.7172 0.587943 45.8456 0.569106 45.9801C0.550269 46.1147 0.56201 46.2519 0.603385 46.3811C0.593062 46.519 0.615241 46.6574 0.668173 46.7847C0.721099 46.912 0.803198 47.0245 0.907538 47.1128C2.22417 48.2906 3.79514 49.1339 5.49211 49.574C8.62968 50.422 11.8151 51.0736 15.0305 51.5251C16.4674 51.7737 17.9193 51.9218 19.376 51.9686C17.6832 51.832 15.9976 52.3112 14.6177 53.3211C14.5215 53.4044 14.4443 53.508 14.3913 53.6248C14.3383 53.7416 14.3109 53.8687 14.3109 53.9974C14.3109 54.1261 14.3383 54.2532 14.3913 54.37C14.4443 54.4868 14.5215 54.5904 14.6177 54.6737C16.2884 55.8173 18.2551 56.4271 20.2669 56.4253C22.6569 56.7801 25.0035 57.2014 27.4153 57.3787C29.8815 57.5672 32.3582 57.5672 34.8244 57.3787C37.1256 57.2097 39.4081 56.8388 41.6469 56.2701C40.7517 56.6328 39.8807 57.055 39.0396 57.534C38.1679 57.9522 37.4571 58.6542 37.0189 59.5295C36.9716 59.6515 36.9521 59.7828 36.9619 59.9136C36.9716 60.0444 37.0104 60.1712 37.0753 60.2844C37.1402 60.3976 37.2295 60.4943 37.3364 60.5671C37.4433 60.6399 37.5651 60.687 37.6924 60.7047C42.038 61.6137 46.3835 60.2612 50.577 59.2191C52.685 58.7238 54.7546 58.0716 56.7693 57.2679C56.2508 57.8431 55.8714 58.5341 55.6612 59.2856C55.6137 59.4045 55.5934 59.533 55.602 59.6611C55.6105 59.7892 55.6476 59.9137 55.7105 60.025C55.7734 60.1362 55.8604 60.2313 55.9649 60.303C56.0693 60.3747 56.1884 60.4211 56.313 60.4386C58.1016 60.6919 59.9239 60.4547 61.5928 59.7512Z" fill="#92DD78"/>
<path d="M57.6602 58.8865C58.4056 57.9991 59.295 57.2491 60.2893 56.6692C61.7236 55.8207 63.0208 54.7512 64.1351 53.4985C64.5479 52.9442 64.1351 51.9464 63.3529 52.1238C62.2867 52.4256 61.2797 52.9132 60.3762 53.565C59.3663 54.2149 58.3137 54.7927 57.2257 55.2945C55.0589 56.2414 52.8115 56.9836 50.5119 57.5118C46.9205 58.7061 43.1645 59.305 39.3873 59.2856C39.772 59.0459 40.1712 58.8311 40.5823 58.6426C41.5818 58.1548 42.6247 57.7557 43.6676 57.3344C44.7106 56.9131 45.5797 56.514 46.5139 56.0706C47.7116 55.6215 48.7234 54.769 49.382 53.6537C49.7514 52.9442 48.904 52.3234 48.2739 52.5451C45.7741 53.428 43.228 54.1682 40.6475 54.7624C36.0997 55.7388 31.4323 56.0005 26.807 55.5384C24.6343 55.361 22.4615 54.9397 20.1801 54.6293C19.0208 54.5494 17.8753 54.3261 16.7689 53.9641C17.16 53.8533 17.5727 53.8089 17.9421 53.7424C18.9633 53.6094 19.9845 53.5872 21.0057 53.5207C23.5763 53.2238 26.1243 52.7497 28.6321 52.1016C29.5012 51.9243 29.6099 50.483 28.6321 50.4165C25.851 50.1948 23.0916 50.4165 20.3322 50.2391C19.0671 50.1963 17.8052 50.0853 16.5516 49.9065C15.2479 49.9065 13.9442 49.7957 12.6406 49.6626C10.1587 49.4685 7.69996 49.0379 5.2966 48.3766C4.31682 48.1774 3.42134 47.674 2.73276 46.9354C2.48971 46.5518 2.39517 46.0897 2.46746 45.6389C2.53974 45.1881 2.77367 44.7809 3.12384 44.4964C3.68866 43.9486 4.31606 43.4721 4.99245 43.0773C5.92673 42.5008 6.88277 41.9465 7.86051 41.4365C9.83986 40.3767 11.8785 39.4364 13.966 38.6206C18.0452 37.0111 22.2264 35.6851 26.4811 34.6517C27.3502 34.2969 26.8939 32.9887 26.0031 33.0553C23.4188 33.121 20.8417 33.3654 18.2898 33.787C17.2903 33.9865 16.2908 34.2526 15.2913 34.3856C14.8864 34.4195 14.4795 34.4195 14.0746 34.3856C15.0567 33.7492 16.1063 33.2285 17.2034 32.8335C19.2675 31.9244 21.2448 30.9267 23.3523 30.1285C27.6773 28.4125 32.2358 27.3879 36.8669 27.0908C39.5228 26.9356 42.1851 26.9356 44.8409 27.0908C45.4928 27.0908 46.1446 26.3148 45.6014 25.7161C44.6676 24.8256 43.4645 24.286 42.1902 24.1862C41.169 24.0088 40.1478 23.8536 39.1266 23.7427C38.1054 23.6319 36.9538 23.5432 35.824 23.3436C35.377 23.2646 34.9346 23.161 34.4986 23.0332C38.1281 21.9845 41.8973 21.528 45.6666 21.6807C48.0333 21.5769 50.4044 21.6957 52.7498 22.0354C53.9243 22.2249 55.0854 22.4916 56.2262 22.8336C57.2652 23.2129 58.3602 23.4079 59.4637 23.4101C59.6256 23.3831 59.7763 23.3087 59.8976 23.196C60.0189 23.0832 60.1055 22.937 60.1469 22.775C60.1883 22.613 60.1827 22.4422 60.1309 22.2834C60.079 22.1245 59.9831 21.9845 59.8548 21.8802C58.4574 20.9624 56.924 20.2811 55.3137 19.8625C54.203 19.5505 53.1524 19.0481 52.2066 18.3769C53.4271 18.1114 54.681 18.044 55.9221 18.1774C57.8798 18.3668 59.8244 18.6778 61.745 19.1086C63.5919 19.5077 65.4605 19.8181 67.2856 20.3503C68.5644 20.7089 69.8138 21.1686 71.0227 21.725C71.1187 21.8427 71.2476 21.9278 71.3921 21.9689C71.5442 21.9689 71.6963 21.9689 71.8701 22.1241L72.9348 22.6784C72.5219 22.6784 72.0874 22.7893 71.6746 22.8558C70.2508 22.9929 68.8535 23.3364 67.5246 23.8757C67.3765 23.9445 67.251 24.0552 67.163 24.1948C67.0749 24.3344 67.0281 24.4969 67.0281 24.6629C67.0281 24.8289 67.0749 24.9914 67.163 25.1309C67.251 25.2705 67.3765 25.3813 67.5246 25.45C69.5642 26.257 71.6739 26.8658 73.8256 27.2682C73.6013 27.256 73.3764 27.256 73.1521 27.2682C72.2178 27.379 71.3052 27.4899 70.3927 27.6673C68.4265 27.7315 66.5072 28.2955 64.8087 29.3081C64.6658 29.4236 64.5633 29.5831 64.5163 29.7629C64.4693 29.9426 64.4804 30.133 64.5479 30.3058C64.8467 30.7788 65.2421 31.1802 65.7072 31.4825C66.1722 31.7849 66.6959 31.981 67.2421 32.0575C68.4372 32.3901 69.6756 32.5675 70.9141 32.8114C72.1526 33.0553 72.8913 33.1883 73.8908 33.3879C74.6382 33.4863 75.3691 33.6877 76.0636 33.9865C73.239 35.7382 70.0233 36.8025 67.2204 38.6206C67.0999 38.6946 67.0043 38.8042 66.9461 38.9348C66.888 39.0655 66.8699 39.211 66.8945 39.3523C66.8533 39.4779 66.8417 39.6115 66.8605 39.7425C66.8794 39.8735 66.9283 39.9981 67.0032 40.1062C67.254 40.3698 67.5548 40.5785 67.8872 40.7195C68.2197 40.8606 68.5769 40.931 68.9369 40.9266C69.8414 40.9823 70.7484 40.9823 71.6528 40.9266C72.5002 40.9266 72.9131 40.9266 73.8256 40.9266C74.7382 40.9266 75.1076 40.9266 75.7594 40.9266L74.912 41.3922C74.1081 41.8357 73.2824 42.2126 72.4568 42.6117C71.001 43.3434 69.0238 43.5651 67.9592 44.962C67.8761 45.0824 67.8246 45.2225 67.8094 45.3689C67.7942 45.5154 67.816 45.6633 67.8726 45.7988C67.9292 45.9343 68.0187 46.0527 68.1327 46.143C68.2467 46.2332 68.3814 46.2923 68.5241 46.3146C70.2125 46.5252 71.9199 46.5252 73.6083 46.3146C74.7382 46.3146 75.8897 46.1815 77.0196 46.1372C77.4966 46.0929 77.9766 46.0929 78.4536 46.1372L78.4536 46.2702C78.3354 46.4692 78.197 46.655 78.0408 46.8245C75.8596 49.3329 73.2907 51.4601 70.4361 53.1216C69.2854 53.965 68.0187 54.63 66.6772 55.095C64.9429 56.0469 63.1503 56.8838 61.3105 57.6005C60.1721 58.2327 58.9384 58.6673 57.6602 58.8865Z" fill="#282C33"/>
<path d="M60.2892 48.0884C62.2114 47.0645 63.9998 45.7981 65.6125 44.3191C66.3078 43.6761 65.4169 42.5009 64.7216 43.1439C63.257 44.5084 61.629 45.6781 59.8764 46.625C58.6395 47.3782 57.2993 47.9387 55.9002 48.288C56.4054 47.5576 57.0572 46.9454 57.8123 46.492C58.9355 45.8336 59.9419 44.9866 60.7889 43.9865C60.8762 43.8672 60.9268 43.7242 60.9345 43.5756C60.9423 43.427 60.9068 43.2794 60.8324 43.1513C60.7581 43.0233 60.6482 42.9205 60.5167 42.8561C60.3853 42.7917 60.2381 42.7684 60.0936 42.7891C59.3224 42.9349 58.5852 43.2283 57.9209 43.6539C57.2256 44.0308 56.4651 44.3412 55.7481 44.6517C54.2489 45.2503 52.7063 45.7381 51.1854 46.2924C49.0223 47.3166 46.6806 47.8895 44.2977 47.9776C44.4932 47.8224 44.7105 47.6893 44.8626 47.5785C45.4666 47.2036 46.0904 46.8632 46.7311 46.5585C48.4898 45.7795 50.1706 44.8291 51.7502 43.7204C52.4455 43.2104 51.7502 42.1683 51.0115 42.4566C49.0134 43.2533 46.9754 43.9416 44.906 44.5186C43.0895 44.9935 41.2465 45.3564 39.3872 45.6051C37.8228 45.8268 36.2367 46.0485 34.6288 46.1151C33.4924 46.1811 32.3525 46.0916 31.2393 45.849L31.5435 45.7159C32.0867 45.472 32.6734 45.2947 33.2383 45.0951C33.8032 44.8956 34.3247 44.7182 34.8679 44.5186C35.8146 44.2321 36.7373 43.8687 37.6273 43.4322C38.3008 43.0552 38.0836 41.8801 37.2362 42.0131C34.0857 42.5009 30.9352 43.0552 27.763 43.2326C27.5022 43.2326 27.2632 43.2326 27.0025 43.2326C26.6548 43.2326 26.3072 43.2326 25.9595 43.2326C25.1121 43.2326 24.243 43.2326 23.3957 43.2326C22.5483 43.2326 22.092 43.2326 21.4402 43.2326C21.9617 43.0331 22.4831 42.8778 22.9828 42.7226L23.2653 42.7226C24.5472 42.3679 25.8292 42.0796 27.1111 41.7249C27.2222 41.6959 27.3259 41.6429 27.4153 41.5697C30.4789 40.8823 33.6294 40.5497 36.7582 40.1728C36.9483 40.1728 37.1307 40.0957 37.2652 39.9585C37.3996 39.8212 37.4752 39.6351 37.4752 39.4411C37.4752 39.247 37.3996 39.0609 37.2652 38.9237C37.1307 38.7865 36.9483 38.7094 36.7582 38.7094C35.7841 38.5173 34.7953 38.4134 33.8032 38.399C33.2383 38.399 32.6734 38.399 32.0867 38.399C31.4837 38.3877 30.8816 38.3433 30.2833 38.2659C30.1749 38.2767 30.0658 38.2767 29.9574 38.2659C30.975 37.7341 32.056 37.3391 33.1731 37.0908C34.7158 36.7138 36.3019 36.4921 37.888 36.2704C39.7469 36.0079 41.6181 35.8451 43.4937 35.7826C45.6344 35.7828 47.7738 35.8938 49.9034 36.1152C50.6856 36.1152 51.0767 35.0065 50.2728 34.6961C48.462 34.0715 46.6007 33.6115 44.7105 33.3214C44.0116 33.2216 43.3214 33.0659 42.6463 32.8558C42.4239 32.7986 42.2061 32.7245 41.9945 32.634C44.3167 32.08 46.722 31.9897 49.0778 32.368C50.6856 32.4788 52.2935 32.5454 53.9013 32.7006C54.6964 32.7753 55.487 32.8937 56.2696 33.0553C57.0238 33.2789 57.8115 33.3615 58.5945 33.2992C58.7354 33.2761 58.8667 33.2119 58.9726 33.1143C59.0785 33.0167 59.1544 32.8898 59.1912 32.7491C59.228 32.6084 59.224 32.4598 59.1798 32.3214C59.1356 32.1829 59.053 32.0605 58.9421 31.9689C57.8592 31.2299 56.6619 30.6827 55.4005 30.3502C54.5585 30.1106 53.7742 29.6954 53.0973 29.1308C54.5638 29.0853 56.0286 29.2647 57.4429 29.6629C59.3786 30.0981 61.2541 30.7758 63.0269 31.6806C63.8743 32.1019 64.4175 30.7272 63.5918 30.3059C61.6459 29.3141 59.5881 28.5695 57.4646 28.0886C55.5953 27.558 53.629 27.4896 51.7285 27.8891C51.5589 27.9754 51.4269 28.1234 51.3586 28.3038C51.2903 28.4843 51.2905 28.6843 51.3591 28.8647C51.5403 29.374 51.8287 29.8365 52.2042 30.2196C52.5796 30.6027 53.0328 30.8971 53.5319 31.0819C51.9675 30.9267 50.4031 30.8824 48.8605 30.7715C46.0479 30.2519 43.1487 30.5516 40.4953 31.6363C40.3257 31.7226 40.1937 31.8706 40.1254 32.051C40.0571 32.2315 40.0573 32.4315 40.126 32.6119C40.4084 33.5431 41.4296 33.9866 42.4508 34.2748C40.843 34.2748 39.2351 34.5187 37.649 34.7404C34.3098 34.8433 31.0566 35.8454 28.2192 37.6451C28.089 37.7453 27.995 37.8866 27.9518 38.047C27.9086 38.2074 27.9185 38.378 27.9802 38.532C28.1767 38.8643 28.4496 39.1429 28.7751 39.3438C29.1006 39.5446 29.4691 39.6617 29.8488 39.685C28.8059 39.8624 27.7846 40.0619 26.7634 40.3058C25.7422 40.5497 24.1996 40.9932 22.9394 41.3701C22.6352 41.3701 22.331 41.5253 22.0268 41.614C21.1577 41.8579 19.854 42.0574 19.2891 42.8778L18.9632 43.1217C18.8233 43.2565 18.7354 43.438 18.7155 43.6333C18.6956 43.8286 18.7449 44.0247 18.8546 44.186C19.4847 45.2725 21.0273 45.0286 22.1572 45.0286C23.287 45.0286 24.6776 45.0286 25.9161 45.0286C26.5245 45.0286 27.1111 45.0286 27.7195 45.0286C28.7624 45.0286 29.8922 44.8956 30.8482 44.7847C30.4876 44.9087 30.1624 45.1211 29.901 45.4033C29.6396 45.6855 29.45 46.0289 29.349 46.4033C29.3288 46.5661 29.3627 46.7312 29.4455 46.8719C29.5283 47.0127 29.655 47.121 29.8054 47.1794C33.0093 48.1402 36.4056 48.2167 39.648 47.4011C41.2558 47.1793 42.8419 46.9133 44.4063 46.5363C43.4937 47.0907 42.6246 47.8002 42.6029 48.7536C42.5842 48.9469 42.6392 49.14 42.7566 49.2928C42.874 49.4457 43.0447 49.5464 43.233 49.574C46.0631 49.8917 48.9238 49.3924 51.4895 48.1328C52.967 47.6006 54.4662 47.1128 55.835 46.5363C55.3999 46.8565 55.0398 47.2711 54.7805 47.7504C54.5213 48.2296 54.3694 48.7616 54.3358 49.3079C54.3358 49.6627 54.5531 50.1283 54.9659 50.1505C56.8764 49.9075 58.7019 49.2003 60.2892 48.0884Z" fill="#92DD78"/>
</g>
<defs>
<clipPath id="clip0_848_2612">
<rect width="60.9528" height="186.749" fill="white" transform="translate(187.287 0.0844727) rotate(90)"/>
</clipPath>
</defs>
</svg>
