<svg width="115" height="118" viewBox="0 0 115 118" fill="none" xmlns="http://www.w3.org/2000/svg">
<g clip-path="url(#clip0_864_1462)">
<path d="M7.61007 74.43C7.27099 74.415 6.93508 74.3579 6.61007 74.26C5.89743 73.9748 5.32123 73.4272 5.00007 72.73C4.56943 71.8587 4.23416 70.9434 4.00007 70C3.65007 68.85 3.33007 67.69 3.06007 66.52C2.50007 64.36 1.93007 62 2.54007 59.84C2.76041 59.0369 3.18803 58.3058 3.78007 57.72C4.01706 57.4959 4.28271 57.3043 4.57007 57.15C4.60483 63.04 5.63258 68.8819 7.61007 74.43Z" fill="#282C33"/>
<path d="M112.25 49.1301C112.22 49.5658 112.068 49.9844 111.812 50.338C111.555 50.6917 111.205 50.9661 110.8 51.1301C110.407 51.3464 109.995 51.5271 109.57 51.6701L109.25 51.7401C108.618 45.2738 106.783 38.9825 103.84 33.1901H104.2C105.013 33.2197 105.819 33.3507 106.6 33.5801C108.33 34.1201 109.05 35.5801 109.66 37.1701C110.407 39.1222 111.005 41.1279 111.45 43.1701C111.69 44.1701 111.88 45.2801 112.03 46.3501C112.207 47.2656 112.281 48.1981 112.25 49.1301Z" fill="#282C33"/>
<path d="M100.52 84.51C100.847 85.0744 101.013 85.7178 101 86.37C100.801 88.1078 100.071 89.7419 98.91 91.05C98.06 92.16 96.83 93.43 95.35 93.51C94.7705 93.5511 94.1929 93.4076 93.7 93.1C93.17 92.76 92.83 92.2 92.28 91.89C92.1385 91.812 91.9724 91.7913 91.816 91.8322C91.6597 91.8732 91.5251 91.9726 91.44 92.11C91.3076 92.3414 91.2379 92.6034 91.2379 92.87C91.2379 93.1367 91.3076 93.3986 91.44 93.63C85.1503 99.5154 77.46 103.694 69.1 105.77C69.0388 105.686 68.972 105.605 68.9 105.53C68.7771 105.425 68.6305 105.351 68.4729 105.315C68.3153 105.279 68.1513 105.282 67.9949 105.323C67.8386 105.365 67.6946 105.443 67.5753 105.552C67.456 105.662 67.365 105.798 67.31 105.95C67.13 106.95 67.49 108.02 67.24 109.09C66.9908 110.135 66.4896 111.103 65.78 111.91C64.1051 113.595 61.9023 114.654 59.54 114.91C56.8838 115.32 54.1764 115.262 51.54 114.74C49.2053 114.375 46.9987 113.433 45.12 112C44.1405 111.18 43.3521 110.156 42.81 109C42.387 107.793 42.0528 106.556 41.81 105.3C41.7736 105.18 41.7043 105.073 41.61 104.99C41.6054 104.903 41.6054 104.817 41.61 104.73C31.4532 101.453 22.5954 95.0428 16.3075 86.4194C10.0196 77.796 6.62472 67.4025 6.60999 56.73C6.60995 49.1037 8.35444 41.5785 11.71 34.73H11.81C11.9809 34.6791 12.1312 34.5751 12.2391 34.4331C12.3469 34.291 12.4068 34.1184 12.41 33.94C12.41 33.29 11.93 32.94 11.58 32.43C11.2732 31.9669 11.0749 31.4405 11 30.89C10.8795 29.8037 11.1184 28.7078 11.68 27.77C12.3258 26.6447 13.1498 25.6316 14.12 24.77C14.5075 24.3604 14.9969 24.0612 15.5381 23.9031C16.0794 23.7449 16.6529 23.7335 17.2 23.87C17.85 24.05 18.48 24.59 19.2 24.2C19.4033 24.1021 19.5635 23.9329 19.6501 23.7245C19.7368 23.5162 19.7439 23.2833 19.67 23.07C24.9487 17.2112 31.5235 12.6671 38.87 9.80005C38.9965 9.79022 39.1177 9.74519 39.22 9.67005C40 9.09005 40.02 8.08005 40.38 7.24005C40.7238 6.44932 41.2083 5.7276 41.81 5.11005C43.2515 3.80305 45.0667 2.98114 47 2.76005C50.2 2.17005 55.58 1.86005 56.49 6.03005C56.5428 6.24398 56.6555 6.43844 56.8148 6.59066C56.9742 6.74288 57.1736 6.84657 57.3897 6.88959C57.6058 6.9326 57.8297 6.91317 58.0352 6.83355C58.2407 6.75394 58.4193 6.61745 58.55 6.44005C67.2499 6.68874 75.7368 9.18789 83.1831 13.6938C90.6293 18.1997 96.7807 24.5585 101.037 32.15C105.294 39.7415 107.51 48.3066 107.47 57.01C107.431 65.7133 105.136 74.2578 100.81 81.81C100.614 81.7091 100.396 81.6565 100.175 81.6565C99.9541 81.6565 99.7364 81.7091 99.54 81.81C99.3849 81.9034 99.2641 82.0444 99.1956 82.212C99.1272 82.3796 99.1147 82.5648 99.16 82.74C99.28 83.51 100.15 83.87 100.52 84.51Z" fill="#282C33"/>
<path d="M114.36 48.16C114.263 46.9017 114.096 45.6498 113.86 44.41C113.419 41.8943 112.75 39.4241 111.86 37.03C111.07 34.9 110.16 32.81 107.95 31.85C106.859 31.4 105.69 31.169 104.51 31.17C103.958 31.1185 103.402 31.1522 102.86 31.27C98.4212 23.3248 91.9943 16.6691 84.2092 11.9552C76.424 7.24136 67.5476 4.63102 58.45 4.38004C57.17 1.27004 53.51 -0.0699626 50.29 3.74259e-05C48.283 0.0418152 46.2912 0.358083 44.37 0.940037C42.6125 1.44177 41.0342 2.43382 39.82 3.80004C39.1873 4.52966 38.6712 5.35272 38.29 6.24004C38.011 6.81684 37.8125 7.42923 37.7 8.06004C30.1639 11.0591 23.4221 15.7578 18 21.79C17.0257 21.4876 15.9857 21.4668 15 21.73C13.6826 22.1995 12.52 23.023 11.64 24.11C10.6224 25.1501 9.80236 26.3665 9.22002 27.7C8.66796 29.0166 8.56258 30.4779 8.92002 31.86C9.11432 32.5782 9.4361 33.2557 9.87002 33.86C6.67835 40.3836 4.88664 47.5028 4.61002 54.76C3.20478 55.1356 1.99586 56.0334 1.23002 57.27C0.17343 59.0253 -0.236867 61.0944 0.0700199 63.12C0.344001 65.3681 0.819242 67.587 1.49002 69.75C1.88713 71.6432 2.67754 73.4318 3.81002 75C4.48351 75.7876 5.39697 76.3321 6.41002 76.55C7.01496 76.7064 7.64751 76.7235 8.26002 76.6L8.43002 76.55C11.2758 83.5188 15.5808 89.7973 21.0556 94.9634C26.5304 100.129 33.048 104.063 40.17 106.5C39.81 108.69 41.31 111.25 42.69 112.74C44.6729 114.722 47.1937 116.078 49.94 116.64C53.0362 117.383 56.2419 117.556 59.4 117.15C62.2273 116.904 64.8982 115.746 67.01 113.85C68.0744 112.795 68.8612 111.493 69.3 110.06C69.5267 109.308 69.6413 108.526 69.64 107.74C78.3521 105.572 86.3613 101.202 92.9 95.05C93.1545 95.1982 93.4224 95.322 93.7 95.42C94.4743 95.6548 95.2923 95.7075 96.0902 95.5739C96.8882 95.4403 97.6445 95.1241 98.3 94.65C99.7293 93.58 100.913 92.2161 101.77 90.65C102.826 89.078 103.29 87.1822 103.08 85.3C102.954 84.5887 102.689 83.9091 102.3 83.3C107.026 75.2802 109.513 66.1388 109.5 56.83C109.5 55.83 109.5 54.83 109.41 53.83C109.957 53.7172 110.49 53.5462 111 53.32C112.018 52.9494 112.916 52.3101 113.6 51.47C114.224 50.4859 114.492 49.3178 114.36 48.16ZM6.61002 74.26C5.89738 73.9748 5.32118 73.4272 5.00002 72.73C4.56938 71.8587 4.23411 70.9434 4.00002 70C3.65002 68.85 3.33002 67.69 3.06002 66.52C2.50002 64.36 1.93002 62 2.54002 59.84C2.76035 59.0369 3.18798 58.3058 3.78002 57.72C4.01701 57.496 4.28265 57.3043 4.57002 57.15C4.59194 63.0377 5.60614 68.8795 7.57002 74.43C7.2444 74.4118 6.92212 74.3547 6.61002 74.26ZM100.78 81.81C100.584 81.7091 100.366 81.6565 100.145 81.6565C99.9242 81.6565 99.7065 81.7091 99.51 81.81C99.3549 81.9034 99.2341 82.0444 99.1657 82.212C99.0972 82.3796 99.0847 82.5648 99.13 82.74C99.28 83.49 100.13 83.85 100.52 84.49C100.847 85.0543 101.013 85.6978 101 86.35C100.801 88.0877 100.071 89.7219 98.91 91.03C98.06 92.14 96.83 93.41 95.35 93.49C94.7705 93.5311 94.1929 93.3876 93.7 93.08C93.17 92.74 92.83 92.18 92.28 91.87C92.1385 91.792 91.9724 91.7713 91.8161 91.8122C91.6597 91.8532 91.5251 91.9526 91.44 92.09C91.3076 92.3214 91.2379 92.5834 91.2379 92.85C91.2379 93.1167 91.3076 93.3786 91.44 93.61C85.1503 99.4954 77.46 103.674 69.1 105.75C69.0388 105.666 68.972 105.585 68.9 105.51C68.7771 105.405 68.6306 105.331 68.4729 105.295C68.3153 105.259 68.1513 105.262 67.995 105.303C67.8387 105.345 67.6947 105.423 67.5754 105.532C67.4561 105.642 67.365 105.778 67.31 105.93C67.13 106.93 67.49 108 67.24 109.07C66.9909 110.115 66.4896 111.083 65.78 111.89C64.1051 113.575 61.9023 114.634 59.54 114.89C56.8838 115.3 54.1764 115.242 51.54 114.72C49.2072 114.361 47.0007 113.426 45.12 112C44.1405 111.18 43.3521 110.156 42.81 109C42.3871 107.793 42.0529 106.556 41.81 105.3C41.7737 105.18 41.7044 105.073 41.61 104.99C41.6054 104.903 41.6054 104.817 41.61 104.73C31.4532 101.453 22.5954 95.0428 16.3075 86.4194C10.0196 77.796 6.62476 67.4025 6.61002 56.73C6.60999 49.1037 8.35448 41.5785 11.71 34.73H11.81C11.9809 34.6791 12.1312 34.5751 12.2391 34.4331C12.347 34.291 12.4068 34.1184 12.41 33.94C12.41 33.29 11.93 32.94 11.58 32.43C11.2732 31.9669 11.075 31.4405 11 30.89C10.8796 29.8037 11.1184 28.7078 11.68 27.77C12.3258 26.6447 13.1499 25.6316 14.12 24.77C14.5075 24.3604 14.997 24.0612 15.5382 23.9031C16.0794 23.7449 16.6529 23.7335 17.2 23.87C17.85 24.05 18.48 24.59 19.2 24.2C19.4033 24.1021 19.5635 23.9329 19.6502 23.7245C19.7368 23.5162 19.7439 23.2833 19.67 23.07C24.9487 17.2112 31.5236 12.6671 38.87 9.80004C38.9965 9.79021 39.1178 9.74518 39.22 9.67004C40 9.09004 40.02 8.08004 40.38 7.24004C40.7238 6.44931 41.2083 5.7276 41.81 5.11004C43.2516 3.80304 45.0668 2.98113 47 2.76004C50.2 2.17004 55.58 1.86004 56.49 6.03004C56.5429 6.24397 56.6555 6.43843 56.8149 6.59065C56.9742 6.74288 57.1736 6.84656 57.3897 6.88958C57.6059 6.93259 57.8298 6.91316 58.0353 6.83355C58.2407 6.75393 58.4193 6.61744 58.55 6.44004C67.2499 6.68873 75.7368 9.18789 83.1831 13.6938C90.6294 18.1997 96.7807 24.5585 101.037 32.15C105.294 39.7415 107.51 48.3066 107.471 57.01C107.431 65.7133 105.136 74.2578 100.81 81.81H100.78ZM112.25 49.13C112.22 49.5658 112.068 49.9844 111.812 50.338C111.556 50.6916 111.205 50.9661 110.8 51.13C110.407 51.3464 109.995 51.5271 109.57 51.67L109.25 51.74C108.618 45.2737 106.783 38.9825 103.84 33.19H104.2C105.013 33.2197 105.819 33.3507 106.6 33.58C108.33 34.12 109.05 35.58 109.66 37.17C110.407 39.1221 111.005 41.1278 111.45 43.17C111.69 44.17 111.88 45.28 112.03 46.35C112.207 47.2656 112.281 48.1981 112.25 49.13Z" fill="#92DD78"/>
<path d="M96.6601 90.53C96.5107 90.4656 96.3521 90.4251 96.1901 90.41C96.0868 90.3556 95.9753 90.3185 95.8601 90.3L95.5201 90.21L95.1901 90.1L95.0001 90L94.8501 89.91C94.7701 89.83 94.6701 89.76 94.5901 89.67L94.5001 89.57C94.5001 89.49 94.4101 89.36 94.3501 89.28C94.3501 89.22 94.3501 89.16 94.3501 89.1V88.93C94.3501 88.81 94.3501 88.69 94.3501 88.58C94.325 88.4614 94.325 88.3387 94.3501 88.22V88.31C94.3548 88.2735 94.3548 88.2366 94.3501 88.2C94.3547 88.1401 94.3547 88.08 94.3501 88.02C94.3501 87.92 94.4201 87.82 94.4501 87.71C94.4543 87.6568 94.4543 87.6033 94.4501 87.55C94.4652 87.4809 94.4652 87.4092 94.4501 87.34V87.27C94.4648 87.184 94.4648 87.0961 94.4501 87.01C94.4501 86.888 94.4016 86.771 94.3153 86.6848C94.2291 86.5985 94.1121 86.55 93.9901 86.55C93.2201 86.62 92.7801 87.38 92.5601 88.05C92.3511 88.7054 92.3794 89.4134 92.6401 90.05C92.9302 90.6691 93.4054 91.1827 94.0001 91.52C94.2814 91.6963 94.5884 91.8279 94.9101 91.91C95.1002 91.9563 95.2945 91.9831 95.4901 91.99H95.7201C95.8686 91.9821 96.013 91.9374 96.1401 91.86C96.3745 91.8255 96.5918 91.7169 96.7601 91.55C96.8317 91.482 96.8868 91.3984 96.9213 91.3058C96.9557 91.2132 96.9686 91.114 96.959 91.0156C96.9493 90.9173 96.9174 90.8225 96.8656 90.7383C96.8138 90.6542 96.7435 90.5829 96.6601 90.53Z" fill="#92DD78"/>
<path d="M98.6301 84.77L98.5301 84.65C98.3737 84.4995 98.1807 84.3926 97.9701 84.34C97.6072 84.2121 97.2159 84.1879 96.8401 84.27C96.7039 84.3042 96.5703 84.3477 96.4401 84.4C96.2114 84.4693 96.0047 84.5968 95.8401 84.77C95.7801 84.85 95.7801 84.85 95.8401 84.77L95.7601 84.84C95.7232 84.8924 95.6831 84.9425 95.6401 84.99C95.5162 85.1279 95.4331 85.2976 95.4001 85.48V85.56C95.3815 85.6231 95.3821 85.6904 95.402 85.7531C95.422 85.8159 95.4602 85.8712 95.5118 85.9121C95.5634 85.9529 95.626 85.9774 95.6916 85.9824C95.7573 85.9874 95.8229 85.9726 95.8801 85.94H95.9501C96.0459 85.9061 96.1394 85.866 96.2301 85.82C96.2301 85.82 96.2301 85.82 96.2901 85.82H96.3901H96.5301H96.6201H96.7901H96.8801H97.6401C97.6966 85.8248 97.7535 85.8248 97.8101 85.82C97.9165 85.8289 98.0236 85.8289 98.1301 85.82C98.1565 85.8249 98.1836 85.8249 98.2101 85.82C98.2964 85.8303 98.3837 85.8303 98.4701 85.82C98.5348 85.8173 98.5981 85.8003 98.6555 85.7703C98.7129 85.7403 98.7629 85.698 98.8021 85.6465C98.8413 85.5949 98.8686 85.5353 98.882 85.4719C98.8955 85.4086 98.8948 85.3431 98.8801 85.28C98.8526 85.0879 98.7651 84.9094 98.6301 84.77Z" fill="#92DD78"/>
<path d="M96.8101 85.53C96.9401 85.54 96.8701 85.52 96.8101 85.53Z" fill="#92DD78"/>
<path d="M13.7701 32.6301C14.3992 32.8976 15.0933 32.9739 15.7655 32.8494C16.4378 32.7249 17.0584 32.4051 17.5501 31.9301C18.0446 31.5669 18.4595 31.1062 18.7691 30.5765C19.0787 30.0468 19.2764 29.4592 19.3501 28.8501C19.4135 28.1715 19.2209 27.4938 18.8101 26.9501C18.4079 26.4897 17.8477 26.1971 17.2401 26.1301C16.8001 26.0701 16.7201 26.7101 17.0301 26.9101C17.1581 26.9929 17.2672 27.102 17.3501 27.2301C17.3501 27.2901 17.4301 27.3701 17.4701 27.4401C17.5101 27.5101 17.5201 27.5201 17.5401 27.5701C17.5401 27.5701 17.5401 27.5701 17.5401 27.6201C17.5357 27.6666 17.5357 27.7135 17.5401 27.7601C17.5401 27.7601 17.5401 27.9001 17.6101 27.9301L17.6801 28.1401V28.2901C17.6869 28.3197 17.6869 28.3504 17.6801 28.3801C17.6801 28.4501 17.6801 28.5201 17.6801 28.6001C17.6801 28.6801 17.6801 28.7001 17.6801 28.7501C17.6772 28.7833 17.6772 28.8168 17.6801 28.8501V29.0101C17.633 29.2044 17.5554 29.39 17.4501 29.5601C17.2421 29.9044 16.9786 30.2119 16.6701 30.4701C16.3696 30.7335 16.0328 30.9524 15.6701 31.1201C15.3323 31.2809 14.9458 31.3059 14.5901 31.1901L14.4201 31.0901L14.3301 31.0001L14.1501 30.8101C14.1501 30.7501 14.0801 30.7001 14.0501 30.6501C14.0345 30.6323 14.0178 30.6156 14.0001 30.6001C14.0025 30.5835 14.0025 30.5666 14.0001 30.5501C13.9688 30.4615 13.9421 30.3714 13.9201 30.2801V30.1701V30.0901C13.9201 30.0901 13.9201 30.0101 13.9201 30.0001V29.8101C13.9421 29.3602 14.0508 28.9188 14.2401 28.5101L14.5801 27.8201C14.6495 27.6856 14.7064 27.545 14.7501 27.4001C14.7674 27.2847 14.7942 27.171 14.8301 27.0601C14.8844 27.0044 14.9145 26.9293 14.9135 26.8515C14.9126 26.7737 14.8808 26.6994 14.8251 26.6451C14.7694 26.5907 14.6944 26.5607 14.6165 26.5616C14.5387 26.5625 14.4644 26.5944 14.4101 26.6501C14.3201 26.7301 14.1201 26.7501 14.0001 26.8201C13.8525 26.8995 13.7177 27.0007 13.6001 27.1201C13.3589 27.3394 13.1502 27.5919 12.9801 27.8701C12.6287 28.4196 12.4223 29.0492 12.3801 29.7001C12.3265 30.2683 12.4274 30.8405 12.672 31.3563C12.9167 31.872 13.2961 32.3121 13.7701 32.6301Z" fill="#92DD78"/>
<path d="M46.59 12.68C48.6119 12.7724 50.6059 12.1805 52.25 11C53.85 9.83003 55.25 7.69003 54.07 5.72003C53.7701 5.26771 53.3692 4.89131 52.8989 4.62057C52.4285 4.34983 51.9017 4.19216 51.36 4.16003C50.1168 4.08714 48.8859 4.43984 47.87 5.16003C47.7768 5.22582 47.7089 5.32148 47.6776 5.43115C47.6462 5.54082 47.6533 5.65791 47.6977 5.76299C47.7421 5.86807 47.821 5.95482 47.9215 6.00885C48.0219 6.06288 48.1378 6.08094 48.25 6.06003C49.0626 5.89205 49.8838 5.76853 50.71 5.69003C51.0285 5.65433 51.351 5.68475 51.6573 5.77939C51.9636 5.87402 52.2471 6.03084 52.49 6.24003C53.58 7.33003 52.36 8.89003 51.43 9.57003C50.2686 10.4474 48.8809 10.9747 47.43 11.09C46.23 11.17 44.43 10.98 43.65 9.94003C43.4481 9.63111 43.3357 9.27237 43.3251 8.9035C43.3145 8.53463 43.4062 8.17003 43.59 7.85003C43.7775 7.51513 43.9987 7.20018 44.25 6.91003L44.7 6.42003C44.87 6.24003 44.92 6.04003 45.07 5.86003C45.1205 5.80842 45.1528 5.74164 45.1617 5.66994C45.1706 5.59824 45.1558 5.52559 45.1195 5.46314C45.0831 5.40068 45.0273 5.35188 44.9606 5.32422C44.8938 5.29657 44.8198 5.29158 44.75 5.31003C44.5138 5.3253 44.2812 5.37586 44.06 5.46003C43.3703 5.80717 42.7917 6.34069 42.39 7.00003C41.8746 7.83261 41.6958 8.83029 41.89 9.79003C42.33 11.8 44.73 12.58 46.59 12.68Z" fill="#92DD78"/>
<path d="M56.2 101.07C55.65 101.25 55.71 102.2 56.34 102.14C58.18 101.95 60.51 102.41 61.53 104.14C61.7615 104.501 61.9158 104.906 61.9829 105.329C62.05 105.753 62.0286 106.185 61.92 106.6C61.5252 107.554 60.8206 108.346 59.92 108.85C56.72 110.99 51.29 111.45 48.31 108.66C47.5728 107.932 47.049 107.016 46.7951 106.011C46.5413 105.006 46.5672 103.951 46.87 102.96C46.8847 102.899 46.8794 102.836 46.8549 102.778C46.8305 102.721 46.7881 102.673 46.7342 102.641C46.6803 102.61 46.6177 102.597 46.5557 102.604C46.4937 102.611 46.4355 102.637 46.39 102.68C44.74 104.42 45.16 107.1 46.47 108.9C47.2862 109.893 48.3056 110.699 49.4596 111.265C50.6136 111.831 51.8753 112.143 53.16 112.18C55.836 112.423 58.517 111.769 60.78 110.32C61.9397 109.634 62.8638 108.613 63.43 107.39C63.8428 106.28 63.807 105.054 63.33 103.97C62.16 101.1 59 100.18 56.2 101.07Z" fill="#92DD78"/>
<path d="M49.18 102.3C49.18 102.3 49.1 102.3 49.08 102.37C48.885 102.467 48.727 102.625 48.63 102.82C48.5886 102.868 48.5633 102.927 48.5576 102.99C48.5519 103.053 48.5661 103.115 48.5982 103.17C48.6303 103.224 48.6787 103.267 48.7364 103.292C48.7942 103.317 48.8584 103.323 48.92 103.31C49.0048 103.335 49.0951 103.335 49.18 103.31H49.42H49.51H49.68H49.93L50.18 103.25H50.31C50.4991 103.245 50.6869 103.218 50.87 103.17H51.06C51.2197 103.181 51.3793 103.147 51.52 103.07C51.5767 103.034 51.6248 102.986 51.6608 102.929C51.6968 102.872 51.72 102.808 51.7286 102.741C51.7371 102.674 51.731 102.607 51.7105 102.542C51.69 102.478 51.6557 102.42 51.61 102.37C51.4898 102.258 51.3342 102.191 51.17 102.18L51 102H50.86C50.7549 101.974 50.6451 101.974 50.54 102C50.4102 101.99 50.2798 101.99 50.15 102C49.9731 102.017 49.7987 102.054 49.63 102.11L49.28 102.25C49.13 102.34 49.11 102.36 49.18 102.3Z" fill="#92DD78"/>
<path d="M87.48 66.22C85.6133 65.0409 83.465 64.3829 81.2582 64.3143C79.0513 64.2457 76.8663 64.7691 74.93 65.83C70.49 68.19 68.07 73.11 68.05 78.06C67.963 80.8156 68.9696 83.4938 70.85 85.51C71.7091 86.4679 72.8281 87.1556 74.0709 87.4894C75.3136 87.8231 76.6265 87.7886 77.85 87.39C77.976 87.3547 78.085 87.2749 78.1565 87.1653C78.2281 87.0558 78.2575 86.9239 78.2391 86.7943C78.2208 86.6647 78.156 86.5462 78.0569 86.4608C77.9577 86.3754 77.8309 86.3289 77.7 86.33C75.8185 86.3099 74.0102 85.598 72.62 84.33C72.2128 83.9566 71.8504 83.5371 71.54 83.08C71.6101 81.3825 71.9026 79.7015 72.41 78.08C73.1059 76.2039 74.253 74.5279 75.75 73.2C77.0877 71.9618 78.6816 71.0332 80.4184 70.4802C82.1553 69.9272 83.9926 69.7632 85.8 70C87.1742 70.2534 88.4917 70.7513 89.69 71.47C90.5824 72.8706 91.1085 74.473 91.22 76.13C91.47 80.58 89 84.23 85.55 86.78C85.17 87.06 85.37 87.78 85.89 87.59C90.13 86.38 92.95 81.74 93.28 77.52C93.4016 75.2914 92.9286 73.0706 91.9094 71.085C90.8903 69.0994 89.3616 67.4204 87.48 66.22ZM80.86 68.5C78.6902 69.0251 76.6712 70.0448 74.9608 71.4795C73.2503 72.9141 71.8948 74.7247 71 76.77C70.6121 77.6936 70.3368 78.6606 70.18 79.65C70.18 79.44 70.12 79.23 70.11 79.02C69.81 74.93 71.5 70.49 75 68.2C76.5065 67.175 78.2569 66.5659 80.0742 66.4342C81.8916 66.3025 83.7115 66.6529 85.35 67.45C85.9002 67.7392 86.4253 68.0737 86.92 68.45C84.9219 68.0114 82.8506 68.0285 80.86 68.5Z" fill="#92DD78"/>
<path d="M83.09 86.14C82.9616 86.1527 82.8345 86.1762 82.71 86.21L82.55 86.26H82.45C82.3803 86.2503 82.3096 86.2503 82.24 86.26H82.11H81.96C81.83 86.26 81.68 86.26 81.55 86.31C81.4904 86.3199 81.4296 86.3199 81.37 86.31C81.1621 86.3034 80.9549 86.3374 80.76 86.41C80.7104 86.4192 80.6596 86.4192 80.61 86.41C80.5291 86.3909 80.444 86.4003 80.3693 86.4368C80.2945 86.4732 80.2347 86.5345 80.2 86.61C80.1659 86.6879 80.1614 86.7754 80.1871 86.8564C80.2129 86.9373 80.2672 87.0062 80.34 87.05L80.62 87.19C80.8014 87.3422 81.0244 87.4363 81.26 87.46H81.72C81.8696 87.4747 82.0203 87.4747 82.17 87.46L82.49 87.39L82.66 87.34L82.84 87.26L82.93 87.19H83L83.15 87.1C83.2885 87.008 83.4102 86.893 83.51 86.76C83.5355 86.6913 83.5442 86.6176 83.5355 86.5448C83.5267 86.4721 83.5007 86.4025 83.4596 86.3419C83.4185 86.2812 83.3635 86.2313 83.2993 86.1962C83.235 86.1611 83.1632 86.1418 83.09 86.14Z" fill="#92DD78"/>
<path d="M16.08 62.72C18.6024 64.745 21.6395 66.0263 24.85 66.42C31.59 67.3 38 64 42.07 58.72C44.2229 55.9535 45.6958 52.72 46.37 49.28C47.1595 45.6272 46.4844 41.8105 44.49 38.65C42.6652 35.7447 39.8062 33.6397 36.49 32.76C34.7978 32.2905 33.0262 32.1797 31.2887 32.4345C29.5512 32.6894 27.8861 33.3044 26.4 34.24C25.7158 34.7254 25.0736 35.2673 24.48 35.86C24.01 36.33 24.63 37.21 25.22 36.86C26.5435 36.0231 27.9867 35.3926 29.5 34.99C30.9519 34.5234 32.4777 34.3301 34 34.42C36.8717 34.6523 39.5451 35.9765 41.47 38.12C40.8634 38.04 40.2534 37.98 39.64 37.94C38.2462 37.8631 36.8485 37.8966 35.46 38.04C32.6301 38.3368 29.8637 39.0723 27.26 40.22C22.3996 42.3996 18.3259 46.0195 15.59 50.59C14.8427 51.8413 14.2005 53.1525 13.67 54.51C13.54 54.83 13.42 55.15 13.31 55.51C12.0745 52.0069 12.1958 48.1681 13.65 44.75C14.3501 43.0898 15.2828 41.5376 16.42 40.14C17.549 38.7045 18.7968 37.3665 20.15 36.14C20.48 35.84 20.05 35.34 19.68 35.54C18.0966 36.3429 16.6652 37.4156 15.45 38.71C14.2424 40.0238 13.2319 41.5059 12.45 43.11C10.7846 46.5221 10.2824 50.3856 11.02 54.11C11.6637 57.4775 13.4512 60.5192 16.08 62.72ZM15 55.59C15.4396 54.4928 15.9473 53.424 16.52 52.39C17.7169 50.2669 19.2046 48.3214 20.94 46.61C24.6537 43.0028 29.4082 40.6553 34.53 39.9C36.009 39.6776 37.5055 39.5939 39 39.65C39.72 39.65 40.43 39.72 41.15 39.81C41.5005 39.8686 41.8548 39.902 42.21 39.91H42.78C44.0778 42.0354 44.6661 44.5183 44.46 47C44.1165 50.1899 43.001 53.2481 41.21 55.91C38.06 60.73 32.86 64.26 26.98 64.27C24.4504 64.3052 21.9536 63.6958 19.7247 62.4991C17.4958 61.3024 15.6083 59.5579 14.24 57.43C14.5 56.79 14.74 56.19 15 55.59Z" fill="#92DD78"/>
<path d="M52.06 30.19C51.2685 31.6224 50.9254 33.2595 51.0752 34.8891C51.225 36.5188 51.8607 38.0659 52.9 39.33C53.8005 40.3939 54.9412 41.2282 56.228 41.7638C57.5148 42.2993 58.9106 42.5209 60.3 42.41C61.1987 42.2981 62.0733 42.0415 62.89 41.65C63.2 41.51 63.04 41 62.72 41.02C61.3711 41.0541 60.0243 40.8958 58.72 40.55C57.4876 40.2554 56.3341 39.6958 55.34 38.91C54.8143 38.4751 54.3618 37.9585 54 37.38C54.1 37 54.18 36.62 54.31 36.24C54.5413 35.5704 54.879 34.9423 55.31 34.38C56.1862 33.2816 57.3197 32.4161 58.61 31.86C59.9072 31.2106 61.3221 30.8297 62.77 30.74C63.9227 30.7867 65.0402 31.15 66 31.79C67 34.31 66 37.27 64.34 39.29C63.95 39.77 64.44 40.52 65.03 40.18C67.9 38.55 68.86 34.9 68.03 31.83C67.5878 30.3036 66.7167 28.9362 65.5201 27.8903C64.3236 26.8444 62.8519 26.1641 61.28 25.93C59.5361 25.6684 57.754 25.9549 56.18 26.75C54.5043 27.4764 53.0737 28.6708 52.06 30.19ZM55.92 29.14C57.1024 28.3235 58.4857 27.8463 59.92 27.76C61.3941 27.7723 62.825 28.2597 64 29.15L63.26 29.06C61.3866 29.0347 59.5346 29.46 57.86 30.3C56.238 30.9966 54.8325 32.1155 53.79 33.54C53.5001 33.9597 53.2491 34.4049 53.04 34.87C52.915 33.9602 52.997 33.0338 53.28 32.16C53.7634 30.8658 54.702 29.7921 55.92 29.14Z" fill="#92DD78"/>
<path d="M45.7401 87.8701C47.8201 85.3601 48.5401 82.0001 46.8501 79.0701C45.1601 76.1401 40.3901 74.1801 37.5401 76.9101C37.4736 76.9793 37.4317 77.0684 37.4205 77.1637C37.4094 77.259 37.4297 77.3554 37.4784 77.438C37.5271 77.5207 37.6015 77.5852 37.6903 77.6217C37.7791 77.6582 37.8773 77.6646 37.9701 77.6401C39.5752 77.255 41.2564 77.3313 42.8201 77.8601C42.0464 77.8662 41.2829 78.0366 40.5801 78.3601C39.025 79.1163 37.5787 80.0782 36.2801 81.2201C34.9568 82.2221 33.8824 83.5156 33.1401 85.0001C32.9528 85.4104 32.799 85.8351 32.6801 86.2701C32.6844 86.247 32.6844 86.2232 32.6801 86.2001C31.8201 83.5401 33.2001 80.8301 35.2801 79.2001C35.6001 78.9401 35.2801 78.3501 34.8801 78.5001C33.538 79.1146 32.4372 80.1563 31.7497 81.4625C31.0622 82.7688 30.8268 84.2659 31.0801 85.7201C31.2983 87.0715 31.8946 88.3335 32.8001 89.3601C32.8589 89.4551 32.9333 89.5396 33.0201 89.6101C34.0348 90.697 35.3693 91.4325 36.8301 91.7101C40.1801 92.3001 43.6301 90.4101 45.7401 87.8701ZM38.0001 90.0001C36.4873 89.9264 35.0584 89.2834 34.0001 88.2001C33.9958 87.3242 34.2015 86.4601 34.6001 85.6801C35.2513 84.455 36.1504 83.3789 37.2401 82.5201C38.3255 81.5961 39.4976 80.779 40.7401 80.0801C41.9008 79.4721 43.2342 79.2781 44.5201 79.5301C44.5954 79.5443 44.673 79.5399 44.7462 79.5172C44.8194 79.4946 44.886 79.4544 44.9401 79.4001C45.6527 80.3802 46.0283 81.5651 46.0102 82.7768C45.9922 83.9885 45.5816 85.1616 44.8401 86.1201C44.0812 87.2551 43.0675 88.1971 41.8799 88.8708C40.6923 89.5444 39.3637 89.9312 38.0001 90.0001Z" fill="#92DD78"/>
<path d="M87.7301 35.83C86.4847 35.7878 85.2468 36.037 84.1148 36.5579C82.9828 37.0787 81.9881 37.8568 81.2101 38.83C79.4901 40.83 78.3401 43.62 79.4701 46.19C80.0162 47.4528 81.0254 48.4584 82.2901 49C82.9746 49.2933 83.716 49.43 84.4601 49.4C85.2227 49.3481 85.9469 49.0458 86.5201 48.54C86.6104 48.4836 86.6777 48.397 86.7102 48.2955C86.7426 48.1941 86.738 48.0845 86.6973 47.9861C86.6565 47.8877 86.5821 47.807 86.4874 47.7583C86.3927 47.7096 86.2838 47.696 86.1801 47.72C85.6742 47.7601 85.166 47.7601 84.6601 47.72C84.1682 47.7353 83.6774 47.6642 83.2101 47.51C82.7659 47.3702 82.3544 47.1423 82.0001 46.84C82.0001 46.73 82.0601 46.63 82.0801 46.54C82.2217 45.9707 82.3953 45.4098 82.6001 44.86C83.0519 43.7732 83.7342 42.7974 84.6001 42C85.9219 40.7977 87.6082 40.0725 89.3901 39.94C89.9324 39.9522 90.4739 39.8917 91.0001 39.76C91.0534 39.8449 91.097 39.9355 91.1301 40.03C91.4578 41.0032 91.4578 42.0569 91.1301 43.03C90.7473 44.0064 90.1993 44.9096 89.5101 45.7C89.3601 45.93 89.6101 46.19 89.8501 46.14C90.9705 45.7412 91.8991 44.934 92.4501 43.88C93.0517 42.7968 93.2468 41.5343 93.0001 40.32C92.7505 39.09 92.0957 37.9791 91.1403 37.1651C90.1849 36.3511 88.9842 35.8811 87.7301 35.83ZM87.1801 38.71C85.79 39.1203 84.5166 39.8532 83.4635 40.8489C82.4104 41.8447 81.6075 43.0751 81.1201 44.44C81.0401 44.67 80.9601 44.9 80.9001 45.14C80.7216 44.2965 80.7455 43.4226 80.9697 42.5901C81.1939 41.7575 81.6121 40.9899 82.1901 40.35C82.7331 39.5921 83.4243 38.9522 84.2219 38.4692C85.0195 37.9862 85.9068 37.6701 86.8301 37.54C87.8537 37.4604 88.8753 37.7167 89.7401 38.27C88.8694 38.2867 88.0063 38.4351 87.1801 38.71Z" fill="#92DD78"/>
<path d="M32.3401 69.3201C33.699 68.9701 35.0116 68.4598 36.2501 67.8001C37.5499 67.2312 38.6726 66.3227 39.5001 65.1701C39.5542 65.068 39.5741 64.9513 39.5569 64.837C39.5398 64.7228 39.4865 64.617 39.4048 64.5354C39.3231 64.4537 39.2174 64.4003 39.1031 64.3832C38.9889 64.366 38.8721 64.386 38.7701 64.4401C37.6301 64.9501 36.6501 65.8101 35.5501 66.4401C34.4082 67.0592 33.1962 67.5393 31.9401 67.8701C29.4254 68.5827 26.792 68.7767 24.2001 68.4401C24.1285 68.4202 24.0519 68.4295 23.9872 68.4661C23.9225 68.5027 23.875 68.5635 23.8551 68.6351C23.8352 68.7067 23.8446 68.7832 23.8811 68.8479C23.9177 68.9126 23.9785 68.9602 24.0501 68.9801C25.3415 69.4284 26.6864 69.7041 28.0501 69.8001C29.4958 69.8503 30.9412 69.6886 32.3401 69.3201Z" fill="#92DD78"/>
<path d="M40.8201 63.1701C40.7319 63.2858 40.6549 63.4097 40.5901 63.5401C40.5487 63.5929 40.5262 63.658 40.5262 63.7251C40.5262 63.7921 40.5487 63.8573 40.5901 63.9101C40.6361 63.972 40.7029 64.0151 40.7783 64.0317C40.8536 64.0482 40.9324 64.037 41.0001 64.0001L41.3001 63.7601L41.3701 63.6901L41.5401 63.5501C41.7167 63.3901 41.8837 63.2198 42.0401 63.0401L42.1401 62.9201L42.2201 62.8301C42.2583 62.7872 42.2858 62.7357 42.3001 62.6801L42.5001 62.4101C42.6401 62.2301 42.7901 62.0501 42.9201 61.8501C42.9618 61.7768 42.9757 61.6909 42.9591 61.6083C42.9426 61.5256 42.8968 61.4517 42.8301 61.4001C42.7655 61.3464 42.6841 61.317 42.6001 61.317C42.5161 61.317 42.4347 61.3464 42.3701 61.4001C42.1001 61.6301 41.8801 61.9001 41.6101 62.1301C41.5643 62.1673 41.5209 62.2074 41.4801 62.2501L41.3401 62.4201C41.2301 62.5501 41.1201 62.6701 41.0201 62.8101L40.9101 62.9701L40.8501 63.0501C40.8501 63.1501 40.8501 63.1801 40.8501 63.1301C40.8501 63.0801 40.8401 63.1301 40.8201 63.1701Z" fill="#92DD78"/>
<path d="M47.83 41.9201C48.837 43.9069 49.2171 46.1526 48.92 48.3601C48.61 50.7901 47.59 53.0301 46.92 55.3601C46.9029 55.4276 46.9107 55.499 46.9419 55.5612C46.9731 55.6234 47.0257 55.6723 47.09 55.699C47.1542 55.7257 47.226 55.7284 47.2921 55.7065C47.3582 55.6847 47.4142 55.6398 47.45 55.5801C49.71 51.5801 51.62 45.4201 48.35 41.4801C48.11 41.1901 47.66 41.5901 47.83 41.9201Z" fill="#92DD78"/>
<path d="M46.63 39.05C46.6716 39.1171 46.7371 39.1658 46.8132 39.1862C46.8894 39.2066 46.9705 39.1973 47.04 39.16C47.0742 39.1403 47.1041 39.1141 47.1282 39.0829C47.1522 39.0516 47.1698 39.0159 47.18 38.9778C47.1902 38.9397 47.1928 38.9 47.1877 38.8609C47.1825 38.8219 47.1698 38.7842 47.15 38.75L46.53 37.75C46.4904 37.6837 46.4266 37.6352 46.3521 37.6147C46.2776 37.5943 46.198 37.6033 46.13 37.64C46.0648 37.6831 46.0175 37.7486 45.9973 37.8242C45.977 37.8997 45.9851 37.98 46.02 38.05C46.23 38.38 46.43 38.71 46.63 39.05Z" fill="#92DD78"/>
<path d="M16.25 67.0901C16.5611 67.2853 16.8976 67.4367 17.25 67.5401C17.3283 67.5591 17.4106 67.552 17.4845 67.5199C17.5584 67.4878 17.6198 67.4325 17.6593 67.3624C17.6989 67.2922 17.7146 67.2111 17.7039 67.1313C17.6931 67.0514 17.6567 66.9773 17.6 66.9201C17.344 66.7109 17.0733 66.5204 16.79 66.3501C16.52 66.1601 16.24 65.9801 15.98 65.7901C15.4408 65.4003 14.9356 64.9654 14.47 64.4901C13.5132 63.5519 12.6829 62.493 12 61.3401C11.78 60.9801 11.29 61.3401 11.45 61.6601C11.9971 62.9559 12.7843 64.1367 13.77 65.1401C14.2597 65.6415 14.7917 66.0999 15.36 66.5101C15.6403 66.7275 15.9379 66.9215 16.25 67.0901Z" fill="#92DD78"/>
<path d="M20.5 68L20.29 67.89C20.1409 67.8095 19.9972 67.7193 19.86 67.62C19.7897 67.5796 19.7071 67.5665 19.6278 67.583C19.5485 67.5996 19.4781 67.6448 19.43 67.71C19.3796 67.7723 19.3522 67.8499 19.3522 67.93C19.3522 68.0101 19.3796 68.0877 19.43 68.15C19.6876 68.4149 19.9929 68.6286 20.33 68.78C20.5081 68.8638 20.6963 68.9243 20.89 68.96C21.0897 68.975 21.2902 68.975 21.49 68.96C21.5677 68.9585 21.6425 68.9296 21.7011 68.8784C21.7596 68.8272 21.7982 68.7569 21.81 68.68C21.8196 68.6024 21.8005 68.524 21.7563 68.4595C21.7121 68.395 21.6458 68.349 21.57 68.33L21.1 68.2L20.87 68.11H20.76H20.7C20.7 68.11 20.62 68.11 20.59 68.11L20.5 68Z" fill="#92DD78"/>
<path d="M68.1201 86.56C68.6373 87.2716 69.2939 87.8704 70.0501 88.32C70.1316 88.3642 70.2261 88.3779 70.3168 88.3587C70.4074 88.3395 70.4883 88.2886 70.5449 88.2152C70.6014 88.1418 70.63 88.0506 70.6254 87.958C70.6209 87.8655 70.5835 87.7775 70.5201 87.71C70.0201 87.09 69.4301 86.56 68.9301 85.94C68.4293 85.3197 67.9937 84.6495 67.6301 83.94C66.8805 82.5135 66.3864 80.9669 66.1701 79.37C66.1578 79.3061 66.1237 79.2484 66.0735 79.2069C66.0233 79.1654 65.9602 79.1427 65.8951 79.1427C65.8299 79.1427 65.7669 79.1654 65.7167 79.2069C65.6665 79.2484 65.6323 79.3061 65.6201 79.37C65.5877 81.1012 65.9682 82.8152 66.7301 84.37C67.1211 85.1435 67.5866 85.8769 68.1201 86.56Z" fill="#92DD78"/>
<path d="M74.64 89.78C74.5711 89.78 74.5049 89.8074 74.4562 89.8562C74.4074 89.9049 74.38 89.9711 74.38 90.04C74.38 90.109 74.4074 90.1751 74.4562 90.2239C74.5049 90.2726 74.5711 90.3 74.64 90.3C74.709 90.3 74.7751 90.2726 74.8239 90.2239C74.8726 90.1751 74.9 90.109 74.9 90.04C74.9 89.9711 74.8726 89.9049 74.8239 89.8562C74.7751 89.8074 74.709 89.78 74.64 89.78Z" fill="#92DD78"/>
<path d="M66.09 74.8201C66.0519 75.0484 66.0285 75.2788 66.02 75.5101C66.02 75.7301 66.02 75.9401 66.02 76.1501C66.02 76.2376 66.0548 76.3216 66.1167 76.3834C66.1786 76.4453 66.2625 76.4801 66.35 76.4801C66.436 76.4753 66.5172 76.439 66.578 76.3781C66.6389 76.3173 66.6752 76.2361 66.68 76.1501C66.7264 75.7602 66.7931 75.373 66.88 74.9901L67 74.4101C67.0619 74.1902 67.1087 73.9664 67.14 73.7401C67.1403 73.66 67.114 73.5822 67.0651 73.5188C67.0162 73.4554 66.9475 73.4101 66.87 73.3901C66.7936 73.3694 66.7125 73.3737 66.6386 73.4025C66.5648 73.4313 66.5022 73.4831 66.46 73.5501C66.3459 73.7536 66.2617 73.9726 66.21 74.2001C66.1584 74.4044 66.1184 74.6113 66.09 74.8201Z" fill="#92DD78"/>
<path d="M73.08 64.0001C72.87 64.2701 72.71 64.5701 72.5 64.8501C72.29 65.1301 72.67 65.4001 72.9 65.2501C73.42 64.9101 73.99 64.6701 74.52 64.3301C75.0431 63.9918 75.5876 63.6879 76.15 63.4201C77.325 62.8614 78.5802 62.4903 79.87 62.3201C81.1262 62.13 82.4038 62.13 83.66 62.3201C84.9088 62.5795 86.141 62.9135 87.35 63.3201C87.7 63.4301 88.05 62.9101 87.73 62.6601C85.54 60.9401 82.39 60.6601 79.73 61.0401C78.3457 61.2283 76.9975 61.6227 75.73 62.2101C75.1067 62.487 74.5107 62.8218 73.95 63.2101C73.6227 63.4291 73.3295 63.6953 73.08 64.0001Z" fill="#92DD78"/>
<path d="M91.41 67.3901C91.4379 67.487 91.4997 67.5706 91.5842 67.6257C91.6687 67.6808 91.7701 67.7036 91.87 67.6901C91.9708 67.68 92.064 67.6321 92.1308 67.556C92.1976 67.4799 92.2331 67.3813 92.23 67.2801C92.2157 67.1806 92.2157 67.0796 92.23 66.9801C92.2399 66.9104 92.2399 66.8397 92.23 66.7701C92.1993 66.6309 92.1592 66.4939 92.11 66.3601C92.0521 66.1822 91.975 66.0112 91.88 65.8501C91.79 65.7101 91.7 65.5801 91.6 65.4501C91.5 65.3201 91.39 65.2001 91.28 65.0801C91.2378 65.0228 91.1873 64.9723 91.13 64.9301L91 64.8301C90.95 64.8301 90.94 64.8301 91 64.8301L90.92 64.7701C90.6674 64.5605 90.3924 64.3794 90.1 64.2301C90.0308 64.1925 89.9504 64.1809 89.8734 64.1974C89.7964 64.2139 89.7278 64.2574 89.68 64.3201C89.6266 64.3789 89.597 64.4556 89.597 64.5351C89.597 64.6146 89.6266 64.6912 89.68 64.7501C89.919 64.9506 90.1368 65.1751 90.33 65.4201L90.43 65.5601L90.6 65.8001C90.7123 65.9713 90.8093 66.1519 90.89 66.3401C90.97 66.5201 91.08 66.6901 91.16 66.8701V67.0001C91.184 67.0725 91.2141 67.1428 91.25 67.2101L91.41 67.3901Z" fill="#92DD78"/>
<path d="M41.07 93.38C40.323 93.5878 39.5652 93.7548 38.8 93.88C38.0215 93.9466 37.2373 93.8824 36.48 93.69C35.7404 93.5063 35.0349 93.2058 34.39 92.8C33.7307 92.3386 33.1027 91.8342 32.51 91.29C32.31 91.13 31.91 91.29 32.03 91.57C32.66 93.25 34.54 94.29 36.2 94.72C37.0713 94.9429 37.9739 95.0173 38.87 94.94C39.8065 94.9121 40.7128 94.6018 41.47 94.05C41.79 93.76 41.43 93.31 41.07 93.38Z" fill="#92DD78"/>
<path d="M47 91C47.0394 90.9303 47.053 90.8491 47.0383 90.7704C47.0237 90.6918 46.9818 90.6208 46.92 90.57C46.8577 90.5196 46.7801 90.4922 46.7 90.4922C46.6199 90.4922 46.5423 90.5196 46.48 90.57C46.3029 90.747 46.1159 90.914 45.92 91.07L45.37 91.49L44.78 91.9C44.56 92.04 44.36 92.2 44.14 92.34C44.07 92.3754 44.0161 92.4361 43.9891 92.5097C43.962 92.5834 43.9639 92.6645 43.9944 92.7368C44.0248 92.8091 44.0815 92.8672 44.1531 92.8993C44.2247 92.9314 44.3057 92.9353 44.38 92.91C44.6537 92.8398 44.9187 92.7392 45.17 92.61C45.39 92.48 45.62 92.34 45.83 92.19C46.2723 91.8484 46.666 91.448 47 91Z" fill="#92DD78"/>
<path d="M46.43 75.79C47.431 76.6003 48.2173 77.6443 48.7195 78.8302C49.2218 80.0161 49.4245 81.3073 49.31 82.59C49.31 83 49.97 83.1 50.03 82.69C50.2285 81.281 50.0327 79.8445 49.4643 78.54C48.8959 77.2355 47.9771 76.114 46.81 75.3C46.52 75.1 46.15 75.56 46.43 75.79Z" fill="#92DD78"/>
<path d="M50.77 79.77C50.7692 79.8432 50.7952 79.9141 50.843 79.9694C50.8908 80.0248 50.9572 80.0608 51.0297 80.0706C51.1022 80.0804 51.1757 80.0634 51.2366 80.0228C51.2974 79.9822 51.3413 79.9208 51.36 79.85C51.4569 79.4851 51.4841 79.1051 51.44 78.7301C51.4044 78.3629 51.3169 78.0026 51.18 77.6601C50.9011 76.9601 50.4381 76.3485 49.84 75.8901C49.58 75.6901 49.24 76.1301 49.48 76.3501C49.9449 76.7815 50.3034 77.3149 50.5272 77.9083C50.7511 78.5018 50.8342 79.1391 50.77 79.77Z" fill="#92DD78"/>
<path d="M52 77.85V77.93C52.004 77.9699 52.004 78.0101 52 78.05C52.0373 78.1493 52.0807 78.2461 52.13 78.34C52.1738 78.413 52.242 78.4681 52.3226 78.4955C52.4031 78.523 52.4908 78.521 52.57 78.49C52.6456 78.4553 52.7068 78.3955 52.7432 78.3207C52.7797 78.246 52.7892 78.1609 52.77 78.08C52.7245 77.8864 52.6574 77.6986 52.57 77.52C52.5 77.35 52.42 77.19 52.34 77.03C52.1591 76.7027 51.941 76.3973 51.69 76.12C51.6389 76.075 51.5731 76.0502 51.505 76.0502C51.4369 76.0502 51.3711 76.075 51.32 76.12C51.2662 76.1631 51.2289 76.2234 51.2143 76.2908C51.1997 76.3582 51.2088 76.4285 51.24 76.49C51.41 76.8 51.55 77.12 51.71 77.43L52 77.85Z" fill="#92DD78"/>
<path d="M53.7701 76.8801C53.7513 76.8129 53.708 76.7551 53.6488 76.7181C53.5896 76.6811 53.5187 76.6675 53.4501 76.6801C53.382 76.6896 53.3194 76.7229 53.2737 76.7742C53.2279 76.8255 53.2018 76.8914 53.2001 76.9601C53.2001 77.2101 53.2701 77.4701 53.3101 77.7301C53.3501 77.9901 53.4001 78.2001 53.4501 78.4401C53.4733 78.5157 53.5246 78.5796 53.5934 78.6186C53.6621 78.6576 53.7432 78.6689 53.8201 78.6501C53.8943 78.6249 53.9568 78.5733 53.9955 78.5051C54.0342 78.4368 54.0465 78.3568 54.0301 78.2801C54.0301 78.0401 53.9601 77.8101 53.9201 77.5701C53.8801 77.3301 53.8201 77.1101 53.7701 76.8801Z" fill="#92DD78"/>
<path d="M51 52C51.8859 50.0238 52.1137 47.8154 51.65 45.7C51.58 45.4 51.07 45.46 51.11 45.77C51.3208 47.8018 51.0608 49.8549 50.35 51.77C50.21 52.07 50.82 52.34 51 52Z" fill="#92DD78"/>
<path d="M53.0001 50.5601C53.1326 50.3106 53.2206 50.0398 53.2601 49.7601C53.3101 49.5001 53.3601 49.2401 53.4001 48.9701C53.4451 48.4377 53.4451 47.9025 53.4001 47.3701C53.3873 47.3012 53.3508 47.2389 53.2969 47.194C53.2431 47.1492 53.1752 47.1246 53.1051 47.1246C53.035 47.1246 52.9671 47.1492 52.9132 47.194C52.8593 47.2389 52.8228 47.3012 52.8101 47.3701C52.762 47.8635 52.6885 48.3542 52.5901 48.8401C52.5901 49.0901 52.5101 49.3301 52.4501 49.5801C52.3901 49.8301 52.4501 49.8201 52.3701 49.9401C52.3354 50.0844 52.3153 50.2318 52.3101 50.3801C52.3 50.4664 52.3214 50.5534 52.3704 50.6251C52.4194 50.6968 52.4927 50.7484 52.5767 50.7703C52.6608 50.7922 52.7499 50.783 52.8277 50.7444C52.9055 50.7058 52.9667 50.6403 53.0001 50.5601Z" fill="#92DD78"/>
<path d="M53.59 51.1901C53.5905 51.2584 53.6135 51.3246 53.6555 51.3785C53.6976 51.4323 53.7562 51.4708 53.8223 51.4879C53.8885 51.505 53.9584 51.4998 54.0213 51.4731C54.0841 51.4463 54.1364 51.3996 54.17 51.3401C54.2686 51.1318 54.3554 50.9182 54.43 50.7001C54.43 50.6001 54.51 50.5501 54.55 50.4401C54.59 50.3301 54.6 50.2301 54.63 50.1201C54.75 49.7201 54.81 49.2901 54.89 48.8801C54.9125 48.8005 54.9025 48.7153 54.8622 48.6431C54.8219 48.5709 54.7545 48.5176 54.675 48.4951C54.5954 48.4725 54.5101 48.4825 54.4379 48.5228C54.3657 48.5632 54.3125 48.6305 54.29 48.7101C54.14 49.1101 53.96 49.5001 53.84 49.9101L53.75 50.2001C53.7444 50.2432 53.7444 50.2869 53.75 50.3301C53.7556 50.3766 53.7556 50.4236 53.75 50.4701C53.66 50.7301 53.61 51.0001 53.59 51.1901Z" fill="#92DD78"/>
<path d="M38.55 68.7601C38.6743 68.6222 38.788 68.4751 38.89 68.3201C39.0058 68.1616 39.1031 67.9905 39.18 67.8101C39.1986 67.7366 39.1929 67.659 39.1636 67.5891C39.1343 67.5191 39.0832 67.4606 39.0177 67.4222C38.9523 67.3839 38.8762 67.3678 38.8009 67.3764C38.7256 67.3851 38.6551 67.4179 38.6 67.4701C38.48 67.5701 38.38 67.7001 38.27 67.8101C38.16 67.9201 38.04 67.9901 37.9 68.1201C37.6844 68.3219 37.45 68.5027 37.2 68.6601C36.9475 68.8195 36.6835 68.9599 36.41 69.0801C36.27 69.1401 36.13 69.2301 36 69.2901C35.8445 69.3485 35.6838 69.392 35.52 69.4201C35.455 69.4379 35.3986 69.4786 35.3612 69.5347C35.3237 69.5908 35.3078 69.6585 35.3163 69.7254C35.3248 69.7923 35.3572 69.8539 35.4075 69.8989C35.4578 69.9438 35.5226 69.9691 35.59 69.9701C35.77 69.9701 35.95 69.9701 36.13 69.9701C36.3153 69.9665 36.4997 69.943 36.68 69.9001C37.0314 69.803 37.3679 69.6583 37.68 69.4701C37.9973 69.2689 38.2894 69.0306 38.55 68.7601Z" fill="#92DD78"/>
<path d="M38 70.94L38.73 70.36C38.8534 70.2718 38.9704 70.1749 39.08 70.07L39.42 69.74C39.4692 69.685 39.4964 69.6138 39.4964 69.54C39.4964 69.4662 39.4692 69.395 39.42 69.34C39.376 69.2813 39.312 69.2407 39.2402 69.226C39.1683 69.2112 39.0935 69.2233 39.03 69.26L38.66 69.53C38.51 69.64 38.38 69.75 38.24 69.87L37.54 70.49C37.5094 70.5189 37.4851 70.5538 37.4684 70.5925C37.4518 70.6312 37.4432 70.6729 37.4432 70.715C37.4432 70.7571 37.4518 70.7988 37.4684 70.8374C37.4851 70.8761 37.5094 70.911 37.54 70.94C37.5691 70.9721 37.6045 70.9979 37.6442 71.0154C37.6838 71.033 37.7266 71.0421 37.77 71.0421C37.8133 71.0421 37.8562 71.033 37.8958 71.0154C37.9354 70.9979 37.9709 70.9721 38 70.94Z" fill="#92DD78"/>
<path d="M38.8701 72.2001C38.9077 72.2172 38.9487 72.2261 38.9901 72.2261C39.0315 72.2261 39.0724 72.2172 39.1101 72.2001C39.1799 72.1821 39.2471 72.1552 39.3101 72.1201L39.4301 72.0501L39.6801 71.8901L39.9401 71.7401L40.1801 71.5601C40.2424 71.5141 40.2909 71.4518 40.3201 71.3801C40.3352 71.3436 40.343 71.3045 40.343 71.2651C40.343 71.2256 40.3352 71.1865 40.3201 71.1501C40.2785 71.083 40.213 71.0343 40.1368 71.0139C40.0607 70.9934 39.9796 71.0028 39.9101 71.0401C39.8173 71.0773 39.7271 71.1208 39.6401 71.1701C39.5501 71.2141 39.4632 71.2642 39.3801 71.3201L39.1201 71.4701L39.0001 71.5401L38.8301 71.6801C38.7941 71.713 38.7668 71.7542 38.7504 71.8001C38.734 71.8461 38.729 71.8953 38.7359 71.9435C38.7428 71.9918 38.7614 72.0376 38.79 72.0771C38.8186 72.1166 38.8564 72.1485 38.9001 72.1701L38.8701 72.2001Z" fill="#92DD78"/>
<path d="M69 28.87C69.7692 29.8354 70.2404 31.0041 70.3558 32.2332C70.4713 33.4622 70.226 34.6982 69.65 35.79C69.6178 35.8621 69.6134 35.9435 69.6377 36.0186C69.6619 36.0937 69.7131 36.1572 69.7813 36.1969C69.8495 36.2366 69.93 36.2497 70.0073 36.2337C70.0846 36.2176 70.1532 36.1736 70.2 36.11C70.9495 34.9341 71.2794 33.5394 71.136 32.1524C70.9926 30.7653 70.3843 29.4676 69.41 28.47C69.12 28.2 68.75 28.6 69 28.87Z" fill="#92DD78"/>
<path d="M72.1 33.27C72.0399 33.4621 71.9997 33.6598 71.98 33.86C71.9811 33.9383 72.0051 34.0145 72.0491 34.0793C72.0932 34.144 72.1552 34.1945 72.2276 34.2243C72.3 34.2541 72.3796 34.262 72.4564 34.247C72.5333 34.232 72.6041 34.1948 72.66 34.14C72.9117 33.7681 73.0633 33.3376 73.1 32.89C73.1649 32.439 73.1649 31.981 73.1 31.53C72.9753 30.6856 72.6304 29.8888 72.1 29.22C71.89 28.95 71.5 29.29 71.65 29.57C71.9841 30.2156 72.1783 30.9243 72.22 31.65C72.2499 32.0194 72.2499 32.3906 72.22 32.76C72.1899 32.9322 72.1498 33.1025 72.1 33.27Z" fill="#92DD78"/>
<path d="M73.72 31.76C73.7247 31.8266 73.7247 31.8934 73.72 31.96C73.72 32.03 73.67 32.1 73.65 32.17C73.6346 32.2478 73.6146 32.3246 73.59 32.4C73.5718 32.473 73.5798 32.5501 73.6127 32.6177C73.6456 32.6854 73.7013 32.7393 73.77 32.77C73.8412 32.8003 73.9209 32.8038 73.9944 32.7799C74.0679 32.756 74.1303 32.7063 74.17 32.64C74.2894 32.4914 74.3717 32.3166 74.41 32.13C74.4503 31.946 74.4704 31.7583 74.47 31.57C74.4525 31.1942 74.3389 30.8293 74.14 30.51C74.0986 30.4557 74.0388 30.4185 73.9718 30.4052C73.9049 30.392 73.8354 30.4037 73.7764 30.438C73.7174 30.4724 73.6731 30.5272 73.6517 30.592C73.6302 30.6568 73.6332 30.7272 73.66 30.79C73.6587 30.8133 73.6587 30.8367 73.66 30.86V30.97C73.6647 31.0332 73.6647 31.0967 73.66 31.16C73.66 31.16 73.66 31.23 73.66 31.24C73.66 31.25 73.66 31.32 73.66 31.36V31.58C73.66 31.58 73.66 31.65 73.66 31.69C73.66 31.73 73.72 31.75 73.72 31.76Z" fill="#92DD78"/>
<path d="M74.6801 32.4401V32.5201C74.6602 32.5528 74.647 32.5892 74.6412 32.6271C74.6355 32.6651 74.6373 32.7037 74.6466 32.7409C74.6559 32.7781 74.6725 32.8131 74.6954 32.8439C74.7183 32.8746 74.7471 32.9005 74.7801 32.9201C74.8481 32.9568 74.9276 32.9658 75.0021 32.9453C75.0767 32.9249 75.1404 32.8764 75.1801 32.8101C75.3129 32.6085 75.3984 32.3794 75.4301 32.1401V31.9201C75.4355 31.8435 75.4355 31.7666 75.4301 31.6901C75.4107 31.5807 75.3806 31.4735 75.3401 31.3701C75.3212 31.296 75.2738 31.2324 75.2083 31.1931C75.1427 31.1537 75.0643 31.1419 74.9901 31.1601C74.9532 31.1704 74.9188 31.188 74.8887 31.2117C74.8587 31.2355 74.8337 31.2649 74.8151 31.2984C74.7965 31.3319 74.7847 31.3687 74.7804 31.4067C74.7761 31.4448 74.7794 31.4833 74.7901 31.5201C74.7901 31.5201 74.7901 31.5701 74.7901 31.6001C74.7901 31.6501 74.7901 31.6901 74.7901 31.7401C74.7901 31.7901 74.7901 31.9401 74.7901 32.0401C74.7852 32.0631 74.7852 32.087 74.7901 32.1101C74.7933 32.1567 74.7933 32.2035 74.7901 32.2501C74.7901 32.2501 74.7901 32.2501 74.7901 32.3201C74.7901 32.3901 74.7901 32.3201 74.7901 32.3801C74.7901 32.4401 74.7001 32.4101 74.6801 32.4401Z" fill="#92DD78"/>
<path d="M68.11 39.4101L68.05 39.4801L67.95 39.6001C67.8 39.7801 67.64 39.9601 67.48 40.1201L66.97 40.5801C66.7781 40.7435 66.6128 40.9358 66.48 41.1501C66.4487 41.2061 66.4326 41.2694 66.4332 41.3336C66.4338 41.3977 66.4511 41.4607 66.4834 41.5161C66.5157 41.5716 66.5619 41.6178 66.6174 41.65C66.6729 41.6822 66.7358 41.6995 66.8 41.7001C67.1724 41.6524 67.5214 41.4918 67.8 41.2401C68.0365 41.0369 68.254 40.8126 68.45 40.5701C68.6563 40.3079 68.8372 40.0266 68.99 39.7301C69.0193 39.6796 69.0428 39.6259 69.06 39.5701C69.06 39.4401 69.06 39.4101 69.06 39.4701C69.0969 39.4044 69.1239 39.3336 69.14 39.2601C69.14 39.2101 69.14 39.1601 69.14 39.1101V39.0501L69.2 38.8101C69.2156 38.7395 69.2062 38.6657 69.1732 38.6014C69.1402 38.5371 69.0859 38.4864 69.0195 38.4579C68.953 38.4295 68.8788 38.4251 68.8095 38.4456C68.7402 38.466 68.6802 38.5101 68.64 38.5701C68.5826 38.6801 68.5191 38.787 68.45 38.8901L68.58 38.7601C68.44 38.8749 68.3215 39.0138 68.23 39.1701C68.1837 39.2468 68.1436 39.327 68.11 39.4101Z" fill="#92DD78"/>
<path d="M51.0001 26.79C49.7594 27.6037 48.8233 28.8057 48.3384 30.2079C47.8535 31.6102 47.8471 33.1337 48.3201 34.54C48.352 34.6206 48.4128 34.6864 48.4905 34.7248C48.5683 34.7632 48.6575 34.7713 48.7409 34.7477C48.8243 34.724 48.896 34.6703 48.942 34.5968C48.9881 34.5233 49.0052 34.4354 48.9901 34.35C48.6839 33.0626 48.7425 31.7154 49.1594 30.4595C49.5762 29.2036 50.3348 28.0887 51.3501 27.24C51.5501 27 51.2201 26.62 51.0001 26.79Z" fill="#92DD78"/>
<path d="M52.63 25.81C52.6756 25.8835 52.7476 25.9368 52.8312 25.9591C52.9148 25.9814 53.0038 25.971 53.08 25.93C53.3574 25.731 53.6694 25.5852 54 25.5C54.1637 25.4461 54.3307 25.4027 54.5 25.37C54.651 25.3353 54.8051 25.3152 54.96 25.31C55.0388 25.3075 55.1136 25.2751 55.1693 25.2194C55.2251 25.1636 55.2575 25.0888 55.26 25.01C55.2575 24.9312 55.2251 24.8564 55.1693 24.8006C55.1136 24.7449 55.0388 24.7125 54.96 24.71C54.1846 24.6801 53.4213 24.9088 52.79 25.36C52.7095 25.3989 52.6476 25.468 52.6177 25.5522C52.5877 25.6364 52.5922 25.729 52.63 25.81Z" fill="#92DD78"/>
<path d="M47.2701 28.2501C46.4834 29.0627 46.0028 30.1229 45.9101 31.2501C45.9093 31.3232 45.9352 31.3941 45.983 31.4495C46.0309 31.5048 46.0972 31.5408 46.1697 31.5506C46.2422 31.5604 46.3158 31.5435 46.3766 31.5028C46.4374 31.4622 46.4813 31.4008 46.5001 31.3301C46.6947 30.3656 47.1087 29.4588 47.7101 28.6801C47.7391 28.6513 47.7621 28.617 47.7778 28.5792C47.7936 28.5415 47.8016 28.501 47.8016 28.4601C47.8016 28.4192 47.7936 28.3787 47.7778 28.3409C47.7621 28.3032 47.7391 28.2689 47.7101 28.2401C47.6813 28.2104 47.6467 28.187 47.6085 28.1713C47.5702 28.1557 47.5292 28.1481 47.4879 28.149C47.4466 28.1499 47.4059 28.1594 47.3684 28.1768C47.3309 28.1942 47.2974 28.2191 47.2701 28.2501Z" fill="#92DD78"/>
<path d="M45.6001 29.57C45.6001 29.57 45.6001 29.57 45.6001 29.52L45.6801 29.39C45.7171 29.3247 45.7274 29.2475 45.7088 29.1748C45.6901 29.1021 45.644 29.0394 45.5801 29C45.5132 28.9624 45.4345 28.9518 45.3602 28.9704C45.2858 28.989 45.2213 29.0354 45.1801 29.1C45.07 29.2828 44.9975 29.4858 44.9666 29.6969C44.9357 29.9081 44.947 30.1233 45.0001 30.33C45.0212 30.4048 45.0705 30.4685 45.1376 30.5077C45.2048 30.5469 45.2845 30.5585 45.3601 30.54C45.4349 30.5189 45.4986 30.4696 45.5378 30.4024C45.5769 30.3353 45.5885 30.2555 45.5701 30.18C45.5654 30.1603 45.5654 30.1397 45.5701 30.12C45.56 30.0236 45.56 29.9264 45.5701 29.83C45.5818 29.749 45.5985 29.6689 45.6201 29.59L45.6001 29.57Z" fill="#92DD78"/>
<path d="M77.51 44.9301C77.53 45.6853 77.6103 46.4376 77.75 47.1801C77.9065 47.8811 78.1659 48.5551 78.52 49.1801C78.8253 49.7461 79.244 50.2431 79.75 50.6401C80.248 51.0485 80.8582 51.2961 81.5 51.3501C81.86 51.3501 82.05 50.8101 81.7 50.6401C81.203 50.4449 80.7405 50.1715 80.33 49.8301C79.9363 49.4617 79.5993 49.0371 79.33 48.5701C79.0424 48.0169 78.8177 47.4333 78.66 46.8301C78.47 46.1701 78.28 45.5201 78.11 44.8301C78.1034 44.7907 78.0892 44.753 78.068 44.7191C78.0469 44.6852 78.0193 44.6558 77.9868 44.6326C77.9543 44.6094 77.9175 44.5928 77.8786 44.5838C77.8397 44.5748 77.7994 44.5735 77.76 44.5801C77.7206 44.5866 77.6829 44.6009 77.649 44.622C77.6151 44.6432 77.5857 44.6708 77.5625 44.7033C77.5393 44.7358 77.5227 44.7725 77.5137 44.8115C77.5047 44.8504 77.5034 44.8907 77.51 44.9301Z" fill="#92DD78"/>
<path d="M77.48 48.25C77.48 48.13 77.42 48.01 77.4 47.89C77.3804 47.8232 77.3395 47.7646 77.2836 47.723C77.2276 47.6815 77.1596 47.6594 77.09 47.66C77.0211 47.6624 76.9545 47.6857 76.8992 47.7268C76.8438 47.7679 76.8022 47.8248 76.78 47.89C76.606 48.5347 76.6847 49.2215 77 49.81C77.1328 50.101 77.308 50.3706 77.52 50.61C77.6192 50.7492 77.7408 50.8709 77.88 50.97C78 51 78 51 78 51L78.09 51.06C78.1721 51.1159 78.2635 51.1565 78.36 51.18C78.437 51.197 78.5173 51.1919 78.5915 51.1654C78.6658 51.1389 78.7311 51.092 78.78 51.03C78.8243 50.9652 78.848 50.8886 78.848 50.81C78.848 50.7315 78.8243 50.6549 78.78 50.59C78.6996 50.4579 78.5983 50.3397 78.48 50.24L78.41 50.15L78.27 50.02L78.16 49.89L78.1 49.82C77.9611 49.6285 77.8405 49.4243 77.74 49.21C77.7441 49.1735 77.7441 49.1366 77.74 49.1C77.74 49.1 77.74 49 77.74 48.94C77.6961 48.8267 77.6626 48.7095 77.64 48.59C77.64 48.53 77.64 48.47 77.64 48.41C77.6448 48.3802 77.6448 48.3499 77.64 48.32L77.48 48.25Z" fill="#92DD78"/>
<path d="M76.18 49.67C76.101 49.6955 76.0345 49.7497 75.9938 49.822C75.953 49.8943 75.9409 49.9793 75.96 50.06C76.0726 50.6614 76.3739 51.2113 76.82 51.63C76.8488 51.6591 76.8831 51.6821 76.9209 51.6978C76.9586 51.7135 76.9991 51.7216 77.04 51.7216C77.0809 51.7216 77.1214 51.7135 77.1592 51.6978C77.1969 51.6821 77.2312 51.6591 77.26 51.63C77.3163 51.5706 77.3476 51.4919 77.3476 51.41C77.3476 51.3282 77.3163 51.2495 77.26 51.19L77.2 51.12L77.13 51H77.07C76.9906 50.8928 76.9204 50.779 76.86 50.66L76.77 50.49V50.44V50.36C76.7209 50.233 76.6808 50.1027 76.65 49.97C76.6531 49.9134 76.6411 49.8569 76.6152 49.8064C76.5894 49.7559 76.5505 49.7132 76.5027 49.6827C76.4548 49.6522 76.3998 49.6349 76.3431 49.6327C76.2864 49.6305 76.2301 49.6434 76.18 49.67Z" fill="#92DD78"/>
<path d="M89.7501 33.51C88.9373 33.0761 88.0193 32.8787 87.1001 32.94C86.1813 32.951 85.2714 33.1201 84.4101 33.44C83.5705 33.7561 82.7871 34.2052 82.0901 34.77C81.3762 35.3815 80.8059 36.1429 80.4201 37C80.3974 37.0634 80.3976 37.1327 80.4205 37.1961C80.4434 37.2594 80.4876 37.3128 80.5455 37.3471C80.6034 37.3814 80.6715 37.3944 80.738 37.384C80.8045 37.3736 80.8654 37.3404 80.9101 37.29C81.8708 35.946 83.2273 34.9357 84.7901 34.4C85.5342 34.1445 86.3135 34.0061 87.1001 33.99C87.5043 33.9931 87.9082 34.0165 88.3101 34.06C88.7301 34.11 89.1301 34.25 89.5501 34.29C89.9701 34.33 90.0001 33.71 89.7501 33.51Z" fill="#92DD78"/>
<path d="M91.79 35.46C91.85 35.59 91.92 35.72 91.98 35.84C92.12 36.12 92.25 36.4 92.39 36.67C92.5412 36.9419 92.7117 37.2025 92.9 37.45L93.07 37.62L93.21 37.8C93.3021 37.9265 93.4023 38.0467 93.51 38.16C93.5676 38.2187 93.6431 38.2565 93.7245 38.2675C93.806 38.2784 93.8887 38.262 93.9598 38.2208C94.0309 38.1795 94.0862 38.1157 94.117 38.0396C94.1478 37.9634 94.1524 37.8791 94.13 37.8C94.078 37.6375 94.0111 37.4802 93.93 37.33C93.8729 37.226 93.8292 37.1151 93.8 37C93.7348 36.8281 93.651 36.6638 93.55 36.51L93.31 36.13C93.14 35.89 92.95 35.65 92.77 35.41L92.48 35.01C92.37 34.9 92.26 34.79 92.16 34.67C92.06 34.55 91.5 34.67 91.62 34.99C91.62 35.06 91.62 35.14 91.7 35.2C91.7345 35.2851 91.7645 35.3719 91.79 35.46Z" fill="#92DD78"/>
<path d="M75 61.32C74.81 61.59 75.19 61.98 75.46 61.79C75.8347 61.5411 76.2334 61.33 76.65 61.16C77.0467 60.9752 77.4626 60.8344 77.89 60.7401C78.2975 60.6304 78.718 60.5765 79.14 60.5801H79.79C80.03 60.5801 80.27 60.67 80.51 60.64C80.5931 60.6393 80.6741 60.6139 80.7427 60.567C80.8114 60.5202 80.8646 60.4541 80.8956 60.377C80.9267 60.2999 80.9342 60.2153 80.9171 60.134C80.9001 60.0527 80.8593 59.9782 80.8 59.92C80.578 59.7488 80.3224 59.6262 80.05 59.5601C79.783 59.4583 79.504 59.391 79.22 59.36C78.6699 59.3182 78.1166 59.3621 77.58 59.4901C77.062 59.6194 76.5711 59.8395 76.13 60.14C75.8992 60.2946 75.6848 60.4722 75.49 60.67C75.3077 60.8718 75.1438 61.0893 75 61.32Z" fill="#92DD78"/>
<path d="M77.4 57.6L76.59 57.81C76.5226 57.8309 76.4655 57.8766 76.4303 57.9377C76.3951 57.9989 76.3842 58.0712 76.4 58.14C76.423 58.2082 76.4705 58.2655 76.5334 58.3006C76.5962 58.3357 76.6699 58.3462 76.74 58.33L77.54 58.12C77.6043 58.0975 77.6577 58.0514 77.6895 57.9912C77.7213 57.9309 77.7291 57.8608 77.7114 57.795C77.6937 57.7292 77.6518 57.6725 77.594 57.6364C77.5363 57.6002 77.467 57.5872 77.4 57.6Z" fill="#92DD78"/>
<path d="M103.26 67.68C102.87 69.22 102.32 70.68 101.93 72.25C101.83 72.66 102.42 72.94 102.62 72.54C103.31 71.0676 103.839 69.5254 104.2 67.94C104.598 66.3764 104.902 64.7902 105.11 63.19C105.545 59.9847 105.545 56.7353 105.11 53.53C105.06 53.22 104.54 53.29 104.55 53.61C104.707 56.7856 104.573 59.9688 104.15 63.12C103.94 64.65 103.63 66.17 103.26 67.68Z" fill="#92DD78"/>
<path d="M101 74.24C100.921 74.2425 100.846 74.2749 100.791 74.3306C100.735 74.3864 100.703 74.4612 100.7 74.54C100.7 74.54 100.7 74.61 100.7 74.65C100.705 74.7199 100.705 74.7901 100.7 74.86C100.683 74.9286 100.659 74.9956 100.63 75.06C100.636 75.0931 100.636 75.1269 100.63 75.16L100.57 75.3C100.543 75.3663 100.509 75.43 100.47 75.49C100.402 75.615 100.325 75.7353 100.24 75.85C100.201 75.9145 100.187 75.9915 100.202 76.0657C100.216 76.1399 100.259 76.2057 100.32 76.25C100.374 76.3014 100.446 76.33 100.52 76.33C100.595 76.33 100.666 76.3014 100.72 76.25C100.955 75.9958 101.141 75.701 101.27 75.38C101.377 75.0743 101.434 74.7537 101.44 74.43C101.431 74.3836 101.411 74.3401 101.381 74.3033C101.352 74.2665 101.314 74.2374 101.27 74.2187C101.227 74.2 101.18 74.1921 101.133 74.1958C101.085 74.1996 101.04 74.2147 101 74.24Z" fill="#92DD78"/>
<path d="M27.87 95.11C29.5163 96.3511 31.2856 97.42 33.15 98.3C33.2314 98.3377 33.324 98.3437 33.4096 98.3167C33.4952 98.2897 33.5676 98.2317 33.6126 98.1541C33.6577 98.0765 33.6721 97.9849 33.6532 97.8972C33.6342 97.8095 33.5831 97.732 33.51 97.68C30.5114 95.8565 27.6654 93.7931 25 91.51C22.3961 89.1405 20.0497 86.5025 18 83.64C16.8189 82.0411 15.7369 80.3713 14.76 78.64C14.58 78.32 14.11 78.64 14.27 78.93C17.4118 85.3545 22.0816 90.9102 27.87 95.11Z" fill="#92DD78"/>
<path d="M38.39 100.19C38.2931 100.134 38.1929 100.084 38.09 100.04L37.93 99.96H37.86H37.79C37.6879 99.8866 37.5771 99.8261 37.46 99.78L37.14 99.59C36.74 99.35 36.33 99.14 35.94 98.88C35.55 98.62 35.28 99.07 35.48 99.34C35.7787 99.7922 36.1752 100.171 36.64 100.45C36.8731 100.588 37.1214 100.699 37.38 100.78H37.52H37.58H37.76C37.8995 100.823 38.0442 100.846 38.19 100.85C38.2675 100.85 38.3429 100.825 38.4051 100.779C38.4674 100.733 38.5131 100.668 38.5356 100.594C38.558 100.52 38.556 100.441 38.5298 100.368C38.5036 100.295 38.4546 100.233 38.39 100.19Z" fill="#92DD78"/>
<path d="M22.93 24.24C23.72 23.46 24.39 22.59 25.13 21.76C25.8777 20.9375 26.6795 20.1658 27.53 19.45C28.3629 18.7446 29.2451 18.0996 30.17 17.52C31.1536 16.9932 32.0992 16.3984 33 15.74C33.3 15.48 33 15.1 32.66 15.15C31.5782 15.4215 30.5593 15.9003 29.66 16.56C28.6846 17.1866 27.7525 17.8781 26.87 18.63C25.9841 19.3591 25.1519 20.1511 24.38 21C23.5594 21.8283 22.8834 22.7883 22.38 23.84C22.28 24.16 22.65 24.51 22.93 24.24Z" fill="#92DD78"/>
<path d="M33.85 15.23L34.1 15.13C34.1625 15.1449 34.2276 15.1449 34.29 15.13H34.36L34.82 14.91C35.13 14.76 35.43 14.56 35.73 14.38C35.7723 14.3553 35.8092 14.3224 35.8386 14.2833C35.8681 14.2442 35.8894 14.1996 35.9015 14.1522C35.9136 14.1047 35.9162 14.0554 35.9091 14.0069C35.9019 13.9585 35.8853 13.912 35.86 13.87C35.8082 13.7867 35.7262 13.7267 35.6312 13.7024C35.5361 13.6782 35.4354 13.6917 35.35 13.74C35.0834 13.8525 34.823 13.9794 34.57 14.12L34.19 14.34C34.0624 14.4118 33.9418 14.4955 33.83 14.59L33.56 14.78C33.4986 14.8192 33.4528 14.8787 33.4309 14.9482C33.4089 15.0177 33.4122 15.0927 33.44 15.16C33.4875 15.2204 33.5558 15.2611 33.6316 15.274C33.7073 15.2869 33.7852 15.2713 33.85 15.23Z" fill="#92DD78"/>
<path d="M68.2701 10.8101C79.2877 14.2834 88.9693 21.0637 96.0001 30.2301C97.8908 32.8326 99.6271 35.544 101.2 38.3501C101.45 38.7801 102.2 38.4901 102.03 38.0001C99.645 32.5987 96.216 27.7219 91.9401 23.6501C87.7912 19.5168 82.9904 16.0944 77.7301 13.5201C74.7546 12.1028 71.6326 11.0163 68.4201 10.2801C68.3548 10.2739 68.2895 10.2908 68.2355 10.3278C68.1814 10.3648 68.1421 10.4195 68.1242 10.4826C68.1064 10.5456 68.1112 10.6129 68.1379 10.6727C68.1645 10.7325 68.2113 10.7811 68.2701 10.8101Z" fill="#92DD78"/>
<path d="M102 40.59C102.13 41.1 102.19 41.59 102.32 42.14C102.38 42.4 102.47 42.65 102.54 42.9C102.6 43.1255 102.677 43.3461 102.77 43.56C102.867 43.8689 103.008 44.162 103.19 44.43C103.44 44.72 103.86 44.43 103.89 44.14C103.881 43.9564 103.847 43.7747 103.79 43.6C103.79 43.44 103.73 43.27 103.68 43.11C103.63 42.95 103.47 42.52 103.37 42.23C103.14 41.61 102.82 41.04 102.57 40.43C102.54 40.3656 102.488 40.3139 102.423 40.2843C102.359 40.2546 102.286 40.2489 102.217 40.2681C102.149 40.2873 102.089 40.3303 102.049 40.3892C102.01 40.4482 101.992 40.5194 102 40.59Z" fill="#92DD78"/>
<path d="M17.7901 81.15C18.9505 83.1753 20.3989 85.0212 22.0901 86.63C22.1551 86.6784 22.2352 86.702 22.3161 86.6966C22.3969 86.6911 22.4732 86.657 22.5311 86.6003C22.589 86.5436 22.6248 86.4681 22.6319 86.3873C22.639 86.3066 22.6171 86.226 22.5701 86.16C21.0545 84.468 19.6356 82.6918 18.3201 80.84C18.1001 80.52 17.5901 80.81 17.7901 81.15Z" fill="#92DD78"/>
<path d="M23.36 84.71C23.4098 84.6618 23.4453 84.6009 23.463 84.534C23.4806 84.467 23.4796 84.3965 23.46 84.33C23.2864 83.9797 23.037 83.6723 22.73 83.43C22.48 83.19 22.24 82.93 22 82.68C21.76 82.43 21.74 82.41 21.66 82.31C21.5521 82.1863 21.4519 82.0561 21.36 81.92C21.2455 81.7828 21.1386 81.6392 21.04 81.49C20.9405 81.3425 20.8503 81.1889 20.77 81.03C20.62 80.76 20.15 80.94 20.26 81.24C20.37 81.54 20.55 81.92 20.68 82.24C20.758 82.4097 20.8483 82.5735 20.95 82.73C21.04 82.88 21.13 83.06 21.24 83.22C21.4523 83.535 21.6933 83.8296 21.96 84.1C22.0902 84.2402 22.2306 84.3706 22.38 84.49C22.5544 84.6346 22.7597 84.7373 22.98 84.79C23.045 84.8101 23.1139 84.8132 23.1804 84.7992C23.2469 84.7852 23.3087 84.7545 23.36 84.71Z" fill="#92DD78"/>
<path d="M24 83.22C24.0514 83.1682 24.0841 83.1009 24.0932 83.0285C24.1022 82.9562 24.0871 82.8828 24.05 82.82C23.8 82.47 23.49 82.17 23.21 81.82L23.12 81.7L22.94 81.45C22.83 81.27 22.72 81.09 22.62 80.9C22.5813 80.8408 22.5235 80.7966 22.4562 80.7748C22.3889 80.7529 22.3161 80.7548 22.25 80.78C22.1847 80.8086 22.1317 80.8596 22.1006 80.9237C22.0694 80.9879 22.0621 81.061 22.08 81.13C22.2472 81.541 22.4513 81.936 22.69 82.31C22.9389 82.7183 23.2818 83.0611 23.69 83.31C23.7451 83.3228 23.8025 83.3213 23.8568 83.3055C23.9111 83.2897 23.9604 83.2603 24 83.22Z" fill="#92DD78"/>
<path d="M24.54 82.7201C24.6285 82.7201 24.7135 82.6856 24.7769 82.624C24.8404 82.5624 24.8774 82.4785 24.88 82.39C24.8683 82.0933 24.8004 81.8015 24.68 81.53C24.6357 81.4593 24.5855 81.3924 24.53 81.3301L24.41 81.2C24.3085 81.0932 24.1943 80.9992 24.07 80.92C24.0044 80.8848 23.9286 80.8734 23.8556 80.8881C23.7826 80.9027 23.7169 80.9423 23.67 81.0001C23.6201 81.0567 23.5925 81.1296 23.5925 81.2051C23.5925 81.2805 23.6201 81.3534 23.67 81.4101C23.7152 81.452 23.7554 81.499 23.79 81.5501V81.6L23.85 81.7L23.95 81.9001C23.9805 81.9479 24.0073 81.998 24.03 82.0501C24.0805 82.1758 24.1173 82.3065 24.14 82.4401V82.3701C24.1442 82.4575 24.1757 82.5414 24.23 82.6101C24.2692 82.6517 24.3178 82.6834 24.3717 82.7025C24.4256 82.7217 24.4833 82.7277 24.54 82.7201Z" fill="#92DD78"/>
<path d="M31.07 18.71C31.37 18.46 31.07 17.97 30.69 18.07C30.1929 18.2427 29.7244 18.4888 29.3 18.8C28.8744 19.1054 28.4701 19.4396 28.09 19.8C27.7043 20.1332 27.3403 20.4906 27 20.87C26.8256 21.0781 26.662 21.2951 26.51 21.52C26.37 21.75 26.28 21.97 26.16 22.21C26.04 22.45 26.41 22.9 26.67 22.6C26.93 22.3 27.01 22.25 27.17 22.07L27.65 21.52C28.2728 20.796 28.9852 20.1542 29.77 19.61C30.23 19.31 30.68 19 31.07 18.71Z" fill="#92DD78"/>
<path d="M29.54 22C29.66 21.88 29.79 21.77 29.9 21.65L30.26 21.3L30.63 20.98L30.74 20.9C30.8276 20.8389 30.9111 20.7721 30.99 20.7C31.0463 20.6346 31.0773 20.5512 31.0773 20.465C31.0773 20.3787 31.0463 20.2953 30.99 20.23C30.9364 20.1601 30.8596 20.1116 30.7734 20.0933C30.6873 20.075 30.5974 20.088 30.52 20.13C30.3533 20.225 30.196 20.3355 30.05 20.46L29.65 20.8C29.53 20.91 29.41 21.03 29.3 21.15C29.1667 21.2972 29.0494 21.4581 28.95 21.63C28.9078 21.6981 28.8937 21.7798 28.9104 21.8581C28.9272 21.9364 28.9736 22.0052 29.04 22.05C29.0744 22.0831 29.1157 22.1083 29.1608 22.124C29.206 22.1396 29.254 22.1452 29.3015 22.1405C29.3491 22.1357 29.395 22.1207 29.4362 22.0964C29.4774 22.0722 29.5128 22.0393 29.54 22Z" fill="#92DD78"/>
<path d="M31 22.61L31.15 22.47L31.3 22.37C31.353 22.3422 31.4005 22.305 31.44 22.26L31.53 22.18C31.63 22.06 31.73 21.95 31.84 21.84C31.9002 21.7748 31.9325 21.6887 31.93 21.6C31.931 21.5577 31.9235 21.5155 31.9081 21.476C31.8926 21.4365 31.8695 21.4005 31.84 21.37C31.7763 21.3065 31.69 21.2709 31.6 21.2709C31.51 21.2709 31.4237 21.3065 31.36 21.37L31.03 21.68L30.94 21.75L30.83 21.9L30.73 22.05L30.59 22.2C30.5388 22.2581 30.5104 22.3327 30.51 22.41C30.5119 22.4659 30.5299 22.5201 30.5619 22.566C30.5939 22.6119 30.6385 22.6476 30.6903 22.6687C30.742 22.6898 30.7988 22.6955 30.8538 22.6851C30.9088 22.6747 30.9595 22.6487 31 22.61Z" fill="#92DD78"/>
<path d="M102.62 61.5701C102.539 62.0663 102.492 62.5675 102.48 63.0701C102.476 63.1622 102.507 63.2525 102.566 63.3232C102.625 63.394 102.708 63.4402 102.8 63.4527C102.891 63.4652 102.984 63.4432 103.06 63.3909C103.135 63.3386 103.189 63.2599 103.21 63.1701C103.37 62.651 103.461 62.113 103.48 61.5701C103.48 61.0701 103.54 60.5701 103.54 60.0601C103.535 59.0197 103.435 57.9821 103.24 56.9601C103.24 56.6501 102.67 56.7201 102.69 57.0301C102.76 58.0301 102.75 59.0301 102.69 60.0301C102.71 60.5601 102.67 61.0701 102.62 61.5701Z" fill="#92DD78"/>
<path d="M101.15 59C101.03 59.51 100.95 60 100.87 60.54C100.82 60.81 100.79 61.08 100.76 61.36C100.72 61.6352 100.72 61.9148 100.76 62.19C100.78 62.2536 100.818 62.3102 100.87 62.3529C100.921 62.3956 100.983 62.4228 101.049 62.4312C101.116 62.4396 101.183 62.4289 101.243 62.4003C101.304 62.3718 101.355 62.3266 101.39 62.27C101.492 62.0047 101.55 61.7242 101.56 61.44C101.56 61.18 101.64 60.91 101.66 60.64C101.71 60.12 101.75 59.64 101.76 59.07C101.769 58.9891 101.746 58.9079 101.695 58.8441C101.645 58.7804 101.571 58.7393 101.49 58.73C101.409 58.7207 101.328 58.744 101.264 58.7946C101.2 58.8452 101.159 58.9191 101.15 59Z" fill="#92DD78"/>
<path d="M99.75 59.76C99.6766 59.7625 99.6068 59.7928 99.5548 59.8448C99.5028 59.8968 99.4725 59.9665 99.47 60.04L99.27 61.65C99.27 61.7279 99.3002 61.8027 99.3543 61.8587C99.4084 61.9147 99.4822 61.9474 99.56 61.95C99.6388 61.9475 99.7137 61.9151 99.7694 61.8594C99.8251 61.8036 99.8575 61.7288 99.86 61.65L100 60C99.9931 59.937 99.9643 59.8785 99.9186 59.8346C99.8729 59.7907 99.8132 59.7643 99.75 59.76Z" fill="#92DD78"/>
<path d="M83.53 20.0001C82.0326 18.8873 80.4201 17.9385 78.72 17.1701C78.6445 17.1399 78.5606 17.1379 78.4837 17.1643C78.4068 17.1907 78.3418 17.2438 78.3007 17.3139C78.2596 17.3841 78.245 17.4667 78.2595 17.5467C78.2741 17.6267 78.3168 17.6989 78.38 17.7501C79.8775 18.728 81.3013 19.8142 82.64 21.0001C83.99 22.1801 85.38 23.3301 86.64 24.5501C86.96 24.8501 87.54 24.4501 87.28 24.0601C86.2513 22.518 84.9857 21.1479 83.53 20.0001Z" fill="#92DD78"/>
<path d="M82.9101 24.4001C83.0989 24.5989 83.3029 24.7827 83.5201 24.9501C83.5884 24.9876 83.6663 25.0044 83.7441 24.9982C83.8219 24.9921 83.8962 24.9633 83.9578 24.9155C84.0194 24.8677 84.0658 24.8029 84.091 24.7291C84.1163 24.6552 84.1194 24.5756 84.1001 24.5001C83.8863 23.9845 83.5738 23.5157 83.1801 23.1201C82.8422 22.7227 82.4781 22.3486 82.0901 22.0001C81.3069 21.2802 80.4486 20.6466 79.5301 20.1101C79.4673 20.0766 79.3947 20.0665 79.3252 20.0815C79.2557 20.0966 79.1938 20.1358 79.1506 20.1923C79.1073 20.2487 79.0856 20.3187 79.0891 20.3898C79.0927 20.4608 79.1214 20.5282 79.1701 20.5801C79.9201 21.2801 80.6701 21.9801 81.3701 22.7201C81.7201 23.0901 82.0701 23.4601 82.3701 23.8401C82.5801 24.0001 82.7301 24.2201 82.9101 24.4001Z" fill="#92DD78"/>
<path d="M81.06 25.05L81.17 25.2C81.2483 25.3409 81.3386 25.4747 81.44 25.6C81.4832 25.6443 81.5387 25.6746 81.5993 25.6871C81.6598 25.6995 81.7228 25.6936 81.78 25.67C81.838 25.6466 81.8879 25.6066 81.9235 25.555C81.959 25.5035 81.9787 25.4426 81.98 25.38C81.9486 25.2012 81.8878 25.0289 81.8 24.87C81.74 24.74 81.67 24.61 81.6 24.49C81.4307 24.2349 81.2328 24 81.01 23.79C80.5848 23.3655 80.0825 23.0261 79.53 22.79C79.498 22.7703 79.4623 22.7573 79.4252 22.7517C79.3881 22.7461 79.3501 22.748 79.3138 22.7573C79.2774 22.7666 79.2432 22.7832 79.2134 22.806C79.1835 22.8288 79.1586 22.8574 79.14 22.89C79.1029 22.9553 79.0926 23.0325 79.1113 23.1052C79.1299 23.1779 79.1761 23.2406 79.24 23.28C79.6952 23.5536 80.1093 23.8902 80.47 24.28L80.73 24.59C80.7269 24.6166 80.7269 24.6434 80.73 24.67L80.89 24.88L81 25L81.06 25.05Z" fill="#92DD78"/>
<path d="M78.93 25.0901L79.15 25.3101L79.24 25.4301L79.29 25.4801C79.2869 25.5067 79.2869 25.5335 79.29 25.5601L79.5 25.7701L79.6 25.8901V25.9501L79.69 26.0701V26.1301L79.75 26.2101V26.2801L79.84 26.4101C79.8631 26.4523 79.8899 26.4925 79.92 26.5301C79.9425 26.578 79.977 26.6193 80.02 26.6501V26.7101C80.0501 26.7558 80.0836 26.7992 80.12 26.8401C80.1626 26.914 80.2308 26.9698 80.3117 26.997C80.3926 27.0241 80.4806 27.0208 80.5592 26.9877C80.6378 26.9545 80.7016 26.8938 80.7386 26.8169C80.7756 26.74 80.7832 26.6522 80.76 26.5701C80.7473 26.4614 80.7239 26.3542 80.69 26.2501C80.7004 26.1805 80.7004 26.1097 80.69 26.0401L80.59 25.8501C80.4733 25.6323 80.3287 25.4306 80.16 25.2501C79.995 25.0606 79.8069 24.8926 79.6 24.7501C79.3973 24.6314 79.1828 24.5343 78.96 24.4601C78.94 24.4701 78.72 24.8901 78.93 25.0901Z" fill="#92DD78"/>
<path d="M68.17 20.94L68.47 21.17C68.6926 21.3057 68.9493 21.3751 69.21 21.37C69.5836 21.3488 69.9377 21.1965 70.21 20.94C70.348 20.8111 70.4512 20.6495 70.51 20.47C70.6044 20.2954 70.6494 20.0983 70.64 19.9C70.64 19.77 70.64 19.64 70.59 19.51C70.5216 19.2671 70.3906 19.0464 70.21 18.87L69.91 18.64C69.6856 18.5073 69.4307 18.435 69.17 18.43C68.9724 18.4277 68.7771 18.4722 68.6 18.56C68.4169 18.6162 68.2538 18.7238 68.13 18.87C67.9875 18.9951 67.8834 19.1581 67.83 19.34C67.7328 19.5099 67.6876 19.7047 67.7 19.9C67.7 20.03 67.7 20.16 67.75 20.29C67.8294 20.5403 67.9745 20.7648 68.17 20.94Z" fill="#92DD78"/>
<path d="M69.49 15.56C69.49 15.56 69.49 15.56 69.49 15.61C69.5415 15.7948 69.6337 15.9657 69.7601 16.11C69.792 16.1716 69.8363 16.2261 69.8901 16.27C70.0326 16.4246 70.2112 16.5415 70.4101 16.61C70.604 16.7115 70.8214 16.7598 71.0401 16.75C71.2555 16.7599 71.4697 16.7115 71.6601 16.61C71.8617 16.5414 72.0437 16.4247 72.1901 16.27L72.4401 15.94C72.5883 15.6925 72.6645 15.4085 72.6601 15.12L72.6 14.69C72.5296 14.4208 72.388 14.1756 72.1901 13.98C72.0917 13.8795 71.9807 13.7922 71.8601 13.72L71.4701 13.56C71.1855 13.4802 70.8846 13.4802 70.6 13.56C70.4609 13.602 70.3268 13.659 70.2 13.73C70.0741 13.7987 69.9594 13.8864 69.8601 13.99L69.6201 14.3C69.5082 14.4776 69.4428 14.6805 69.4301 14.89C69.4017 15.0252 69.4017 15.1648 69.4301 15.3C69.4334 15.36 69.4334 15.42 69.4301 15.48L69.49 15.56Z" fill="#92DD78"/>
<path d="M74.3501 18.31C74.2958 18.2291 74.2356 18.1522 74.1701 18.08C74.0318 17.9439 73.8602 17.8464 73.6724 17.7973C73.4847 17.7481 73.2873 17.7491 73.1001 17.8C72.9189 17.8512 72.7537 17.9475 72.6201 18.08C72.5869 18.1176 72.5568 18.1577 72.5301 18.2C72.4397 18.2899 72.3713 18.3994 72.3301 18.52C72.2622 18.6602 72.2279 18.8143 72.2301 18.97V19.28C72.2882 19.4714 72.391 19.6463 72.5301 19.79C72.5956 19.863 72.6735 19.9239 72.7601 19.97C72.8382 19.9914 72.9191 20.0015 73.0001 20C73.2037 20.05 73.4164 20.05 73.6201 20C73.8126 19.9446 73.988 19.8414 74.1301 19.7C74.276 19.5616 74.38 19.3848 74.4301 19.19C74.4901 18.9877 74.4901 18.7723 74.4301 18.57C74.4114 18.4811 74.3847 18.3941 74.3501 18.31Z" fill="#92DD78"/>
<path d="M61.4301 18.41L61.6701 18.59C61.852 18.6964 62.0593 18.7517 62.2701 18.75C62.4299 18.7635 62.5902 18.7287 62.7301 18.65C62.8769 18.6012 63.0104 18.5191 63.1201 18.41C63.2331 18.3034 63.3159 18.1689 63.3601 18.02C63.4371 17.8792 63.4751 17.7204 63.4701 17.56C63.4701 17.46 63.4701 17.35 63.4701 17.24C63.4202 17.0422 63.3163 16.8622 63.1701 16.72L62.9301 16.53C62.745 16.4223 62.5341 16.367 62.3201 16.37C62.0064 16.3789 61.7072 16.5036 61.4801 16.72C61.3626 16.8205 61.2759 16.9523 61.2301 17.1C61.157 17.2419 61.1225 17.4005 61.1301 17.56V17.88C61.1844 18.0788 61.2876 18.261 61.4301 18.41Z" fill="#92DD78"/>
<path d="M38.61 27.85H38.67C38.8667 27.967 39.0911 28.0292 39.32 28.03C39.5493 28.0323 39.7746 27.9699 39.97 27.85C40.1635 27.7395 40.3253 27.5811 40.44 27.39C40.5512 27.1914 40.6096 26.9676 40.6096 26.74C40.6096 26.5124 40.5512 26.2886 40.44 26.09C40.3253 25.8989 40.1635 25.7405 39.97 25.63C39.7746 25.5101 39.5493 25.4477 39.32 25.45C39.0911 25.4508 38.8667 25.513 38.67 25.63H38.61C38.427 25.7429 38.2729 25.897 38.16 26.08C38.0484 26.2712 37.9896 26.4886 37.9896 26.71C37.9896 26.9314 38.0484 27.1488 38.16 27.34C38.2651 27.5449 38.4198 27.7202 38.61 27.85Z" fill="#92DD78"/>
<path d="M40.2 22.5201C40.3681 22.6246 40.562 22.6801 40.76 22.6801C40.9579 22.6801 41.1519 22.6246 41.32 22.5201C41.4911 22.4273 41.633 22.2888 41.73 22.1201C41.8283 21.9498 41.88 21.7567 41.88 21.5601C41.88 21.3635 41.8283 21.1703 41.73 21.0001V20.9501C41.6317 20.7918 41.4983 20.6583 41.34 20.5601C41.1738 20.4608 40.9836 20.4089 40.79 20.4101C40.5965 20.4099 40.4066 20.4617 40.24 20.5601C40.0817 20.6583 39.9482 20.7918 39.85 20.9501V21.0001C39.7497 21.1696 39.6968 21.363 39.6968 21.5601C39.6968 21.7571 39.7497 21.9505 39.85 22.1201C39.9284 22.2825 40.0494 22.4207 40.2 22.5201Z" fill="#92DD78"/>
<path d="M42.63 24.58C42.5719 24.4754 42.4896 24.3863 42.39 24.32C42.3125 24.258 42.2244 24.2105 42.13 24.18C42.0361 24.1356 41.9339 24.1117 41.83 24.11C41.7399 24.1095 41.6508 24.1301 41.57 24.17C41.4983 24.1818 41.4301 24.2091 41.37 24.25C41.2307 24.334 41.114 24.4507 41.03 24.59V24.64C40.9416 24.7879 40.8966 24.9577 40.9 25.13C40.8917 25.2584 40.9194 25.3865 40.98 25.5C41.0213 25.6177 41.0898 25.7239 41.18 25.81C41.3 25.9282 41.4479 26.0142 41.61 26.06C41.7777 26.0999 41.9524 26.0999 42.12 26.06C42.2821 26.0142 42.43 25.9282 42.55 25.81C42.6402 25.7239 42.7087 25.6177 42.75 25.5C42.8107 25.3865 42.8384 25.2584 42.83 25.13C42.8334 24.9577 42.7884 24.7879 42.7 24.64V24.59L42.63 24.58Z" fill="#92DD78"/>
<path d="M49.64 61.76C49.8796 61.6952 50.0979 61.5688 50.2734 61.3933C50.4488 61.2179 50.5753 60.9995 50.64 60.76C50.7098 60.5148 50.7098 60.2551 50.64 60.01C50.5726 59.7747 50.4451 59.561 50.27 59.39C50.1026 59.2125 49.8872 59.0874 49.65 59.03C49.4049 58.9602 49.1452 58.9602 48.9 59.03C48.6629 59.0874 48.4475 59.2125 48.28 59.39C48.105 59.561 47.9775 59.7747 47.91 60.01V60.07C47.84 60.3117 47.84 60.5683 47.91 60.81C47.9803 61.0388 48.1037 61.2478 48.27 61.42C48.4433 61.5904 48.6582 61.7123 48.8934 61.7738C49.1285 61.8352 49.3756 61.8339 49.61 61.77L49.64 61.76Z" fill="#92DD78"/>
<path d="M51.8701 56.6401C51.7767 56.8295 51.732 57.0391 51.7401 57.2501L51.8001 57.6601C51.8647 57.9236 52.0035 58.163 52.2001 58.3501L52.5101 58.6001C52.7504 58.7382 53.0229 58.8106 53.3001 58.8101C53.5114 58.8233 53.7224 58.7783 53.9101 58.6801C54.1023 58.6149 54.2746 58.5013 54.4101 58.3501C54.5578 58.2116 54.6708 58.0403 54.7401 57.8501C54.8326 57.664 54.8773 57.4578 54.8701 57.2501L54.8101 56.8301C54.741 56.5684 54.6028 56.3301 54.4101 56.1401L54.0901 55.9001C53.8534 55.7523 53.5791 55.6759 53.3001 55.6801C52.8916 55.7032 52.5034 55.8656 52.2001 56.1401C52.0523 56.2786 51.9393 56.4498 51.8701 56.6401Z" fill="#92DD78"/>
<path d="M54.25 63.72C54.4201 63.7117 54.5854 63.6601 54.73 63.57C54.9088 63.4628 55.0569 63.3113 55.16 63.13C55.2706 62.9421 55.3293 62.7281 55.33 62.51C55.3294 62.2951 55.2707 62.0843 55.16 61.9C55.0597 61.7167 54.9109 61.5645 54.73 61.46L54.42 61.33H54.07C53.8999 61.3244 53.7313 61.3623 53.58 61.44C53.4214 61.4912 53.2797 61.5845 53.17 61.71C53.0473 61.8221 52.9545 61.963 52.9 62.12C52.8222 62.2713 52.7844 62.44 52.79 62.61L52.84 62.95C52.8975 63.1659 53.0114 63.3626 53.17 63.52L53.43 63.72C53.6251 63.831 53.8455 63.8895 54.07 63.89L54.25 63.72Z" fill="#92DD78"/>
<path d="M21.67 75.7801C21.6716 75.8883 21.699 75.9946 21.75 76.0901C21.7707 76.1968 21.8114 76.2986 21.87 76.3901C21.931 76.4809 21.9979 76.5678 22.07 76.6501L22.33 76.8501H22.42L22.69 76.9601C22.8332 77.0053 22.9868 77.0053 23.13 76.9601C23.2279 76.9621 23.3246 76.9379 23.41 76.8901C23.5433 76.8423 23.6633 76.7635 23.76 76.6601L23.89 76.4901C23.9702 76.3999 24.0314 76.2944 24.07 76.1801C24.1286 76.0836 24.1597 75.9729 24.16 75.8601C24.2041 75.6929 24.2041 75.5172 24.16 75.3501C24.0966 75.1315 23.9798 74.9322 23.82 74.7701C23.7748 74.7215 23.7245 74.6779 23.67 74.6401L23.51 74.5201L23.21 74.4001C23.0524 74.3611 22.8876 74.3611 22.73 74.4001C22.6208 74.404 22.5143 74.4349 22.42 74.4901C22.2676 74.5381 22.1299 74.6241 22.02 74.7401C21.96 74.8201 21.9 74.9101 21.83 74.9901L21.71 75.2801C21.6501 75.4397 21.6362 75.613 21.67 75.7801Z" fill="#92DD78"/>
<path d="M68.74 94.8301L68.51 94.5401L68.2 94.3001L67.85 94.1501H67.79C67.5999 94.1 67.4001 94.1 67.21 94.1501C67.0184 94.1591 66.8323 94.2177 66.67 94.32C66.5021 94.4081 66.3606 94.5393 66.26 94.7C66.1289 94.8356 66.0387 95.0055 66 95.1901C66 95.3201 66 95.4501 65.95 95.5801C65.9475 95.8391 66.013 96.0943 66.14 96.32L66.37 96.6101C66.4654 96.7041 66.5731 96.7848 66.69 96.85C66.7699 96.9242 66.8657 96.9789 66.97 97.0101C67.0833 97.0733 67.2103 97.1076 67.34 97.1101C67.4683 97.1399 67.6017 97.1399 67.73 97.1101C67.8599 97.1089 67.9873 97.0744 68.1 97.0101C68.1661 97.0001 68.2284 96.9725 68.28 96.9301L68.58 96.71L68.8 96.4101L68.95 96.06V95.67C68.95 95.67 68.95 95.3 68.95 95.27L68.74 94.8301Z" fill="#92DD78"/>
<path d="M65.18 90.51C65.0739 90.51 64.9722 90.5522 64.8972 90.6272C64.8222 90.7022 64.78 90.8039 64.78 90.91C64.78 91.0161 64.8222 91.1178 64.8972 91.1928C64.9722 91.2679 65.0739 91.31 65.18 91.31C65.2861 91.31 65.3879 91.2679 65.4629 91.1928C65.5379 91.1178 65.58 91.0161 65.58 90.91C65.58 90.8039 65.5379 90.7022 65.4629 90.6272C65.3879 90.5522 65.2861 90.51 65.18 90.51Z" fill="#92DD78"/>
<path d="M70.56 92.0001L70.35 91.8401C70.1946 91.752 70.0185 91.7071 69.84 91.7101C69.7051 91.7006 69.5702 91.7283 69.45 91.7901C69.3259 91.835 69.2132 91.9066 69.1199 92C69.0265 92.0933 68.9549 92.206 68.91 92.3301C68.8497 92.4512 68.8189 92.5848 68.82 92.7201V92.9901C68.8705 93.1582 68.9595 93.3123 69.08 93.4401L69.29 93.6001C69.4443 93.6917 69.6205 93.74 69.8 93.7401C69.9352 93.7412 70.0689 93.7103 70.19 93.6501C70.3141 93.6052 70.4268 93.5335 70.5201 93.4402C70.6134 93.3469 70.6851 93.2342 70.73 93.1101C70.7902 92.989 70.8211 92.8553 70.82 92.7201C70.8151 92.6301 70.8151 92.54 70.82 92.4501C70.7745 92.2798 70.6848 92.1245 70.56 92.0001Z" fill="#92DD78"/>
<path d="M92.62 58.65C92.7019 58.5002 92.74 58.3304 92.73 58.16V57.83C92.69 57.6699 92.611 57.5222 92.5 57.4C92.414 57.264 92.2932 57.1535 92.15 57.08L91.85 56.95C91.6847 56.92 91.5153 56.92 91.35 56.95H91.19H90.9L90.64 57.06L90.43 57.23C90.3243 57.3248 90.2451 57.4454 90.2 57.58C90.1515 57.6615 90.1272 57.7552 90.13 57.85C90.1002 57.9409 90.1002 58.039 90.13 58.13C90.128 58.2279 90.1522 58.3246 90.2 58.41C90.2449 58.5205 90.3093 58.6221 90.39 58.71V58.79C90.4635 58.9332 90.574 59.054 90.71 59.14C90.8322 59.251 90.9799 59.33 91.14 59.37H91.47C91.6404 59.38 91.8102 59.3419 91.96 59.26C92.11 59.2022 92.2463 59.1136 92.36 59C92.4737 58.8863 92.5622 58.75 92.62 58.6V58.65Z" fill="#92DD78"/>
<path d="M95.78 56.2601C96.0703 56.2331 96.3402 56.0987 96.5366 55.8832C96.733 55.6677 96.8419 55.3867 96.8419 55.0951C96.8419 54.8035 96.733 54.5224 96.5366 54.3069C96.3402 54.0914 96.0703 53.957 95.78 53.9301C95.4896 53.957 95.2198 54.0914 95.0233 54.3069C94.8269 54.5224 94.718 54.8035 94.718 55.0951C94.718 55.3867 94.8269 55.6677 95.0233 55.8832C95.2198 56.0987 95.4896 56.2331 95.78 56.2601Z" fill="#92DD78"/>
</g>
<defs>
<clipPath id="clip0_864_1462">
<rect width="114.38" height="117.37" fill="white"/>
</clipPath>
</defs>
</svg>
