<svg width="104" height="106" viewBox="0 0 104 106" fill="none" xmlns="http://www.w3.org/2000/svg">
<g clip-path="url(#clip0_847_1753)">
<path d="M93.2466 17.0886C95.1882 14.5756 97.4036 12.4898 99.3452 10.0772C101.664 7.50556 103.262 4.35685 103.975 0.9549C104.125 0.175857 103.054 -0.427272 102.631 0.376901C99.7186 5.85533 94.0431 8.9715 88.4424 11.0071C85.6296 12.0123 82.7172 12.7913 79.8048 13.5201C77.1077 14.0648 74.4781 14.9076 71.9637 16.0331C69.7327 17.1938 67.8439 18.9274 66.4874 21.0592C66.3629 19.831 66.3629 18.5932 66.4874 17.365C66.6997 15.4392 67.2034 13.5577 67.9809 11.7861C68.7533 10.0655 69.8923 8.53812 71.3165 7.31289C72.586 6.20715 74.2787 5.55376 74.9508 3.89516C74.9906 3.74886 74.9857 3.59385 74.9369 3.45038C74.888 3.3069 74.7974 3.18165 74.6769 3.09098C71.9785 2.08124 68.9967 2.17137 66.3629 3.34229C63.4115 4.13844 60.5307 5.18075 57.7502 6.45846C54.8651 7.82277 52.2436 9.6949 50.0087 11.9871C48.1743 14.0889 46.7775 16.5417 45.9015 19.1996C45.4063 20.6131 44.8328 21.9974 44.1839 23.3461C43.8418 24.0171 43.4059 24.6349 42.8895 25.1806C43.3036 23.792 43.5461 22.3571 43.6114 20.9084C43.7248 19.8719 43.6336 18.823 43.3431 17.8222C43.0526 16.8215 42.5684 15.8889 41.9187 15.0782C41.8267 14.9857 41.7123 14.9191 41.587 14.8848C41.4617 14.8506 41.3297 14.8499 41.204 14.8829C41.0784 14.9159 40.9634 14.9814 40.8705 15.0729C40.7775 15.1645 40.7098 15.2789 40.6741 15.4049C39.1805 22.944 31.4639 26.7387 25.3653 30.1815C22.0199 31.939 18.8447 34.0087 15.8814 36.3636C15.1844 36.95 14.5123 37.5531 13.8651 38.173C9.68005 41.5387 6.23774 45.7501 3.7588 50.5372C1.24263 55.6882 -0.0432259 61.3627 0.00432409 67.1058C0.0518741 72.8489 1.4315 78.5009 4.03262 83.6088C6.65953 88.6978 10.5329 93.0235 15.2839 96.174C20.1325 99.2752 25.4324 101.59 30.991 103.035C43.3183 106.59 56.3393 106.919 68.8273 103.99C71.8941 103.322 74.8937 102.371 77.7885 101.15C80.3186 100.01 82.6942 98.5492 84.8579 96.8022C89.4046 93.4049 92.8033 88.675 94.5908 83.2569C94.9699 81.9629 95.2118 80.6319 95.3127 79.2863C95.3127 78.6832 94.6655 78.4068 94.1925 78.6329C92.5463 79.5606 90.8117 80.3183 89.0149 80.8947C88.3157 81.1078 87.5994 81.2592 86.8742 81.347C91.4168 78.8033 95.0034 74.8203 97.08 70.0132C98.4139 67.2384 99.4085 64.3102 100.042 61.293C100.854 57.9062 101.073 54.4022 100.689 50.9393C99.8927 46.4728 98.8623 42.052 97.6027 37.6955C97.5606 37.5347 97.4669 37.3926 97.3363 37.2911C97.2058 37.1897 97.0456 37.1347 96.8809 37.1347C96.7161 37.1347 96.556 37.1897 96.4254 37.2911C96.2949 37.3926 96.2012 37.5347 96.159 37.6955C95.318 40.194 94.1367 42.5622 92.6492 44.732C91.8968 45.935 91.0116 47.0479 90.0106 48.0493C89.5325 48.5576 88.9676 48.9747 88.3428 49.2806C89.2324 45.7358 89.5932 42.0767 89.4132 38.4243C88.655 34.4171 88.4789 30.3197 88.8904 26.2612C89.5039 22.8654 91.0082 19.6979 93.2466 17.0886Z" fill="#92DD78"/>
<path d="M87.7703 24.2257C87.011 28.2016 87.011 32.2873 87.7703 36.2632C88.1434 38.5808 88.2187 40.9374 87.9943 43.2746C87.7205 45.5112 87.1729 47.7478 86.8244 49.9844C86.7942 50.0945 86.7891 50.2101 86.8096 50.3225C86.8302 50.4348 86.8757 50.541 86.9428 50.633C87.01 50.725 87.0969 50.8003 87.1972 50.8534C87.2974 50.9065 87.4083 50.9359 87.5214 50.9393C90.3093 50.9393 92.4998 47.8483 93.7942 45.7876C94.9538 44.0307 95.9378 42.1619 96.7315 40.2087C97.5281 43.1992 98.4491 46.1646 98.9967 49.2305C99.6313 52.6435 99.6313 56.146 98.9967 59.5591C98.0541 65.3845 95.5878 70.8501 91.8526 75.3912C89.7934 77.8259 87.1303 79.6645 84.136 80.7188H83.7627C83.6636 80.7153 83.565 80.7324 83.4728 80.7691C83.3806 80.8057 83.2969 80.8611 83.2269 80.9319C83.1568 81.0026 83.1019 81.0871 83.0656 81.1801C83.0293 81.2732 83.0124 81.3728 83.0159 81.4728C83.0035 81.6453 83.057 81.8161 83.1652 81.9502C83.3395 82.2015 83.1652 82.2015 83.1652 81.7995C83.1715 81.9974 83.2521 82.1855 83.3909 82.3256C83.5296 82.4656 83.7159 82.5471 83.912 82.5534H84.1609L84.6837 82.7544C85.146 82.8788 85.6247 82.9297 86.1025 82.9052C87.1769 82.8726 88.2412 82.6865 89.2638 82.3523C90.7295 81.9096 92.1538 81.3377 93.5204 80.6435C92.5276 85.5343 90.0579 89.9943 86.451 93.4097C84.5316 95.3444 82.3829 97.0326 80.0537 98.4358C77.6906 99.7719 75.1855 100.834 72.586 101.602C60.4413 105.202 47.5842 105.591 35.2476 102.733C24.8924 100.22 13.7655 95.4955 7.46777 86.3983C4.36676 81.7818 2.39743 76.4871 1.72226 70.9511C1.04708 65.415 1.6854 59.7961 3.58457 54.5581C3.93306 53.6283 4.33134 52.7236 4.75451 51.844C5.10533 50.8418 5.52967 49.8674 6.02401 48.9289C8.84581 43.9808 12.7441 39.7444 17.4247 36.5396C21.6692 33.4782 26.2054 30.8517 30.9661 28.6989C32.3352 27.8696 33.6545 27.0152 34.9489 26.1859C37.7984 24.2374 40.0493 21.5209 41.4457 18.3452L41.7445 17.4908C42.1389 18.6791 42.2913 19.9357 42.1925 21.185C42.1088 23.0399 41.6603 24.8595 40.8732 26.5377C40.81 26.6683 40.7842 26.8142 40.7988 26.9589C40.8134 27.1035 40.8678 27.2412 40.9559 27.3562C41.0439 27.4713 41.1621 27.5592 41.2971 27.6099C41.4321 27.6607 41.5784 27.6723 41.7196 27.6435C44.2088 27.1157 45.553 24.4519 46.4242 22.2656C47.2327 19.679 48.3091 17.1857 49.6353 14.827C51.4355 12.3484 53.767 10.3125 56.4558 8.87106C59.165 7.31718 62.0592 6.11802 65.0685 5.30254C66.5372 4.87532 68.0058 4.37272 69.4994 4.07115C70.7177 3.76974 71.99 3.76974 73.2083 4.07115C72.7827 4.49781 72.3061 4.86925 71.7895 5.17689C71.034 5.68167 70.3183 6.24459 69.6487 6.86063C68.2463 8.29434 67.153 10.0056 66.4376 11.8867C64.8466 15.5312 64.4965 19.6051 65.4419 23.4718C65.6162 24.0498 66.5123 24.276 66.7861 23.6477C67.9692 21.0801 69.9307 18.959 72.3869 17.5913C74.818 16.4291 77.386 15.5846 80.0288 15.0783C86.0454 13.89 91.8137 11.6626 97.08 8.4941C98.4684 7.57237 99.761 6.51152 100.938 5.32767C98.4744 9.01068 95.6832 12.4594 92.5994 15.6311C90.3689 18.0921 88.7181 21.0302 87.7703 24.2257Z" fill="#282C33"/>
<path d="M18.4203 37.4946C13.1564 41.7086 9.05822 47.2223 6.52179 53.5026C3.93869 59.7216 3.12826 66.5456 4.18192 73.2049C4.76626 77.3877 6.20745 81.4017 8.41361 84.991C8.93634 85.7952 10.2307 84.991 9.68311 84.212C7.79632 81.1315 6.49621 77.7223 5.8497 74.1598C5.21085 70.9858 5.04306 67.7336 5.35185 64.5097C5.98084 58.0267 8.28087 51.823 12.023 46.5164C14.1221 43.5288 16.6372 40.8626 19.4907 38.6003C20.2126 37.972 19.1671 36.8914 18.4203 37.4946Z" fill="#92DD78"/>
<path d="M12.4462 52.0451C12.9441 51.2158 11.6497 50.4619 11.1518 51.2912C8.88667 55.2499 7.62942 59.7139 7.49264 64.2836C7.08084 68.6264 7.77487 73.0035 9.50891 76.9996C9.93208 77.854 11.2265 76.9996 10.8033 76.2456C9.2102 72.4762 8.58519 68.3618 8.98618 64.2836C9.11053 59.9766 10.3 55.7694 12.4462 52.0451Z" fill="#92DD78"/>
<path d="M78.8339 93.8369C76.9678 95.3567 74.8047 96.4614 72.4864 97.0787C69.8755 98.0782 67.2072 98.9174 64.4959 99.5918C58.8526 100.904 53.0447 101.345 47.2705 100.899C44.0255 100.639 40.8148 100.049 37.6869 99.1394C37.5215 99.1325 37.3587 99.1832 37.2258 99.283C37.093 99.3829 36.9982 99.5258 36.9574 99.6878C36.9165 99.8498 36.9321 100.021 37.0015 100.173C37.0709 100.325 37.1898 100.448 37.3385 100.522C43.1069 102.2 49.1235 102.838 55.1116 102.406C58.0997 102.232 61.0704 101.829 63.9981 101.2C66.8541 100.549 69.6647 99.7099 72.4117 98.6871C75.1409 97.9624 77.6864 96.6604 79.8794 94.8673C80.5764 94.2139 79.506 93.1584 78.8339 93.8369Z" fill="#92DD78"/>
<path d="M69.6985 91.9521C67.0309 93.7966 63.952 94.945 60.7373 95.2944C58.7848 95.8143 56.8075 96.2337 54.8129 96.5509C52.9155 97.0119 50.955 97.1479 49.013 96.953C48.0671 96.7771 47.6688 98.2096 48.6147 98.4106C50.6721 98.6227 52.7501 98.4868 54.7631 98.0085C56.9038 97.7069 58.9948 97.2043 61.0858 96.7017C64.5689 96.2912 67.8963 95.0131 70.7689 92.9824C71.4658 92.3542 70.4204 91.2987 69.6985 91.9521Z" fill="#92DD78"/>
<path d="M85.8535 20.1043C84.4057 22.4327 83.3304 24.9769 82.6673 27.6434C82.4057 30.6029 82.4057 33.5801 82.6673 36.5396C82.6673 37.4945 84.136 37.4945 84.1608 36.5396C83.9118 33.7138 83.9118 30.8713 84.1608 28.0455C84.757 25.4802 85.7571 23.0281 87.123 20.7828C87.596 19.9284 86.3265 19.1745 85.8535 20.1043Z" fill="#92DD78"/>
<path d="M64.1973 9.04699C63.1853 10.5119 62.4588 12.1579 62.0566 13.8972C61.7007 15.6664 61.5421 17.4702 61.5836 19.2751C61.5836 19.475 61.6623 19.6668 61.8023 19.8082C61.9424 19.9495 62.1323 20.029 62.3304 20.029C62.5284 20.029 62.7184 19.9495 62.8584 19.8082C62.9985 19.6668 63.0772 19.475 63.0772 19.2751C63.0277 17.5889 63.1696 15.9025 63.5003 14.249C63.8733 12.6348 64.5492 11.1078 65.4917 9.75064C66.0393 8.99673 64.72 8.24281 64.1973 9.04699Z" fill="#92DD78"/>
<path d="M93.0972 63.7056C92.3255 65.138 91.8525 66.7212 91.2302 68.2039C90.7276 69.7036 89.7912 71.0166 88.5419 71.9735C87.7204 72.5012 88.5419 73.808 89.2886 73.2803C92.3255 71.295 92.7736 67.45 94.3916 64.4595C94.8396 63.6051 93.5452 62.826 93.0972 63.7056Z" fill="#92DD78"/>
<path d="M75.5481 64.8616C75.1359 61.7402 74.4188 58.6678 73.4074 55.689C72.3981 52.967 70.97 50.4227 69.1757 48.1499C67.4054 45.7726 65.3389 43.6356 63.0273 41.7919C60.8362 39.9678 58.2931 38.6241 55.5596 37.8464C52.5366 37.2304 49.4222 37.2304 46.3992 37.8464C44.9804 38.0726 43.5366 38.3993 42.1177 38.7008C40.6989 39.0024 39.4294 39.2788 38.1101 39.6809C36.9078 40.0163 35.7593 40.5241 34.6998 41.1887C29.89 43.9434 25.6616 47.6232 22.2537 52.0199C21.3078 53.2011 20.4117 54.4073 19.5404 55.6638C18.6151 56.8533 17.7828 58.1136 17.0512 59.4334C15.84 62.2804 15.6724 65.4697 16.5783 68.4301C17.325 71.7724 18.2958 75.0896 19.2168 78.4822C19.9722 81.4133 21.0405 84.2529 22.4031 86.9512C23.0155 88.2104 23.9637 89.2722 25.1412 90.0171C26.2224 90.6364 27.4161 91.0295 28.651 91.1731C31.6381 91.6254 34.6998 91.8013 37.7118 92.0024C40.7238 92.2034 44.3829 92.4799 47.6687 92.5301C50.4497 92.6024 53.2281 92.3067 55.933 91.6506C58.693 90.915 61.2482 89.5478 63.4007 87.6548C65.5735 85.5535 67.5331 83.2384 69.2503 80.744C70.1465 79.5126 71.0426 78.2309 72.0134 77.1001C72.9607 76.0134 73.8339 74.8632 74.6271 73.6572C75.9498 70.9261 76.2759 67.8115 75.5481 64.8616Z" fill="#92DD78"/>
<path d="M74.3533 69.6615C73.7823 72.3364 72.4193 74.7728 70.4452 76.6477C66.9851 81.0958 63.9483 86.4235 58.7707 89.0119C53.5931 91.6003 48.0919 91.148 42.7152 90.8464C39.4543 90.6705 36.1685 90.4946 32.9325 90.193C30.4632 90.2394 28.012 89.7599 25.7386 88.7857C23.3987 87.3784 22.6271 84.2622 21.955 81.7743C21.1086 78.6582 20.2125 75.5671 19.4658 72.4258C18.4665 69.5109 17.9044 66.4616 17.798 63.3789C18.2461 60.5689 19.4911 57.9503 21.3825 55.8398C24.5834 51.1255 28.6067 47.0382 33.2561 43.7772C33.8535 43.3751 34.4509 42.9981 35.0732 42.6463H35.2973C35.3972 42.6028 35.4897 42.5434 35.5711 42.4704L36.8904 41.7919C36.9479 41.8034 37.0071 41.8034 37.0646 41.7919C38.9048 41.0971 40.8047 40.5755 42.7401 40.2338C45.5423 39.5178 48.4137 39.1133 51.303 39.0275C54.0575 38.9887 56.7726 39.6913 59.169 41.0631C61.566 42.4583 63.7397 44.2122 65.6161 46.2651C67.5407 48.2327 69.2132 50.4362 70.5945 52.8241C71.9293 55.3595 72.8935 58.0767 73.4571 60.891C74.1718 63.7558 74.4736 66.7097 74.3533 69.6615Z" fill="#282C33"/>
<path d="M39.056 52.5476C37.8114 52.5476 36.5668 52.5476 35.2724 52.5476C35.3968 51.3741 35.252 50.1875 34.8492 49.0796C34.963 49.1131 35.0839 49.1131 35.1977 49.0796C36.6663 48.2001 38.0603 47.1697 39.6285 46.4158C39.7772 46.3113 39.8814 46.1542 39.9207 45.9757C39.9599 45.7972 39.9313 45.6103 39.8404 45.4521C39.7495 45.294 39.6031 45.176 39.4301 45.1218C39.2571 45.0676 39.0703 45.0809 38.9067 45.1593C37.3384 45.9132 35.9445 46.9435 34.4758 47.8231C34.3753 47.8871 34.2903 47.9729 34.2269 48.0744C32.3849 45.8881 29.2484 48.7781 27.7798 50.3864C27.1824 51.0901 28.1781 52.1204 28.7755 51.4167C29.3729 50.7131 32.1857 47.5215 33.3059 49.2555C33.9249 50.5158 34.1089 51.9487 33.8286 53.3267C33.6163 54.8435 33.1975 56.3234 32.584 57.7245C31.6481 59.9983 30.3904 62.123 28.8502 64.0322C27.6802 65.4395 25.3155 67.4499 23.8717 65.2385C23.2788 64.1314 23.119 62.84 23.4236 61.6197C23.5618 60.2846 23.9504 58.9883 24.5687 57.7999C24.6463 57.6346 24.6595 57.446 24.6058 57.2714C24.5521 57.0968 24.4353 56.9489 24.2786 56.8572C24.1219 56.7654 23.9368 56.7365 23.76 56.7761C23.5832 56.8158 23.4276 56.921 23.3241 57.0711C22.5609 58.2399 22.0587 59.5623 21.8524 60.9466C21.6461 62.3309 21.7405 63.7439 22.1292 65.0877C22.3368 65.6015 22.6507 66.0646 23.05 66.446C23.4492 66.8274 23.9246 67.1183 24.4442 67.2992C24.0536 68.4072 23.7376 69.5407 23.4983 70.6918C23.4124 70.8278 23.3611 70.9832 23.349 71.1441C23.3507 71.27 23.3846 71.3932 23.4475 71.5019C23.5104 71.6106 23.6002 71.7009 23.7079 71.7642C23.8157 71.8275 23.9379 71.8615 24.0626 71.8629C24.1872 71.8643 24.3102 71.8331 24.4193 71.7724C24.8425 71.5462 24.9172 70.9933 25.0168 70.5661C25.1163 70.1389 25.191 69.8122 25.2657 69.4352L25.5644 68.3546C25.5644 68.1536 25.6888 67.9777 25.7635 67.8018V67.852C25.768 67.7851 25.768 67.7179 25.7635 67.651C26.5337 67.5212 27.2604 67.2018 27.8794 66.7212C28.0196 67.1172 28.186 67.5034 28.3772 67.8772L28.5763 68.3295C28.5898 68.3958 28.5898 68.4642 28.5763 68.5305V68.7819C28.6238 68.8653 28.6883 68.9375 28.7656 68.9938C28.8428 69.0502 28.9311 69.0893 29.0244 69.1085C29.1697 69.1583 29.3272 69.1583 29.4725 69.1085C29.6667 69.052 29.8344 68.9272 29.9454 68.7567C29.9822 68.7257 30.0122 68.6874 30.0336 68.6442C30.055 68.6009 30.0674 68.5537 30.0699 68.5054C30.1069 68.418 30.1259 68.324 30.1259 68.229C30.1259 68.134 30.1069 68.0399 30.0699 67.9525C29.9757 67.8188 29.8464 67.7144 29.6965 67.651L29.2982 66.7463V66.5955C29.2842 66.4787 29.2842 66.3605 29.2982 66.2437V65.9421V65.7159C29.3099 65.6664 29.3099 65.6147 29.2982 65.5652C30.5275 64.2126 31.5585 62.6893 32.36 61.0417H32.6587H33.0819C33.2569 60.987 33.4069 60.8712 33.505 60.715C33.5306 60.6247 33.5306 60.5289 33.505 60.4386C33.5294 60.348 33.5294 60.2526 33.505 60.1621V59.9862C33.4417 59.8848 33.3566 59.7989 33.2561 59.7349H33.0819C33.0819 59.4836 33.3308 59.2574 33.4303 59.0061C34.1547 57.441 34.6976 55.7966 35.0483 54.1057C36.3676 54.1057 37.6869 54.1057 39.0062 54.1057C39.1977 54.1057 39.3813 54.0289 39.5167 53.8922C39.652 53.7556 39.7281 53.5702 39.7281 53.3769C39.7384 53.2778 39.7292 53.1776 39.7009 53.0822C39.6726 52.9867 39.6259 52.8979 39.5634 52.8207C39.5009 52.7436 39.4239 52.6798 39.3368 52.6329C39.2497 52.586 39.1543 52.557 39.056 52.5476Z" fill="#92DD78"/>
<path d="M64.9192 64.4092C64.3964 62.3988 62.43 59.9611 60.2643 61.2679C59.6232 61.2898 58.9946 61.4528 58.4223 61.7454C57.5893 62.2159 56.9528 62.9746 56.63 63.8815C56.355 64.7737 56.3043 65.721 56.4825 66.6379C56.6606 67.5548 57.0621 68.4126 57.6506 69.1337C58.2661 69.9218 59.1301 70.4736 60.0991 70.6976C61.068 70.9216 62.0838 70.8043 62.9776 70.3651C63.9219 69.7415 64.6284 68.8124 64.9811 67.7303C65.3339 66.6482 65.3121 65.4772 64.9192 64.4092Z" fill="#92DD78"/>
<path d="M63.6745 66.7966C63.6417 67.1753 63.5346 67.5437 63.3594 67.8802C63.1842 68.2168 62.9444 68.5147 62.6539 68.7567L62.4797 68.8824L62.2059 69.0332L61.9569 69.1588H61.5835H61.2351H60.314H60.0651H59.8162H59.6668C59.5119 69.0671 59.3623 68.9664 59.2188 68.8573L58.9699 68.6311C58.5111 68.1613 58.1772 67.5821 57.9991 66.9474C57.9458 66.7745 57.9043 66.5982 57.8746 66.4196C57.8746 66.4196 57.8746 66.2186 57.8746 66.2186C57.8611 66.1354 57.8611 66.0505 57.8746 65.9673C57.8497 65.7923 57.8497 65.6146 57.8746 65.4395V65.1631C57.8746 65.1631 57.8746 65.1631 57.8746 65.0123C57.9014 64.8143 57.9516 64.6203 58.0239 64.4343C58.05 64.3436 58.0922 64.2585 58.1484 64.183C58.156 64.1162 58.156 64.0488 58.1484 63.982L58.3227 63.8061L58.5218 63.605C58.8407 63.3589 59.2187 63.2028 59.6171 63.1527H60.314H61.1355C61.2708 63.1823 61.4116 63.1746 61.543 63.1304C61.6744 63.0862 61.7916 63.0071 61.8823 62.9014H62.0565C62.1349 62.955 62.2025 63.0233 62.2556 63.1024C62.3799 63.206 62.4815 63.3343 62.5543 63.4794C62.6603 63.6383 62.7519 63.8065 62.8282 63.982C62.8327 64.0489 62.8327 64.1161 62.8282 64.183C62.838 64.2833 62.838 64.3843 62.8282 64.4846C62.8977 64.6821 62.9559 64.8835 63.0024 65.0877V65.4144V65.6154C63.2728 65.9804 63.4984 66.377 63.6745 66.7966Z" fill="#282C33"/>
<path d="M48.6147 76.723C48.1521 76.3137 47.5964 76.0261 46.9971 75.8858C46.3978 75.7455 45.7735 75.7568 45.1796 75.9189C44.691 76.0917 44.2482 76.3754 43.8852 76.7482C43.591 76.9377 43.3232 77.1658 43.0886 77.4267C42.3547 78.245 41.9546 79.3134 41.9685 80.4172C41.9803 80.9278 42.1215 81.4269 42.3786 81.8668C42.6357 82.3067 43.0001 82.6729 43.4371 82.9302C44.0082 83.2218 44.6392 83.3737 45.2792 83.3737C45.9191 83.3737 46.5501 83.2218 47.1212 82.9302C49.1873 81.8496 50.7057 78.5324 48.6147 76.723Z" fill="#92DD78"/>
<path d="M55.1365 80.0404C55.1035 79.9271 55.0437 79.8236 54.9623 79.7388V79.6131L54.7133 79.4372C54.7133 79.4372 54.7133 79.4372 54.5889 79.4372H54.2653C54.222 79.4186 54.1754 79.4089 54.1284 79.4089C54.0813 79.4089 54.0347 79.4186 53.9915 79.4372C53.9035 79.4022 53.8056 79.4022 53.7177 79.4372C53.6352 79.4743 53.5658 79.5356 53.5185 79.6131C53.4623 79.6886 53.4201 79.7738 53.3941 79.8644V80.1157C53.3691 80.2486 53.3691 80.385 53.3941 80.5178V80.7691C53.3941 80.7691 53.3941 80.8948 53.5434 80.9702L53.7177 81.121H54.1906H54.3649H54.5142C54.5944 81.0398 54.6616 80.9465 54.7133 80.8445L54.8627 80.4927C54.9422 80.4465 55.009 80.3809 55.0568 80.3018C55.1047 80.2228 55.1321 80.1329 55.1365 80.0404Z" fill="#92DD78"/>
<path d="M56.9287 48.1498C56.6556 47.5397 56.1923 47.0366 55.6094 46.7174C55.2346 46.5494 54.8213 46.4886 54.4146 46.5415C53.9238 46.6004 53.4762 46.8535 53.1699 47.2451C52.8751 47.5832 52.6665 47.9888 52.5624 48.4268C52.4583 48.8648 52.4618 49.3218 52.5725 49.7582C52.7227 50.465 53.1388 51.0854 53.7332 51.4885C54.3276 51.8917 55.0538 52.0462 55.7587 51.9194C56.1254 51.7914 56.4543 51.5724 56.7153 51.2826C56.9763 50.9928 57.1609 50.6414 57.2523 50.2608C57.3837 49.5404 57.2697 48.7963 56.9287 48.1498Z" fill="#92DD78"/>
</g>
<defs>
<clipPath id="clip0_847_1753">
<rect width="104" height="106" fill="white"/>
</clipPath>
</defs>
</svg>
