<svg width="88" height="88" viewBox="0 0 88 88" fill="none" xmlns="http://www.w3.org/2000/svg">
<g clip-path="url(#clip0_867_1560)">
<path d="M49.3765 87.6665C73.5008 84.6958 90.6493 62.731 87.6786 38.6067C84.708 14.4823 62.7432 -2.66612 38.6188 0.304523C14.4945 3.27517 -2.65395 25.24 0.316692 49.3643C3.28734 73.4886 25.2522 90.6371 49.3765 87.6665Z" fill="#92DD78"/>
<path d="M44.0108 86.3232C35.0305 86.333 26.2836 83.4632 19.0546 78.1351C19.097 77.993 19.097 77.8417 19.0546 77.6996C18.7154 76.3433 18.8859 74.9097 19.5337 73.6709C20.1218 72.3822 20.776 71.1247 21.4936 69.9035C21.5805 69.7403 21.6145 69.5543 21.5911 69.371C21.5677 69.1876 21.488 69.0161 21.363 68.88C19.9911 67.7476 18.5756 66.7023 17.1383 65.6135L14.9606 63.9366C14.5088 63.5192 14.0285 63.1335 13.5233 62.7825C12.4998 62.1727 11.3457 63.1745 10.7359 63.9149C10.1262 64.6553 9.55997 66.3103 8.6889 67.2903C8.10092 66.3974 7.53473 65.4828 7.01208 64.5464C7.1646 64.4897 7.29417 64.3843 7.38077 64.2465C7.46737 64.1087 7.50617 63.9462 7.49117 63.7842C7.35622 61.0644 7.47286 58.338 7.8396 55.6397C8.2144 54.1037 9.15553 52.7658 10.4746 51.8941C11.8075 50.9917 13.0738 49.9947 14.2638 48.9107C14.8721 48.275 15.3458 47.5229 15.6564 46.6997C15.967 45.8764 16.1081 44.9989 16.0712 44.1198C15.8486 41.8014 15.3963 39.5109 14.7211 37.2819C14.4159 36.4043 14.297 35.4727 14.372 34.5465C14.447 33.6204 14.7142 32.7201 15.1566 31.903C16.9205 29.3769 20.3395 28.5058 21.5372 25.5006C21.8484 24.4372 21.8585 23.3083 21.5663 22.2395C21.2741 21.1707 20.6911 20.2039 19.8822 19.4467C18.2271 17.269 17.073 14.9171 15.5268 12.7612C20.0465 8.63745 25.4079 5.54459 31.2404 3.69649C37.0728 1.84839 43.2371 1.28915 49.3069 2.05745C55.3767 2.82576 61.2072 4.90326 66.3952 8.14631C71.5832 11.3894 76.0049 15.7206 79.3546 20.8404C77.8015 22.4231 76.6124 24.3257 75.8703 26.4152C75.5592 26.9385 75.3667 27.5238 75.3065 28.1296C75.2463 28.7354 75.3198 29.347 75.5219 29.9213C76.0418 31.0697 76.6234 32.1892 77.264 33.2749C77.9078 34.4056 78.4263 35.6032 78.8102 36.8463C78.9815 37.4003 79.0195 37.9869 78.9211 38.5583C78.8227 39.1298 78.5907 39.6699 78.244 40.1346C76.8938 42.3123 74.4984 43.9891 74.6943 46.6677C75.2574 48.9601 75.9852 51.209 76.872 53.3967C76.978 53.7202 76.9758 54.0694 76.8658 54.3915C76.7558 54.7137 76.544 54.9913 76.2623 55.1824C75.7354 55.5678 75.1561 55.8758 74.5419 56.097C73.1566 56.4712 71.8193 57.0047 70.5567 57.6867C70.2791 57.8621 70.0404 58.0927 69.8556 58.3643C69.6708 58.6358 69.5438 58.9425 69.4826 59.2651C69.4213 59.5878 69.427 59.9197 69.4995 60.24C69.5719 60.5604 69.7094 60.8625 69.9034 61.1274C70.5861 62.1723 71.4575 63.0806 72.4731 63.806C72.8358 64.1028 73.2701 64.2992 73.7324 64.3756C74.1948 64.452 74.6692 64.4058 75.1081 64.2415C75.5872 64.0891 76.0445 63.8495 76.5018 63.6971C77.0461 63.3982 77.6726 63.2836 78.2875 63.3705C78.7401 63.5986 79.1291 63.9353 79.4199 64.3504C79.7422 64.738 80.0994 65.0952 80.487 65.4175C76.7527 71.7757 71.4233 77.0489 65.0258 80.7155C58.6284 84.3821 51.3845 86.3151 44.0108 86.3232Z" fill="#282C33"/>
<path d="M66.0054 38.828C65.8617 37.9704 65.9316 37.0905 66.2089 36.2663C66.4861 35.4421 66.9622 34.6989 67.5951 34.1025C68.8716 32.8353 69.8143 31.2716 70.339 29.5511C70.4188 27.9962 70.3678 26.4373 70.1866 24.8909C70.2377 23.2104 70.1576 21.5285 69.947 19.8604C69.7075 18.3796 69.0977 16.9423 67.4645 16.6593C66.4787 16.583 65.4886 16.583 64.5028 16.6593C63.4278 16.517 62.4156 16.0713 61.5847 15.3744C60.6756 14.6817 59.689 14.0971 58.6449 13.6323C57.6411 13.3338 56.7328 12.7783 56.0099 12.0208C55.9091 11.8956 55.7722 11.8043 55.6179 11.7595C54.0935 10.3004 53.0482 7.92676 50.6528 7.92676C48.2573 7.92676 46.7983 9.84311 45.5788 11.3457C44.3593 12.8483 43.0309 14.8736 41.7243 16.7246C40.7783 17.872 40.0412 19.1766 39.5466 20.5791C39.3259 21.2315 39.2882 21.932 39.4377 22.6043C39.6508 23.3092 39.7175 24.0503 39.6337 24.782C39.4159 26.4153 38.7191 27.9396 38.4795 29.5511C38.2366 30.9294 38.4427 32.3493 39.0675 33.6016C39.723 34.7697 40.6295 35.7779 41.7215 36.5537C42.8135 37.3294 44.064 37.8533 45.3828 38.0876C46.6998 38.1308 48.0181 38.0653 49.3244 37.8916C49.7793 37.8371 50.2394 37.9368 50.631 38.1747C50.9592 38.5572 51.1708 39.0258 51.2407 39.5249C51.4337 40.6851 51.7177 41.8282 52.09 42.9438C52.8217 44.4974 53.4687 46.0894 54.0282 47.713C54.1997 48.8897 54.5447 50.0345 55.0517 51.1101C55.3339 51.4761 55.7089 51.76 56.1377 51.9323C56.5666 52.1046 57.0337 52.1591 57.4907 52.0901C59.3199 52.0901 61.171 51.7852 63.022 51.7417C64.873 51.6981 67.0725 51.7417 69.0759 51.9594C69.2248 51.9614 69.3715 51.9242 69.5015 51.8516C69.6314 51.779 69.74 51.6735 69.8163 51.5457C71.3625 48.4316 69.8163 45.5353 68.1613 42.835C67.2426 41.617 66.5155 40.2658 66.0054 38.828Z" fill="#92DD78"/>
<path d="M68.4663 50.1955C65.2845 49.9453 62.088 49.9453 58.9063 50.1955L57.2512 50.3261C56.9928 50.3815 56.7256 50.3815 56.4673 50.3261C56.4055 50.2333 56.3612 50.13 56.3366 50.0213C56.1699 49.5544 56.046 49.0733 55.9664 48.584C55.5954 47.0878 55.0851 45.6296 54.442 44.2287C53.876 43.0923 53.4448 41.8937 53.1572 40.6573C53.0327 39.5995 52.7153 38.5735 52.2208 37.6303C51.8965 37.2005 51.4691 36.8595 50.9781 36.6387C50.487 36.4179 49.9483 36.3245 49.4116 36.3672C48.1978 36.5157 46.9759 36.5885 45.7531 36.585C44.5887 36.3872 43.49 35.9089 42.5519 35.1913C41.4622 34.5091 40.6221 33.4933 40.1564 32.295C39.7923 30.9345 39.8685 29.4936 40.3742 28.1792C40.881 26.7809 41.1604 25.3105 41.2017 23.8238C41.2017 23.2358 40.9404 22.6914 40.8751 22.1252C40.864 21.4301 41.0612 20.7475 41.4413 20.1653C42.1593 18.9506 42.9597 17.7864 43.8367 16.681C44.3376 15.9842 44.8167 15.2437 45.2958 14.5033C45.9541 13.5165 46.6818 12.5777 47.4734 11.6941C48.1197 10.8874 48.9481 10.2456 49.8907 9.82133C50.3582 9.70908 50.8489 9.74284 51.2967 9.91806C51.7445 10.0933 52.1278 10.4015 52.395 10.8013C53.2125 11.8066 54.1003 12.7527 55.0518 13.6323C56.4137 14.5902 57.8737 15.4005 59.4071 16.0495C60.8279 17.323 62.593 18.1487 64.4811 18.4232C65.315 18.3689 66.1515 18.3689 66.9854 18.4232C67.6387 18.4232 67.8565 18.9458 68.009 19.5338C68.3589 21.0171 68.5126 22.54 68.4663 24.0633C68.4663 24.7384 68.4663 25.4353 68.4663 26.1104C68.4663 26.7854 68.6623 27.7436 68.6623 28.5494C68.4372 30.1515 67.6684 31.6277 66.4846 32.7305C65.1306 34.079 64.2909 35.8585 64.1109 37.7609C64.1916 39.1941 64.6417 40.582 65.4175 41.7897C66.8983 44.294 69.5987 47.1685 68.4663 50.1955Z" fill="#282C33"/>
<path d="M81.2928 64.002C80.7273 63.3495 80.116 62.7382 79.4635 62.1727C78.9838 61.8948 78.4438 61.7377 77.8899 61.7149C77.336 61.6922 76.7849 61.8044 76.2841 62.0421C75.5887 62.3814 74.8585 62.6443 74.1064 62.826C73.4096 62.826 72.5167 61.8025 71.9287 61.2799C71.6583 60.9872 71.4108 60.6741 71.1883 60.3435C71.0582 60.1534 70.9692 59.9383 70.927 59.7119C70.927 59.5159 70.927 59.7119 70.927 59.5595C70.927 59.4071 70.927 59.5595 70.927 59.4288L71.0794 59.2764C71.1495 59.206 71.2304 59.1472 71.319 59.1022C72.5206 58.526 73.7657 58.0455 75.0428 57.6649C75.7545 57.4724 76.4146 57.1246 76.9756 56.6463C77.5367 56.1681 77.9848 55.5714 78.2876 54.8993C78.4783 53.8364 78.3337 52.7405 77.8738 51.7634C77.5254 50.7617 77.0898 49.7817 76.7414 48.7582C76.2637 47.7393 76.1336 46.5917 76.3712 45.4917C76.902 44.3301 77.6399 43.2748 78.5489 42.3776C79.3734 41.4411 80.0093 40.3541 80.4217 39.1764C80.652 38.0223 80.5384 36.8259 80.095 35.7357C79.5978 34.4217 79.0008 33.1477 78.3093 31.9248C78.0045 31.3368 77.6996 30.727 77.3729 30.1391C77.0517 29.6804 76.8497 29.1491 76.785 28.5929C76.8656 27.9324 77.0966 27.2992 77.46 26.7419C77.7214 26.1539 77.9827 25.5659 78.2658 24.9997C78.7231 23.987 79.349 23.0592 80.1168 22.2559C84.0798 28.8271 86.1661 36.3589 86.149 44.0326C86.1995 50.9874 84.5314 57.847 81.2928 64.002Z" fill="#282C33"/>
<path d="M14.2638 13.9154C15.5704 15.7664 16.5722 17.7917 17.9005 19.5991C19.2289 21.4066 20.688 22.6697 20.0782 24.7167C19.5204 25.9844 18.585 27.0491 17.3997 27.7654C16.0769 28.6242 14.8882 29.6736 13.8718 30.8795C11.2804 34.4074 13.8718 39.0458 14.3074 42.835C14.5119 43.6731 14.516 44.5476 14.3192 45.3876C14.1225 46.2276 13.7304 47.0093 13.175 47.6694C12.007 48.7388 10.7624 49.7214 9.45115 50.6093C7.9381 51.6546 6.83687 53.1948 6.33707 54.9646C5.87149 57.3886 5.71055 59.8613 5.85798 62.3252C2.03327 54.3878 0.787317 45.4527 2.29467 36.7718C3.80203 28.0908 7.98717 20.0988 14.2638 13.9154Z" fill="#282C33"/>
<path d="M9.66895 68.6622C10.4336 67.7593 11.0577 66.7462 11.52 65.657C11.8286 65.1593 12.2274 64.7235 12.6959 64.3722L12.9355 64.59C15.1131 66.4845 17.3997 68.0525 19.5992 69.8164C18.1524 71.8507 17.2731 74.2333 17.0513 76.7196C14.2451 74.372 11.7627 71.6626 9.66895 68.6622Z" fill="#282C33"/>
</g>
<defs>
<clipPath id="clip0_867_1560">
<rect width="88" height="88" fill="white"/>
</clipPath>
</defs>
</svg>
