<svg width="147" height="111" viewBox="0 0 147 111" fill="none" xmlns="http://www.w3.org/2000/svg">
<g clip-path="url(#clip0_847_1737)">
<path d="M144.569 5.63839C142.446 5.01968 140.188 5.04744 138.081 5.71818C135.144 6.43659 132.272 7.39731 129.492 8.59059C124.048 10.7981 118.842 13.4843 113.477 15.8248C112.865 16.1113 112.233 16.3556 111.588 16.5562C111.459 16.5849 111.338 16.6446 111.237 16.7303C111.136 16.816 111.057 16.9251 111.006 17.0482C110.894 17.1236 110.796 17.2181 110.716 17.3275C109.038 15.3556 107.214 13.5151 105.259 11.8221C105.197 11.6333 105.081 11.467 104.926 11.344C104.771 11.221 104.583 11.1467 104.387 11.1305C103.343 10.2662 102.272 9.45497 101.162 8.68368C101.144 8.53394 101.094 8.39007 101.014 8.26237C100.934 8.13467 100.827 8.02629 100.701 7.94497C100.575 7.86366 100.432 7.81142 100.283 7.79199C100.135 7.77257 99.9838 7.78643 99.8411 7.83259C92.9301 3.3691 85.0133 0.729424 76.8213 0.157173C68.6294 -0.415079 60.4261 1.09853 52.9687 4.55831C45.5113 8.0181 39.0398 13.3126 34.1517 19.9532C29.2635 26.5938 26.1161 34.3666 24.9999 42.5542C24.8802 42.6712 24.8032 42.8255 24.7817 42.9921C24.7601 43.1587 24.7951 43.3277 24.881 43.4717C24.6522 45.3737 24.5331 47.2874 24.5242 49.2033C24.5229 55.8486 25.8718 62.4241 28.4883 68.5255C27.1669 69.8554 25.8456 71.1852 24.6167 72.515C17.7851 78.6643 11.6599 85.5648 6.35569 93.0873C3.94676 96.3491 1.99491 99.9289 0.554969 103.726C-0.264267 106.226 -0.554964 109.604 2.43128 110.707C4.32081 111.412 6.51425 110.907 8.4302 110.535C11.0752 110.016 13.6804 109.309 16.2262 108.42C21.4027 106.579 26.4374 104.357 31.2895 101.771C36.086 99.271 40.79 96.598 45.5997 94.1113L49.3524 92.183C56.8035 96.4413 65.2357 98.6539 73.8042 98.5991C82.3726 98.5444 90.7763 96.2242 98.1731 91.8711C105.57 87.518 111.7 81.2848 115.949 73.7963C120.198 66.3077 122.417 57.8267 122.383 49.2033C122.38 46.7724 122.194 44.3452 121.828 41.9425C124.881 39.2828 127.893 36.6232 130.747 33.804C134.423 30.0948 137.795 26.0923 140.829 21.8356C143.089 18.6972 145.692 15.3993 146.723 11.5827C147.357 9.30869 147.013 6.64906 144.569 5.63839ZM33.4037 90.8532C29.5718 92.9942 25.7399 95.1618 21.8551 97.223C18.4064 99.0582 14.8387 101.066 10.954 101.758H10.6501V101.665C10.4519 101.252 11.0333 100.335 11.2182 99.9891C11.6279 99.2444 12.1168 98.5529 12.5396 97.8481C13.8609 95.9464 15.0766 94.0581 16.5036 92.2628C19.5714 88.4168 22.9765 84.8563 26.678 81.6243C28.6997 79.8689 30.7214 78.1135 32.5845 76.1853C35.0441 79.9913 38.0094 83.4409 41.3978 86.4382L33.4037 90.8532ZM136.072 15.0535C136.003 15.3746 135.878 15.6807 135.702 15.9578L135.425 16.1839C134.421 17.5137 133.35 18.8435 132.241 20.1733C128.24 24.5782 123.977 28.7349 119.476 32.6204C118.247 29.1683 116.633 25.8671 114.667 22.7798C119.215 20.3853 123.906 18.2757 128.713 16.4631C129.783 16.1041 130.853 15.7583 131.923 15.3727C132.882 14.9533 133.906 14.7058 134.949 14.6413C135.227 14.6413 135.901 14.6413 136.099 14.8939C136.105 14.9603 136.105 15.0271 136.099 15.0934L136.072 15.0535Z" fill="#92DD78"/>
<path d="M117.983 33.9103L115.063 36.4769C108.932 41.8626 102.563 46.9824 96.0224 51.8496C82.8535 61.5902 69.1468 70.572 54.9681 78.7518C51.0041 81.0391 47.04 83.2466 43.076 85.4009C40.518 83.2255 38.197 80.7827 36.1521 78.1135C37.2795 77.602 38.4867 77.2915 39.7197 77.1959C41.329 76.8976 42.9079 76.4525 44.437 75.8661C47.7215 74.6123 50.8952 73.082 53.9242 71.2915C59.9422 67.8861 65.6583 63.9665 71.0093 59.5758C76.3101 55.2116 80.9877 50.1327 84.9099 44.4824C88.9734 38.3604 92.569 31.9366 95.6656 25.2665C96.8152 22.8728 97.8987 20.426 99.2597 18.1387C100.343 16.3434 101.81 13.9231 103.898 13.1252C110.362 18.6553 115.227 25.835 117.983 33.9103Z" fill="#282C33"/>
<path d="M88.7946 4.46814C92.1905 5.65569 95.4402 7.23071 98.48 9.1624C97.5947 10.1864 96.8019 11.2901 95.9827 12.3407C94.1857 14.6944 92.4151 17.0748 90.618 19.4286C86.7936 24.7625 82.509 29.7465 77.8142 34.3226C76.9248 35.1588 75.9752 35.9277 74.9733 36.6232C74.2251 37.162 73.3951 37.5752 72.5156 37.8466C72.2105 37.9541 71.8862 37.9949 71.5642 37.9663H71.3528H71.2206L70.9696 37.8865C70.5996 37.6737 70.5864 37.687 70.4014 37.3413C70.4014 37.2482 70.4014 37.3413 70.4014 37.1817C70.4014 37.0221 70.4014 36.9955 70.3353 36.9024V36.7561C70.3353 36.6099 70.3353 36.4769 70.3353 36.3306C70.4278 33.8305 72.2645 31.0113 73.6123 28.8171C75.33 26.0644 77.246 23.4978 79.2148 20.8382C80.4965 18.9898 81.9236 17.1812 83.2449 15.3594C84.4341 13.8301 85.5705 12.2875 86.5879 10.6385C87.5709 9.22757 88.2958 7.6514 88.7285 5.98413C88.8362 5.48629 88.8586 4.97357 88.7946 4.46814Z" fill="#282C33"/>
<path d="M68.3401 2.1676C65.1821 4.82724 62.3015 7.69965 59.0907 10.2928C55.1448 13.5446 50.4974 15.8217 45.5204 16.9419C43.1563 17.4488 40.7491 17.7249 38.3323 17.7664C46.0705 9.00654 56.7633 3.44817 68.3401 2.1676Z" fill="#282C33"/>
<path d="M36.7731 19.6547C42.086 19.7346 47.3594 18.7256 52.2725 16.6892C56.899 14.4868 61.1176 11.505 64.746 7.87251C66.7977 5.90259 68.9547 4.04695 71.2074 2.31387C71.3418 2.21217 71.4504 2.08005 71.5246 1.92822C72.172 1.92822 72.8459 1.92822 73.4934 1.92822H74.458C70.3353 5.91768 66.9923 10.6518 62.3412 14.0163C59.4672 15.964 56.3592 17.5369 53.0918 18.6972C49.7564 20.0152 46.3119 21.0343 42.7985 21.7425C40.235 22.2213 37.5131 21.8223 34.8704 22.2878C35.4518 21.3702 36.0992 20.4925 36.7731 19.6547Z" fill="#282C33"/>
<path d="M26.427 49.2033C26.4301 47.3543 26.5404 45.5072 26.7573 43.6712C32.2013 41.2243 36.9978 37.1152 43.0363 35.9051C44.0881 35.6212 45.1955 35.6212 46.2472 35.9051C45.9547 37.1018 45.3582 38.2016 44.5163 39.0966C43.3277 40.442 41.9987 41.6547 40.5522 42.7137C37.751 44.8281 34.7251 46.5835 31.9767 48.7378C30.272 50.1938 28.4412 51.4934 26.5063 52.6209C26.4534 51.5216 26.427 50.3824 26.427 49.2033Z" fill="#282C33"/>
<path d="M26.7045 54.6688C28.7743 53.62 30.709 52.3204 32.4655 50.7991C33.9983 49.5889 35.5575 48.4586 37.1828 47.3947C40.4427 45.4855 43.4075 43.1066 45.9829 40.3334C47.2394 38.9776 48.0192 37.2445 48.2028 35.3997C48.2024 35.2342 48.1581 35.0717 48.0744 34.9291C47.9908 34.7865 47.8709 34.669 47.7271 34.5886C45.0844 33.0593 41.7414 34.1098 39.1384 35.1338C35.8039 36.5645 32.572 38.2264 29.4661 40.1073C28.6601 40.5594 27.854 41.0249 27.048 41.4371C27.2066 40.4265 27.418 39.4291 27.6558 38.445C27.7775 38.4956 27.9094 38.516 28.0405 38.5045C28.1716 38.4929 28.298 38.4497 28.409 38.3785C35.7821 34.3891 43.1024 30.1204 51.0966 27.474C53.8978 26.5565 56.6727 25.5059 59.4871 24.6548C60.8383 24.2019 62.2415 23.9249 63.6626 23.8303C64.4686 23.8303 66.1996 23.9101 66.3053 24.9474C66.411 25.9846 65.1954 27.3543 64.5875 28.099C63.4512 29.4289 62.3016 30.8518 61.086 32.155C58.3447 35.0672 55.4325 37.8116 52.3651 40.3733C47.3704 44.6686 42.151 48.7511 36.9978 52.9002C34.9629 54.5358 32.9544 56.1715 31.0385 57.9402C30.2348 58.6559 29.4882 59.4341 28.8054 60.2674C28.4189 60.6888 28.1658 61.2166 28.0787 61.7834C27.437 59.4515 26.9776 57.0728 26.7045 54.6688Z" fill="#282C33"/>
<path d="M28.3165 62.5945C28.4462 62.7509 28.6226 62.8608 28.8195 62.908C29.0163 62.9552 29.2231 62.9371 29.4089 62.8563C29.5946 62.7755 29.7495 62.6365 29.8503 62.4599C29.9511 62.2833 29.9925 62.0786 29.9682 61.8764C29.9852 61.8339 30.0073 61.7936 30.0343 61.7567C30.2272 61.4686 30.4438 61.1972 30.6817 60.9455C31.4085 60.1476 32.2145 59.4029 33.0073 58.6848C34.7911 57.089 36.6542 55.573 38.5173 54.0704C43.882 49.7617 49.3392 45.5063 54.5717 41.0115C57.7044 38.3724 60.6617 35.5293 63.4248 32.5007C64.5743 31.1709 65.7107 29.841 66.7545 28.5112C67.639 27.5358 68.1739 26.2906 68.2741 24.9739C68.1552 21.7425 63.8476 21.7956 61.6674 22.2212C58.8049 22.9141 55.9927 23.8027 53.2504 24.8808C51.123 25.5856 48.9956 26.2106 46.9079 27.0617C44.8202 27.9128 42.5474 28.9102 40.4201 29.9474C36.2843 31.9555 32.2806 34.1896 28.2637 36.3971C29.4193 32.2719 31.1309 28.3256 33.3509 24.6681H33.5094C36.271 23.5377 39.4819 24.0962 42.3889 23.7239C44.0657 23.4627 45.7216 23.0805 47.3439 22.5802C49.1806 22.0749 51.0041 21.4898 52.7879 20.8382C56.1556 19.7004 59.383 18.179 62.4073 16.3035C64.9553 14.547 67.2843 12.4887 69.3444 10.173C71.6832 7.52668 73.9955 4.81385 76.6382 2.43348C76.7688 2.3208 76.8649 2.17328 76.9157 2.00793C80.3294 2.25687 83.7057 2.88117 86.9844 3.86968C86.9026 4.07909 86.9026 4.31188 86.9844 4.52129C87.3412 5.67824 86.4162 7.32721 85.8216 8.41766C84.8286 10.1572 83.7205 11.8277 82.505 13.4178C81.6329 14.588 80.7344 15.7184 79.8623 16.8886L79.2016 17.7397C78.8581 18.2051 78.5013 18.6573 78.1446 19.0695C76.1361 21.7292 74.1805 24.3888 72.3835 27.1149C70.7979 29.5751 69.0008 32.4342 68.5252 35.3465C68.1816 37.5141 69.133 39.6019 71.4982 39.8014C73.5199 39.961 75.4622 38.6312 77.0214 37.4609C79.3688 35.5904 81.5365 33.5023 83.496 31.2241C85.8084 28.5644 88.0018 25.9048 90.1028 23.1521C92.2037 20.3993 94.0668 17.8328 96.1281 15.1731C97.4495 13.471 98.6915 11.7289 100.092 10.1198C100.845 10.6385 101.585 11.1837 102.312 11.7422C100.945 12.6695 99.777 13.8633 98.8765 15.2529C97.4513 17.3554 96.2133 19.5804 95.1767 21.902C92.3407 28.1025 89.1419 34.1283 85.597 39.9477C83.7447 43 81.6782 45.9153 79.4131 48.6713C77.1625 51.3263 74.7297 53.8192 72.1324 56.1316C66.9756 60.692 61.406 64.7568 55.4967 68.2728C52.0966 70.4081 48.5253 72.2541 44.8202 73.7916C43.085 74.5061 41.2835 75.0451 39.4423 75.4007C37.9434 75.5215 36.4834 75.9419 35.1479 76.6374C32.1178 72.3671 29.8095 67.6222 28.3165 62.5945Z" fill="#282C33"/>
<path d="M95.2957 91.1724C98.1673 87.1527 101.377 83.3888 104.889 79.9221C106.937 77.8875 109.064 75.9327 111.284 74.0576C112.724 72.8475 114.178 71.6373 115.565 70.3607C111.137 79.2603 104.048 86.5388 95.2957 91.1724Z" fill="#282C33"/>
<path d="M117.217 66.6371C117.065 66.5952 116.905 66.598 116.755 66.6451C116.605 66.6923 116.472 66.7819 116.371 66.9031C114.305 69.0537 112.098 71.0619 109.764 72.9139C107.558 74.7756 105.43 76.7438 103.395 78.7917C99.2294 82.916 95.4967 87.4614 92.2565 92.3558C92.1796 92.4716 92.1299 92.6035 92.1112 92.7415C82.2872 97.0141 71.3062 97.7743 60.9934 94.8958C69.7467 92.8012 78.0927 89.2554 85.6894 84.4035C94.1495 78.9733 102.109 72.7916 109.474 65.9323C113.028 62.7142 116.516 59.4162 120.044 56.105C119.517 59.7154 118.567 63.2505 117.217 66.6371Z" fill="#282C33"/>
<path d="M120.335 53.1927L120.243 53.2725C113.2 60.028 106.104 66.7436 98.5066 72.8741C90.9306 79.1967 82.5771 84.5109 73.652 88.6856C68.6558 90.9339 63.4134 92.5809 58.0337 93.5926C57.8629 93.6151 57.7047 93.6947 57.5844 93.8187C55.4411 93.0408 53.3568 92.1075 51.3477 91.0261C54.585 89.3505 57.8223 87.6616 61.0067 85.893C71.3195 80.2306 81.3233 74.0159 90.9749 67.2755C100.568 60.6264 109.276 52.7805 118.142 45.134L120.15 43.4053C120.393 45.3283 120.517 47.2648 120.52 49.2033C120.52 50.5331 120.441 51.8629 120.335 53.1927Z" fill="#282C33"/>
<path d="M144.635 11.9683C143.907 13.8487 142.957 15.6345 141.807 17.2876C139.473 20.8586 136.914 24.2744 134.143 27.5139C130.535 31.6 126.654 35.4343 122.529 38.9902C118.353 42.6472 114.125 46.2245 109.936 49.8682C105.747 53.5119 101.295 57.3151 96.7227 60.7993C87.7142 67.6074 78.2923 73.8431 68.5119 79.4699C63.6493 82.3423 58.7251 85.0818 53.7392 87.6882C48.8899 90.2282 44.0802 92.6218 39.3101 95.215C30.0607 100.228 20.7319 105.601 10.4122 108.128C9.19656 108.42 7.98092 108.673 6.73886 108.886C5.77351 109.078 4.78583 109.132 3.80546 109.045C3.3384 109.045 2.8866 108.878 2.53079 108.573C2.17497 108.269 1.93831 107.847 1.86308 107.383C1.79832 106.127 2.02922 104.874 2.53697 103.726C2.98787 102.53 3.52671 101.37 4.14901 100.255C5.01318 98.2064 6.08004 96.2506 7.33346 94.4171C10.6986 89.489 14.5212 84.8938 18.7499 80.6934C22.1854 77.1959 25.8456 73.9113 29.2414 70.374C29.9417 71.8501 30.7081 73.2996 31.5406 74.6959C27.9201 78.5391 23.6125 81.6774 20.0052 85.5206C18.2214 87.4222 16.4904 89.3904 14.8784 91.4516C13.2663 93.5128 12.0375 95.3081 10.7029 97.2895C9.85724 98.5395 8.58874 100.242 8.77373 101.864C8.43974 101.815 8.13716 101.639 7.92807 101.372C7.65288 100.658 7.65288 99.8656 7.92807 99.1513C8.66287 96.7061 9.7634 94.3878 11.1918 92.2761C9.5753 94.1543 8.23987 96.2598 7.22775 98.5262C6.71631 99.7097 6.41661 100.975 6.34245 102.263V102.343C6.68922 102.799 7.14113 103.163 7.65912 103.404C8.17711 103.645 8.7456 103.756 9.31548 103.726C11.2026 103.693 13.0669 103.305 14.8123 102.582C18.8203 100.986 22.7029 99.0882 26.4269 96.9039C34.1568 92.6617 41.8735 88.4063 49.5373 84.0578C64.5724 75.6472 79.1298 66.3995 93.1418 56.3577C100.079 51.331 106.844 46.0516 113.358 40.4929C116.569 37.7535 119.688 34.9343 122.819 32.1018C125.951 29.2693 128.937 26.5165 131.791 23.5111C132.32 22.9526 132.848 22.3808 133.377 21.7957C133.479 21.7505 133.569 21.6822 133.641 21.5962C135.531 19.8191 137.297 17.9129 138.927 15.8913C139.682 14.9154 140.087 13.7108 140.076 12.4736C140.013 11.9257 139.781 11.4112 139.414 11.0014C139.047 10.5916 138.563 10.3068 138.028 10.1864C136.916 9.95825 135.776 9.89553 134.645 10.0002C134.417 10.0276 134.207 10.1381 134.055 10.3109C133.903 10.4836 133.818 10.7067 133.818 10.9377C133.818 11.1687 133.903 11.3918 134.055 11.5645C134.207 11.7373 134.417 11.8479 134.645 11.8752C135.455 11.8149 136.267 11.8149 137.077 11.8752C137.386 11.915 137.686 12.0096 137.962 12.1545C138.029 12.1971 138.086 12.2535 138.129 12.32C138.172 12.3865 138.201 12.4616 138.213 12.5401C138.232 13.0458 138.113 13.547 137.869 13.9896C137.717 13.7029 137.494 13.4602 137.222 13.2848C135.147 11.955 132.32 13.2848 130.272 13.9497C127.47 14.9471 124.709 15.9046 122 17.1413C119.291 18.378 116.477 19.801 113.715 21.1308C113.134 20.293 112.526 19.4552 111.905 18.6573C112.645 18.378 113.385 18.0722 114.125 17.753C114.208 17.7669 114.293 17.7669 114.376 17.753C114.541 17.7581 114.705 17.7142 114.846 17.6268C114.987 17.5393 115.099 17.4121 115.169 17.261C119.569 15.3195 123.863 13.0721 128.382 11.4364C129.03 11.1172 129.704 10.8114 130.351 10.5188C132.89 9.32574 135.573 8.47185 138.332 7.97886C138.07 7.86265 137.795 7.77784 137.513 7.72619C138.683 7.39789 139.882 7.18412 141.094 7.08788C141.978 6.96635 142.877 7.02973 143.736 7.27405C144.021 7.33303 144.288 7.4573 144.517 7.6372C144.747 7.8171 144.931 8.04779 145.058 8.31131L145.137 8.59057C145.218 8.89376 145.254 9.20757 145.243 9.52145C145.181 10.3662 144.976 11.1939 144.635 11.9683Z" fill="#282C33"/>
</g>
<defs>
<clipPath id="clip0_847_1737">
<rect width="147" height="111" fill="white"/>
</clipPath>
</defs>
</svg>
